<svg xmlns="http://www.w3.org/2000/svg" viewBox="0 0 1320 640">
<rect width="100%" height="100%" fill="#ffffff"/>
<rect x="72" y="92" width="928" height="393" fill="#f8fafc" stroke="#cbd5e1"/>
<rect x="72" y="505" width="928" height="70" fill="#f8fafc" stroke="#cbd5e1"/>
<rect x="1018" y="92" width="270" height="483" fill="#ffffff" stroke="#cbd5e1"/>
<text x="72.0" y="28.0" font-family="ui-monospace, SFMono-Regular, Menlo, monospace" font-size="18" fill="#0f172a">TLT · ascending_triangle · invalidated</text>
<text x="72.0" y="52.0" font-family="ui-monospace, SFMono-Regular, Menlo, monospace" font-size="13" fill="#334155">2018-11-15 → 2019-03-28 · FIXED_INCOME · DETECTED_CANDIDATE</text>
<text x="72.0" y="72.0" font-family="ui-monospace, SFMono-Regular, Menlo, monospace" font-size="11" fill="#64748b">case=review_bc5409decb1d483b842a · human review: UNSET</text>
<line x1="72.00" y1="459.02" x2="72.00" y2="485.00" stroke="#dc2626" stroke-width="0.7"/>
<rect x="71.00" y="549.28" width="2" height="25.72" fill="#dc2626" opacity="0.55"/>
<line x1="82.43" y1="450.87" x2="82.43" y2="477.75" stroke="#16a34a" stroke-width="0.7"/>
<rect x="81.43" y="547.84" width="2" height="27.16" fill="#16a34a" opacity="0.55"/>
<line x1="92.85" y1="444.52" x2="92.85" y2="462.95" stroke="#16a34a" stroke-width="0.7"/>
<rect x="91.85" y="554.89" width="2" height="20.11" fill="#16a34a" opacity="0.55"/>
<line x1="103.28" y1="431.23" x2="103.28" y2="447.24" stroke="#dc2626" stroke-width="0.7"/>
<rect x="102.28" y="553.77" width="2" height="21.23" fill="#dc2626" opacity="0.55"/>
<line x1="113.71" y1="442.41" x2="113.71" y2="459.02" stroke="#16a34a" stroke-width="0.7"/>
<rect x="112.71" y="558.61" width="2" height="16.39" fill="#16a34a" opacity="0.55"/>
<line x1="124.13" y1="422.17" x2="124.13" y2="442.41" stroke="#dc2626" stroke-width="0.7"/>
<rect x="123.13" y="565.54" width="2" height="9.46" fill="#dc2626" opacity="0.55"/>
<line x1="134.56" y1="443.31" x2="134.56" y2="451.77" stroke="#16a34a" stroke-width="0.7"/>
<rect x="133.56" y="554.76" width="2" height="20.24" fill="#16a34a" opacity="0.55"/>
<line x1="144.99" y1="437.57" x2="144.99" y2="452.38" stroke="#16a34a" stroke-width="0.7"/>
<rect x="143.99" y="554.65" width="2" height="20.35" fill="#16a34a" opacity="0.55"/>
<line x1="155.42" y1="444.52" x2="155.42" y2="464.46" stroke="#dc2626" stroke-width="0.7"/>
<rect x="154.42" y="548.10" width="2" height="26.90" fill="#dc2626" opacity="0.55"/>
<line x1="165.84" y1="437.57" x2="165.84" y2="457.51" stroke="#dc2626" stroke-width="0.7"/>
<rect x="164.84" y="551.19" width="2" height="23.81" fill="#dc2626" opacity="0.55"/>
<line x1="176.27" y1="432.44" x2="176.27" y2="445.73" stroke="#16a34a" stroke-width="0.7"/>
<rect x="175.27" y="546.06" width="2" height="28.94" fill="#16a34a" opacity="0.55"/>
<line x1="186.70" y1="418.54" x2="186.70" y2="455.40" stroke="#16a34a" stroke-width="0.7"/>
<rect x="185.70" y="543.96" width="2" height="31.04" fill="#16a34a" opacity="0.55"/>
<line x1="197.12" y1="334.26" x2="197.12" y2="396.19" stroke="#16a34a" stroke-width="0.7"/>
<rect x="196.12" y="518.87" width="2" height="56.13" fill="#16a34a" opacity="0.55"/>
<line x1="207.55" y1="318.25" x2="207.55" y2="350.58" stroke="#dc2626" stroke-width="0.7"/>
<rect x="206.55" y="523.26" width="2" height="51.74" fill="#dc2626" opacity="0.55"/>
<line x1="217.98" y1="338.49" x2="217.98" y2="369.00" stroke="#16a34a" stroke-width="0.7"/>
<rect x="216.98" y="548.76" width="2" height="26.24" fill="#16a34a" opacity="0.55"/>
<line x1="228.40" y1="315.84" x2="228.40" y2="341.21" stroke="#16a34a" stroke-width="0.7"/>
<rect x="227.40" y="545.27" width="2" height="29.73" fill="#16a34a" opacity="0.55"/>
<line x1="238.83" y1="312.82" x2="238.83" y2="336.08" stroke="#dc2626" stroke-width="0.7"/>
<rect x="237.83" y="549.06" width="2" height="25.94" fill="#dc2626" opacity="0.55"/>
<line x1="249.26" y1="332.75" x2="249.26" y2="347.25" stroke="#dc2626" stroke-width="0.7"/>
<rect x="248.26" y="555.25" width="2" height="19.75" fill="#dc2626" opacity="0.55"/>
<line x1="259.69" y1="336.98" x2="259.69" y2="355.11" stroke="#dc2626" stroke-width="0.7"/>
<rect x="258.69" y="558.40" width="2" height="16.60" fill="#dc2626" opacity="0.55"/>
<line x1="270.11" y1="331.24" x2="270.11" y2="347.86" stroke="#dc2626" stroke-width="0.7"/>
<rect x="269.11" y="546.62" width="2" height="28.38" fill="#dc2626" opacity="0.55"/>
<line x1="280.54" y1="315.23" x2="280.54" y2="337.29" stroke="#16a34a" stroke-width="0.7"/>
<rect x="279.54" y="543.13" width="2" height="31.87" fill="#16a34a" opacity="0.55"/>
<line x1="290.97" y1="300.43" x2="290.97" y2="326.11" stroke="#16a34a" stroke-width="0.7"/>
<rect x="289.97" y="542.37" width="2" height="32.63" fill="#16a34a" opacity="0.55"/>
<line x1="301.39" y1="243.94" x2="301.39" y2="296.50" stroke="#16a34a" stroke-width="0.7"/>
<rect x="300.39" y="505.00" width="2" height="70.00" fill="#16a34a" opacity="0.55"/>
<line x1="311.82" y1="232.77" x2="311.82" y2="273.85" stroke="#dc2626" stroke-width="0.7"/>
<rect x="310.82" y="513.79" width="2" height="61.21" fill="#dc2626" opacity="0.55"/>
<line x1="322.25" y1="257.54" x2="322.25" y2="282.31" stroke="#dc2626" stroke-width="0.7"/>
<rect x="321.25" y="547.02" width="2" height="27.98" fill="#dc2626" opacity="0.55"/>
<line x1="332.67" y1="251.19" x2="332.67" y2="266.60" stroke="#16a34a" stroke-width="0.7"/>
<rect x="331.67" y="549.31" width="2" height="25.69" fill="#16a34a" opacity="0.55"/>
<line x1="343.10" y1="252.10" x2="343.10" y2="294.99" stroke="#dc2626" stroke-width="0.7"/>
<rect x="342.10" y="540.63" width="2" height="34.37" fill="#dc2626" opacity="0.55"/>
<line x1="353.53" y1="252.40" x2="353.53" y2="294.39" stroke="#dc2626" stroke-width="0.7"/>
<rect x="352.53" y="539.17" width="2" height="35.83" fill="#dc2626" opacity="0.55"/>
<line x1="363.96" y1="262.37" x2="363.96" y2="285.33" stroke="#16a34a" stroke-width="0.7"/>
<rect x="362.96" y="546.21" width="2" height="28.79" fill="#16a34a" opacity="0.55"/>
<line x1="374.38" y1="246.96" x2="374.38" y2="280.19" stroke="#16a34a" stroke-width="0.7"/>
<rect x="373.38" y="514.96" width="2" height="60.04" fill="#16a34a" opacity="0.55"/>
<line x1="384.81" y1="228.84" x2="384.81" y2="253.61" stroke="#16a34a" stroke-width="0.7"/>
<rect x="383.81" y="526.14" width="2" height="48.86" fill="#16a34a" opacity="0.55"/>
<line x1="395.24" y1="177.49" x2="395.24" y2="227.03" stroke="#16a34a" stroke-width="0.7"/>
<rect x="394.24" y="521.07" width="2" height="53.93" fill="#16a34a" opacity="0.55"/>
<line x1="405.66" y1="216.76" x2="405.66" y2="244.25" stroke="#dc2626" stroke-width="0.7"/>
<rect x="404.66" y="537.74" width="2" height="37.26" fill="#dc2626" opacity="0.55"/>
<line x1="416.09" y1="214.04" x2="416.09" y2="245.15" stroke="#dc2626" stroke-width="0.7"/>
<rect x="415.09" y="549.96" width="2" height="25.04" fill="#dc2626" opacity="0.55"/>
<line x1="426.52" y1="235.49" x2="426.52" y2="252.10" stroke="#dc2626" stroke-width="0.7"/>
<rect x="425.52" y="549.09" width="2" height="25.91" fill="#dc2626" opacity="0.55"/>
<line x1="436.94" y1="250.89" x2="436.94" y2="270.22" stroke="#dc2626" stroke-width="0.7"/>
<rect x="435.94" y="548.73" width="2" height="26.27" fill="#dc2626" opacity="0.55"/>
<line x1="447.37" y1="251.50" x2="447.37" y2="283.82" stroke="#dc2626" stroke-width="0.7"/>
<rect x="446.37" y="548.12" width="2" height="26.88" fill="#dc2626" opacity="0.55"/>
<line x1="457.80" y1="255.72" x2="457.80" y2="273.55" stroke="#16a34a" stroke-width="0.7"/>
<rect x="456.80" y="556.22" width="2" height="18.78" fill="#16a34a" opacity="0.55"/>
<line x1="468.22" y1="263.58" x2="468.22" y2="286.84" stroke="#dc2626" stroke-width="0.7"/>
<rect x="467.22" y="552.70" width="2" height="22.30" fill="#dc2626" opacity="0.55"/>
<line x1="478.65" y1="276.87" x2="478.65" y2="295.60" stroke="#dc2626" stroke-width="0.7"/>
<rect x="477.65" y="544.64" width="2" height="30.36" fill="#dc2626" opacity="0.55"/>
<line x1="489.08" y1="282.31" x2="489.08" y2="308.89" stroke="#16a34a" stroke-width="0.7"/>
<rect x="488.08" y="554.96" width="2" height="20.04" fill="#16a34a" opacity="0.55"/>
<line x1="499.51" y1="278.08" x2="499.51" y2="297.41" stroke="#dc2626" stroke-width="0.7"/>
<rect x="498.51" y="547.66" width="2" height="27.34" fill="#dc2626" opacity="0.55"/>
<line x1="509.93" y1="290.46" x2="509.93" y2="312.82" stroke="#dc2626" stroke-width="0.7"/>
<rect x="508.93" y="529.31" width="2" height="45.69" fill="#dc2626" opacity="0.55"/>
<line x1="520.36" y1="272.34" x2="520.36" y2="291.97" stroke="#16a34a" stroke-width="0.7"/>
<rect x="519.36" y="545.82" width="2" height="29.18" fill="#16a34a" opacity="0.55"/>
<line x1="530.79" y1="275.36" x2="530.79" y2="299.22" stroke="#16a34a" stroke-width="0.7"/>
<rect x="529.79" y="555.99" width="2" height="19.01" fill="#16a34a" opacity="0.55"/>
<line x1="541.21" y1="256.03" x2="541.21" y2="272.64" stroke="#16a34a" stroke-width="0.7"/>
<rect x="540.21" y="556.98" width="2" height="18.02" fill="#16a34a" opacity="0.55"/>
<line x1="551.64" y1="271.43" x2="551.64" y2="284.42" stroke="#dc2626" stroke-width="0.7"/>
<rect x="550.64" y="553.77" width="2" height="21.23" fill="#dc2626" opacity="0.55"/>
<line x1="562.07" y1="265.69" x2="562.07" y2="281.70" stroke="#dc2626" stroke-width="0.7"/>
<rect x="561.07" y="554.05" width="2" height="20.95" fill="#dc2626" opacity="0.55"/>
<line x1="572.49" y1="262.67" x2="572.49" y2="282.31" stroke="#16a34a" stroke-width="0.7"/>
<rect x="571.49" y="557.53" width="2" height="17.47" fill="#16a34a" opacity="0.55"/>
<line x1="582.92" y1="264.49" x2="582.92" y2="284.12" stroke="#16a34a" stroke-width="0.7"/>
<rect x="581.92" y="539.39" width="2" height="35.61" fill="#16a34a" opacity="0.55"/>
<line x1="593.35" y1="228.24" x2="593.35" y2="248.78" stroke="#16a34a" stroke-width="0.7"/>
<rect x="592.35" y="538.37" width="2" height="36.63" fill="#16a34a" opacity="0.55"/>
<line x1="603.78" y1="246.66" x2="603.78" y2="268.71" stroke="#dc2626" stroke-width="0.7"/>
<rect x="602.78" y="540.29" width="2" height="34.71" fill="#dc2626" opacity="0.55"/>
<line x1="614.20" y1="277.47" x2="614.20" y2="293.48" stroke="#dc2626" stroke-width="0.7"/>
<rect x="613.20" y="549.62" width="2" height="25.38" fill="#dc2626" opacity="0.55"/>
<line x1="624.63" y1="256.93" x2="624.63" y2="274.15" stroke="#16a34a" stroke-width="0.7"/>
<rect x="623.63" y="555.01" width="2" height="19.99" fill="#16a34a" opacity="0.55"/>
<line x1="635.06" y1="251.50" x2="635.06" y2="272.04" stroke="#dc2626" stroke-width="0.7"/>
<rect x="634.06" y="558.52" width="2" height="16.48" fill="#dc2626" opacity="0.55"/>
<line x1="645.48" y1="236.39" x2="645.48" y2="256.93" stroke="#16a34a" stroke-width="0.7"/>
<rect x="644.48" y="546.87" width="2" height="28.13" fill="#16a34a" opacity="0.55"/>
<line x1="655.91" y1="219.48" x2="655.91" y2="231.56" stroke="#16a34a" stroke-width="0.7"/>
<rect x="654.91" y="560.89" width="2" height="14.11" fill="#16a34a" opacity="0.55"/>
<line x1="666.34" y1="228.24" x2="666.34" y2="241.23" stroke="#16a34a" stroke-width="0.7"/>
<rect x="665.34" y="561.57" width="2" height="13.43" fill="#16a34a" opacity="0.55"/>
<line x1="676.76" y1="241.23" x2="676.76" y2="257.84" stroke="#dc2626" stroke-width="0.7"/>
<rect x="675.76" y="547.97" width="2" height="27.03" fill="#dc2626" opacity="0.55"/>
<line x1="687.19" y1="252.10" x2="687.19" y2="266.60" stroke="#dc2626" stroke-width="0.7"/>
<rect x="686.19" y="560.66" width="2" height="14.34" fill="#dc2626" opacity="0.55"/>
<line x1="697.62" y1="227.63" x2="697.62" y2="246.36" stroke="#dc2626" stroke-width="0.7"/>
<rect x="696.62" y="557.61" width="2" height="17.39" fill="#dc2626" opacity="0.55"/>
<line x1="708.04" y1="233.07" x2="708.04" y2="247.57" stroke="#16a34a" stroke-width="0.7"/>
<rect x="707.04" y="558.27" width="2" height="16.73" fill="#16a34a" opacity="0.55"/>
<line x1="718.47" y1="217.36" x2="718.47" y2="235.18" stroke="#dc2626" stroke-width="0.7"/>
<rect x="717.47" y="557.93" width="2" height="17.07" fill="#dc2626" opacity="0.55"/>
<line x1="728.90" y1="231.26" x2="728.90" y2="246.06" stroke="#dc2626" stroke-width="0.7"/>
<rect x="727.90" y="560.64" width="2" height="14.36" fill="#dc2626" opacity="0.55"/>
<line x1="739.33" y1="259.05" x2="739.33" y2="272.94" stroke="#dc2626" stroke-width="0.7"/>
<rect x="738.33" y="552.66" width="2" height="22.34" fill="#dc2626" opacity="0.55"/>
<line x1="749.75" y1="235.18" x2="749.75" y2="251.19" stroke="#16a34a" stroke-width="0.7"/>
<rect x="748.75" y="557.34" width="2" height="17.66" fill="#16a34a" opacity="0.55"/>
<line x1="760.18" y1="254.82" x2="760.18" y2="266.30" stroke="#16a34a" stroke-width="0.7"/>
<rect x="759.18" y="557.68" width="2" height="17.32" fill="#16a34a" opacity="0.55"/>
<line x1="770.61" y1="239.11" x2="770.61" y2="253.01" stroke="#16a34a" stroke-width="0.7"/>
<rect x="769.61" y="556.32" width="2" height="18.68" fill="#16a34a" opacity="0.55"/>
<line x1="781.03" y1="259.95" x2="781.03" y2="285.93" stroke="#dc2626" stroke-width="0.7"/>
<rect x="780.03" y="552.54" width="2" height="22.46" fill="#dc2626" opacity="0.55"/>
<line x1="791.46" y1="275.36" x2="791.46" y2="302.85" stroke="#dc2626" stroke-width="0.7"/>
<rect x="790.46" y="544.59" width="2" height="30.41" fill="#dc2626" opacity="0.55"/>
<line x1="801.89" y1="308.29" x2="801.89" y2="335.17" stroke="#dc2626" stroke-width="0.7"/>
<rect x="800.89" y="534.52" width="2" height="40.48" fill="#dc2626" opacity="0.55"/>
<line x1="812.31" y1="301.04" x2="812.31" y2="322.48" stroke="#16a34a" stroke-width="0.7"/>
<rect x="811.31" y="548.46" width="2" height="26.54" fill="#16a34a" opacity="0.55"/>
<line x1="822.74" y1="298.02" x2="822.74" y2="316.14" stroke="#16a34a" stroke-width="0.7"/>
<rect x="821.74" y="557.86" width="2" height="17.14" fill="#16a34a" opacity="0.55"/>
<line x1="833.17" y1="278.38" x2="833.17" y2="297.41" stroke="#16a34a" stroke-width="0.7"/>
<rect x="832.17" y="550.87" width="2" height="24.13" fill="#16a34a" opacity="0.55"/>
<line x1="843.60" y1="256.03" x2="843.60" y2="275.66" stroke="#16a34a" stroke-width="0.7"/>
<rect x="842.60" y="550.60" width="2" height="24.40" fill="#16a34a" opacity="0.55"/>
<line x1="854.02" y1="243.04" x2="854.02" y2="268.71" stroke="#16a34a" stroke-width="0.7"/>
<rect x="853.02" y="552.91" width="2" height="22.09" fill="#16a34a" opacity="0.55"/>
<line x1="864.45" y1="251.19" x2="864.45" y2="264.49" stroke="#dc2626" stroke-width="0.7"/>
<rect x="863.45" y="558.87" width="2" height="16.13" fill="#dc2626" opacity="0.55"/>
<line x1="874.88" y1="226.73" x2="874.88" y2="256.33" stroke="#16a34a" stroke-width="0.7"/>
<rect x="873.88" y="553.95" width="2" height="21.05" fill="#16a34a" opacity="0.55"/>
<line x1="885.30" y1="234.88" x2="885.30" y2="245.15" stroke="#16a34a" stroke-width="0.7"/>
<rect x="884.30" y="560.21" width="2" height="14.79" fill="#16a34a" opacity="0.55"/>
<line x1="895.73" y1="240.92" x2="895.73" y2="266.30" stroke="#dc2626" stroke-width="0.7"/>
<rect x="894.73" y="553.50" width="2" height="21.50" fill="#dc2626" opacity="0.55"/>
<line x1="906.16" y1="235.18" x2="906.16" y2="251.80" stroke="#16a34a" stroke-width="0.7"/>
<rect x="905.16" y="561.46" width="2" height="13.54" fill="#16a34a" opacity="0.55"/>
<line x1="916.58" y1="237.60" x2="916.58" y2="248.48" stroke="#16a34a" stroke-width="0.7"/>
<rect x="915.58" y="564.68" width="2" height="10.32" fill="#16a34a" opacity="0.55"/>
<line x1="927.01" y1="245.15" x2="927.01" y2="267.20" stroke="#16a34a" stroke-width="0.7"/>
<rect x="926.01" y="558.81" width="2" height="16.19" fill="#16a34a" opacity="0.55"/>
<line x1="937.44" y1="208.00" x2="937.44" y2="241.83" stroke="#16a34a" stroke-width="0.7"/>
<rect x="936.44" y="542.80" width="2" height="32.20" fill="#16a34a" opacity="0.55"/>
<line x1="947.87" y1="200.75" x2="947.87" y2="211.32" stroke="#dc2626" stroke-width="0.7"/>
<rect x="946.87" y="550.96" width="2" height="24.04" fill="#dc2626" opacity="0.55"/>
<line x1="958.29" y1="134.59" x2="958.29" y2="171.45" stroke="#16a34a" stroke-width="0.7"/>
<rect x="957.29" y="532.50" width="2" height="42.50" fill="#16a34a" opacity="0.55"/>
<line x1="968.72" y1="114.66" x2="968.72" y2="158.15" stroke="#16a34a" stroke-width="0.7"/>
<rect x="967.72" y="543.05" width="2" height="31.95" fill="#16a34a" opacity="0.55"/>
<line x1="979.15" y1="134.29" x2="979.15" y2="154.53" stroke="#16a34a" stroke-width="0.7"/>
<rect x="978.15" y="549.63" width="2" height="25.37" fill="#16a34a" opacity="0.55"/>
<line x1="989.57" y1="102.57" x2="989.57" y2="133.69" stroke="#16a34a" stroke-width="0.7"/>
<rect x="988.57" y="528.85" width="2" height="46.15" fill="#16a34a" opacity="0.55"/>
<line x1="1000.00" y1="92.00" x2="1000.00" y2="112.54" stroke="#16a34a" stroke-width="0.7"/>
<rect x="999.00" y="546.72" width="2" height="28.28" fill="#16a34a" opacity="0.55"/>
<polyline points="72.00,474.13 82.43,454.19 92.85,444.52 103.28,443.31 113.71,444.52 124.13,440.90 134.56,448.75 144.99,444.82 155.42,461.74 165.84,448.15 176.27,435.16 186.70,418.54 197.12,359.94 207.55,348.76 217.98,342.12 228.40,327.32 238.83,327.92 249.26,343.93 259.69,352.39 270.11,340.00 280.54,319.16 290.97,306.17 301.39,258.44 311.82,271.73 322.25,272.34 332.67,254.21 343.10,293.48 353.53,292.88 363.96,262.37 374.38,248.48 384.81,229.14 395.24,187.15 405.66,230.35 416.09,241.23 426.52,250.89 436.94,256.63 447.37,280.19 457.80,266.00 468.22,279.59 478.65,292.88 489.08,289.26 499.51,288.35 509.93,307.38 520.36,282.91 530.79,284.42 541.21,260.56 551.64,278.08 562.07,281.70 572.49,263.28 582.92,266.00 593.35,234.58 603.78,265.09 614.20,281.40 624.63,264.79 635.06,262.97 645.48,238.81 655.91,223.10 666.34,237.60 676.76,246.96 687.19,260.86 697.62,240.02 708.04,234.28 718.47,224.91 728.90,235.49 739.33,268.41 749.75,246.66 760.18,257.54 770.61,239.41 781.03,281.10 791.46,293.48 801.89,334.57 812.31,306.47 822.74,298.92 833.17,285.63 843.60,262.07 854.02,246.66 864.45,257.54 874.88,231.86 885.30,238.81 895.73,265.39 906.16,241.23 916.58,243.34 927.01,251.50 937.44,213.13 947.87,204.98 958.29,147.28 968.72,141.24 979.15,143.96 989.57,109.22 1000.00,95.93" fill="none" stroke="#2563eb" stroke-width="1.4"/>
<line x1="72" y1="266.60" x2="1000" y2="266.60" stroke="#16a34a" stroke-width="1" stroke-dasharray="5 4"/>
<line x1="72" y1="215.10" x2="1000" y2="215.10" stroke="#dc2626" stroke-width="1" stroke-dasharray="5 4"/>
<text x="1030.0" y="109.0" font-family="ui-monospace, SFMono-Regular, Menlo, monospace" font-size="9" fill="#16a34a">support_at_confirmation=120.9</text>
<text x="1030.0" y="122.0" font-family="ui-monospace, SFMono-Regular, Menlo, monospace" font-size="9" fill="#dc2626">resistance_at_confirmation=122.6</text>
<line x1="593.35" y1="92" x2="593.35" y2="485" stroke="#0284c7" stroke-width="1.2" stroke-dasharray="3 3"/>
<line x1="708.04" y1="92" x2="708.04" y2="485" stroke="#7c3aed" stroke-width="1.2" stroke-dasharray="3 3"/>
<line x1="739.33" y1="92" x2="739.33" y2="485" stroke="#dc2626" stroke-width="1.2" stroke-dasharray="3 3"/>
<circle cx="614.20" cy="281.40" r="3.2" fill="#f59e0b"/>
<circle cx="635.06" cy="262.97" r="3.2" fill="#f59e0b"/>
<circle cx="676.76" cy="246.96" r="3.2" fill="#f59e0b"/>
<circle cx="708.04" cy="234.28" r="3.2" fill="#f59e0b"/>
<text x="1030.0" y="150.0" font-family="ui-monospace, SFMono-Regular, Menlo, monospace" font-size="10" fill="#0f172a">events</text>
<text x="1030.0" y="165.0" font-family="ui-monospace, SFMono-Regular, Menlo, monospace" font-size="9" fill="#0284c7">formed: 2019-01-31</text>
<text x="1030.0" y="179.0" font-family="ui-monospace, SFMono-Regular, Menlo, monospace" font-size="9" fill="#7c3aed">available: 2019-02-15</text>
<text x="1030.0" y="193.0" font-family="ui-monospace, SFMono-Regular, Menlo, monospace" font-size="9" fill="#dc2626">invalidated: 2019-02-21</text>
<text x="1030.0" y="222.0" font-family="ui-monospace, SFMono-Regular, Menlo, monospace" font-size="9" fill="#92400e">orange dot = pivot availability</text>
<text x="72.0" y="600.0" font-family="ui-monospace, SFMono-Regular, Menlo, monospace" font-size="10" fill="#64748b">development source hash: a229b6091c9f4ead506256015da1ed32851f3f614c96a40a520056ec3dd233b7</text>
<text x="72.0" y="619.0" font-family="ui-monospace, SFMono-Regular, Menlo, monospace" font-size="10" fill="#64748b">Evidence presentation only; detector facts remain authoritative; no trade semantics.</text>
</svg>