<svg xmlns="http://www.w3.org/2000/svg" viewBox="0 0 1320 640">
<rect width="100%" height="100%" fill="#ffffff"/>
<rect x="72" y="92" width="928" height="393" fill="#f8fafc" stroke="#cbd5e1"/>
<rect x="72" y="505" width="928" height="70" fill="#f8fafc" stroke="#cbd5e1"/>
<rect x="1018" y="92" width="270" height="483" fill="#ffffff" stroke="#cbd5e1"/>
<text x="72.0" y="28.0" font-family="ui-monospace, SFMono-Regular, Menlo, monospace" font-size="18" fill="#0f172a">JNJ · double_bottom · expired</text>
<text x="72.0" y="52.0" font-family="ui-monospace, SFMono-Regular, Menlo, monospace" font-size="13" fill="#334155">2018-11-15 → 2019-08-23 · EQUITY · DETECTED_CANDIDATE</text>
<text x="72.0" y="72.0" font-family="ui-monospace, SFMono-Regular, Menlo, monospace" font-size="11" fill="#64748b">case=review_c27f366dc71477729058 · human review: UNSET</text>
<line x1="72.00" y1="154.90" x2="72.00" y2="183.41" stroke="#16a34a" stroke-width="0.7"/>
<rect x="71.00" y="568.84" width="2" height="6.16" fill="#16a34a" opacity="0.55"/>
<line x1="76.83" y1="123.59" x2="76.83" y2="154.34" stroke="#16a34a" stroke-width="0.7"/>
<rect x="75.83" y="567.38" width="2" height="7.62" fill="#16a34a" opacity="0.55"/>
<line x1="81.67" y1="99.72" x2="81.67" y2="128.79" stroke="#16a34a" stroke-width="0.7"/>
<rect x="80.67" y="566.21" width="2" height="8.79" fill="#16a34a" opacity="0.55"/>
<line x1="86.50" y1="95.37" x2="86.50" y2="129.07" stroke="#dc2626" stroke-width="0.7"/>
<rect x="85.50" y="566.00" width="2" height="9.00" fill="#dc2626" opacity="0.55"/>
<line x1="91.33" y1="130.75" x2="91.33" y2="207.27" stroke="#dc2626" stroke-width="0.7"/>
<rect x="90.33" y="564.75" width="2" height="10.25" fill="#dc2626" opacity="0.55"/>
<line x1="96.17" y1="179.89" x2="96.17" y2="195.76" stroke="#16a34a" stroke-width="0.7"/>
<rect x="95.17" y="571.43" width="2" height="3.57" fill="#16a34a" opacity="0.55"/>
<line x1="101.00" y1="189.44" x2="101.00" y2="208.26" stroke="#dc2626" stroke-width="0.7"/>
<rect x="100.00" y="568.26" width="2" height="6.74" fill="#dc2626" opacity="0.55"/>
<line x1="105.83" y1="171.19" x2="105.83" y2="223.00" stroke="#16a34a" stroke-width="0.7"/>
<rect x="104.83" y="568.66" width="2" height="6.34" fill="#16a34a" opacity="0.55"/>
<line x1="110.67" y1="126.12" x2="110.67" y2="171.05" stroke="#16a34a" stroke-width="0.7"/>
<rect x="109.67" y="567.35" width="2" height="7.65" fill="#16a34a" opacity="0.55"/>
<line x1="115.50" y1="117.13" x2="115.50" y2="150.27" stroke="#16a34a" stroke-width="0.7"/>
<rect x="114.50" y="567.72" width="2" height="7.28" fill="#16a34a" opacity="0.55"/>
<line x1="120.33" y1="119.94" x2="120.33" y2="146.62" stroke="#16a34a" stroke-width="0.7"/>
<rect x="119.33" y="565.33" width="2" height="9.67" fill="#16a34a" opacity="0.55"/>
<line x1="125.17" y1="125.14" x2="125.17" y2="148.86" stroke="#16a34a" stroke-width="0.7"/>
<rect x="124.17" y="567.70" width="2" height="7.30" fill="#16a34a" opacity="0.55"/>
<line x1="130.00" y1="92.00" x2="130.00" y2="136.51" stroke="#dc2626" stroke-width="0.7"/>
<rect x="129.00" y="566.54" width="2" height="8.46" fill="#dc2626" opacity="0.55"/>
<line x1="134.83" y1="127.66" x2="134.83" y2="179.05" stroke="#16a34a" stroke-width="0.7"/>
<rect x="133.83" y="564.28" width="2" height="10.72" fill="#16a34a" opacity="0.55"/>
<line x1="139.67" y1="115.17" x2="139.67" y2="160.38" stroke="#dc2626" stroke-width="0.7"/>
<rect x="138.67" y="566.02" width="2" height="8.98" fill="#dc2626" opacity="0.55"/>
<line x1="144.50" y1="135.67" x2="144.50" y2="184.81" stroke="#dc2626" stroke-width="0.7"/>
<rect x="143.50" y="568.79" width="2" height="6.21" fill="#dc2626" opacity="0.55"/>
<line x1="149.33" y1="102.95" x2="149.33" y2="136.93" stroke="#16a34a" stroke-width="0.7"/>
<rect x="148.33" y="566.70" width="2" height="8.30" fill="#16a34a" opacity="0.55"/>
<line x1="154.17" y1="99.02" x2="154.17" y2="119.94" stroke="#16a34a" stroke-width="0.7"/>
<rect x="153.17" y="566.67" width="2" height="8.33" fill="#16a34a" opacity="0.55"/>
<line x1="159.00" y1="97.62" x2="159.00" y2="122.75" stroke="#16a34a" stroke-width="0.7"/>
<rect x="158.00" y="569.08" width="2" height="5.92" fill="#16a34a" opacity="0.55"/>
<line x1="163.83" y1="142.69" x2="163.83" y2="355.83" stroke="#dc2626" stroke-width="0.7"/>
<rect x="162.83" y="505.00" width="2" height="70.00" fill="#dc2626" opacity="0.55"/>
<line x1="168.67" y1="335.47" x2="168.67" y2="403.14" stroke="#16a34a" stroke-width="0.7"/>
<rect x="167.67" y="533.47" width="2" height="41.53" fill="#16a34a" opacity="0.55"/>
<line x1="173.50" y1="319.32" x2="173.50" y2="369.87" stroke="#dc2626" stroke-width="0.7"/>
<rect x="172.50" y="549.84" width="2" height="25.16" fill="#dc2626" opacity="0.55"/>
<line x1="178.33" y1="339.68" x2="178.33" y2="399.49" stroke="#dc2626" stroke-width="0.7"/>
<rect x="177.33" y="552.34" width="2" height="22.66" fill="#dc2626" opacity="0.55"/>
<line x1="183.17" y1="362.14" x2="183.17" y2="404.13" stroke="#16a34a" stroke-width="0.7"/>
<rect x="182.17" y="558.91" width="2" height="16.09" fill="#16a34a" opacity="0.55"/>
<line x1="188.00" y1="350.21" x2="188.00" y2="399.07" stroke="#16a34a" stroke-width="0.7"/>
<rect x="187.00" y="558.49" width="2" height="16.51" fill="#16a34a" opacity="0.55"/>
<line x1="192.83" y1="386.71" x2="192.83" y2="485.00" stroke="#dc2626" stroke-width="0.7"/>
<rect x="191.83" y="567.78" width="2" height="7.22" fill="#dc2626" opacity="0.55"/>
<line x1="197.67" y1="404.13" x2="197.67" y2="470.96" stroke="#16a34a" stroke-width="0.7"/>
<rect x="196.67" y="566.61" width="2" height="8.39" fill="#16a34a" opacity="0.55"/>
<line x1="202.50" y1="395.00" x2="202.50" y2="455.94" stroke="#16a34a" stroke-width="0.7"/>
<rect x="201.50" y="566.59" width="2" height="8.41" fill="#16a34a" opacity="0.55"/>
<line x1="207.33" y1="376.18" x2="207.33" y2="404.27" stroke="#dc2626" stroke-width="0.7"/>
<rect x="206.33" y="569.32" width="2" height="5.68" fill="#dc2626" opacity="0.55"/>
<line x1="212.17" y1="364.95" x2="212.17" y2="394.86" stroke="#16a34a" stroke-width="0.7"/>
<rect x="211.17" y="569.00" width="2" height="6.00" fill="#16a34a" opacity="0.55"/>
<line x1="217.00" y1="381.38" x2="217.00" y2="410.86" stroke="#dc2626" stroke-width="0.7"/>
<rect x="216.00" y="568.63" width="2" height="6.37" fill="#dc2626" opacity="0.55"/>
<line x1="221.83" y1="382.92" x2="221.83" y2="423.78" stroke="#dc2626" stroke-width="0.7"/>
<rect x="220.83" y="567.39" width="2" height="7.61" fill="#dc2626" opacity="0.55"/>
<line x1="226.67" y1="377.59" x2="226.67" y2="404.55" stroke="#16a34a" stroke-width="0.7"/>
<rect x="225.67" y="567.61" width="2" height="7.39" fill="#16a34a" opacity="0.55"/>
<line x1="231.50" y1="381.80" x2="231.50" y2="403.70" stroke="#dc2626" stroke-width="0.7"/>
<rect x="230.50" y="567.31" width="2" height="7.69" fill="#dc2626" opacity="0.55"/>
<line x1="236.33" y1="351.61" x2="236.33" y2="390.51" stroke="#16a34a" stroke-width="0.7"/>
<rect x="235.33" y="565.88" width="2" height="9.12" fill="#16a34a" opacity="0.55"/>
<line x1="241.17" y1="355.26" x2="241.17" y2="382.08" stroke="#dc2626" stroke-width="0.7"/>
<rect x="240.17" y="567.22" width="2" height="7.78" fill="#dc2626" opacity="0.55"/>
<line x1="246.00" y1="360.18" x2="246.00" y2="391.07" stroke="#16a34a" stroke-width="0.7"/>
<rect x="245.00" y="569.95" width="2" height="5.05" fill="#16a34a" opacity="0.55"/>
<line x1="250.83" y1="360.88" x2="250.83" y2="382.36" stroke="#16a34a" stroke-width="0.7"/>
<rect x="249.83" y="570.44" width="2" height="4.56" fill="#16a34a" opacity="0.55"/>
<line x1="255.67" y1="373.24" x2="255.67" y2="392.61" stroke="#dc2626" stroke-width="0.7"/>
<rect x="254.67" y="569.89" width="2" height="5.11" fill="#dc2626" opacity="0.55"/>
<line x1="260.50" y1="365.79" x2="260.50" y2="391.63" stroke="#16a34a" stroke-width="0.7"/>
<rect x="259.50" y="570.07" width="2" height="4.93" fill="#16a34a" opacity="0.55"/>
<line x1="265.33" y1="366.92" x2="265.33" y2="388.12" stroke="#dc2626" stroke-width="0.7"/>
<rect x="264.33" y="569.08" width="2" height="5.92" fill="#dc2626" opacity="0.55"/>
<line x1="270.17" y1="365.37" x2="270.17" y2="394.30" stroke="#16a34a" stroke-width="0.7"/>
<rect x="269.17" y="568.36" width="2" height="6.64" fill="#16a34a" opacity="0.55"/>
<line x1="275.00" y1="342.07" x2="275.00" y2="366.36" stroke="#16a34a" stroke-width="0.7"/>
<rect x="274.00" y="563.83" width="2" height="11.17" fill="#16a34a" opacity="0.55"/>
<line x1="279.83" y1="365.51" x2="279.83" y2="400.62" stroke="#16a34a" stroke-width="0.7"/>
<rect x="278.83" y="564.86" width="2" height="10.14" fill="#16a34a" opacity="0.55"/>
<line x1="284.67" y1="368.46" x2="284.67" y2="387.70" stroke="#16a34a" stroke-width="0.7"/>
<rect x="283.67" y="565.95" width="2" height="9.05" fill="#16a34a" opacity="0.55"/>
<line x1="289.50" y1="376.89" x2="289.50" y2="428.84" stroke="#dc2626" stroke-width="0.7"/>
<rect x="288.50" y="563.83" width="2" height="11.17" fill="#dc2626" opacity="0.55"/>
<line x1="294.33" y1="380.40" x2="294.33" y2="398.23" stroke="#16a34a" stroke-width="0.7"/>
<rect x="293.33" y="567.68" width="2" height="7.32" fill="#16a34a" opacity="0.55"/>
<line x1="299.17" y1="370.57" x2="299.17" y2="396.68" stroke="#16a34a" stroke-width="0.7"/>
<rect x="298.17" y="568.23" width="2" height="6.77" fill="#16a34a" opacity="0.55"/>
<line x1="304.00" y1="352.03" x2="304.00" y2="379.69" stroke="#16a34a" stroke-width="0.7"/>
<rect x="303.00" y="568.27" width="2" height="6.73" fill="#16a34a" opacity="0.55"/>
<line x1="308.83" y1="327.88" x2="308.83" y2="354.42" stroke="#16a34a" stroke-width="0.7"/>
<rect x="307.83" y="568.20" width="2" height="6.80" fill="#16a34a" opacity="0.55"/>
<line x1="313.67" y1="285.76" x2="313.67" y2="346.42" stroke="#16a34a" stroke-width="0.7"/>
<rect x="312.67" y="562.03" width="2" height="12.97" fill="#16a34a" opacity="0.55"/>
<line x1="318.50" y1="292.78" x2="318.50" y2="309.91" stroke="#16a34a" stroke-width="0.7"/>
<rect x="317.50" y="565.88" width="2" height="9.12" fill="#16a34a" opacity="0.55"/>
<line x1="323.33" y1="300.36" x2="323.33" y2="327.60" stroke="#dc2626" stroke-width="0.7"/>
<rect x="322.33" y="568.35" width="2" height="6.65" fill="#dc2626" opacity="0.55"/>
<line x1="328.17" y1="304.16" x2="328.17" y2="320.02" stroke="#dc2626" stroke-width="0.7"/>
<rect x="327.17" y="568.93" width="2" height="6.07" fill="#dc2626" opacity="0.55"/>
<line x1="333.00" y1="308.51" x2="333.00" y2="326.34" stroke="#dc2626" stroke-width="0.7"/>
<rect x="332.00" y="570.21" width="2" height="4.79" fill="#dc2626" opacity="0.55"/>
<line x1="337.83" y1="321.57" x2="337.83" y2="337.15" stroke="#dc2626" stroke-width="0.7"/>
<rect x="336.83" y="569.40" width="2" height="5.60" fill="#dc2626" opacity="0.55"/>
<line x1="342.67" y1="324.09" x2="342.67" y2="337.01" stroke="#16a34a" stroke-width="0.7"/>
<rect x="341.67" y="571.02" width="2" height="3.98" fill="#16a34a" opacity="0.55"/>
<line x1="347.50" y1="321.14" x2="347.50" y2="340.94" stroke="#dc2626" stroke-width="0.7"/>
<rect x="346.50" y="570.66" width="2" height="4.34" fill="#dc2626" opacity="0.55"/>
<line x1="352.33" y1="298.26" x2="352.33" y2="329.43" stroke="#16a34a" stroke-width="0.7"/>
<rect x="351.33" y="569.73" width="2" height="5.27" fill="#16a34a" opacity="0.55"/>
<line x1="357.17" y1="288.71" x2="357.17" y2="313.56" stroke="#16a34a" stroke-width="0.7"/>
<rect x="356.17" y="567.87" width="2" height="7.13" fill="#16a34a" opacity="0.55"/>
<line x1="362.00" y1="290.96" x2="362.00" y2="311.60" stroke="#16a34a" stroke-width="0.7"/>
<rect x="361.00" y="571.37" width="2" height="3.63" fill="#16a34a" opacity="0.55"/>
<line x1="366.83" y1="268.63" x2="366.83" y2="288.29" stroke="#16a34a" stroke-width="0.7"/>
<rect x="365.83" y="569.38" width="2" height="5.62" fill="#16a34a" opacity="0.55"/>
<line x1="371.67" y1="269.05" x2="371.67" y2="279.58" stroke="#dc2626" stroke-width="0.7"/>
<rect x="370.67" y="569.71" width="2" height="5.29" fill="#dc2626" opacity="0.55"/>
<line x1="376.50" y1="264.14" x2="376.50" y2="278.32" stroke="#16a34a" stroke-width="0.7"/>
<rect x="375.50" y="570.86" width="2" height="4.14" fill="#16a34a" opacity="0.55"/>
<line x1="381.33" y1="277.34" x2="381.33" y2="298.82" stroke="#16a34a" stroke-width="0.7"/>
<rect x="380.33" y="568.32" width="2" height="6.68" fill="#16a34a" opacity="0.55"/>
<line x1="386.17" y1="265.40" x2="386.17" y2="290.96" stroke="#16a34a" stroke-width="0.7"/>
<rect x="385.17" y="569.87" width="2" height="5.13" fill="#16a34a" opacity="0.55"/>
<line x1="391.00" y1="253.47" x2="391.00" y2="276.35" stroke="#dc2626" stroke-width="0.7"/>
<rect x="390.00" y="568.02" width="2" height="6.98" fill="#dc2626" opacity="0.55"/>
<line x1="395.83" y1="260.91" x2="395.83" y2="273.69" stroke="#dc2626" stroke-width="0.7"/>
<rect x="394.83" y="570.88" width="2" height="4.12" fill="#dc2626" opacity="0.55"/>
<line x1="400.67" y1="270.88" x2="400.67" y2="282.95" stroke="#16a34a" stroke-width="0.7"/>
<rect x="399.67" y="571.05" width="2" height="3.95" fill="#16a34a" opacity="0.55"/>
<line x1="405.50" y1="246.87" x2="405.50" y2="278.74" stroke="#16a34a" stroke-width="0.7"/>
<rect x="404.50" y="568.04" width="2" height="6.96" fill="#16a34a" opacity="0.55"/>
<line x1="410.33" y1="237.74" x2="410.33" y2="260.21" stroke="#16a34a" stroke-width="0.7"/>
<rect x="409.33" y="569.60" width="2" height="5.40" fill="#16a34a" opacity="0.55"/>
<line x1="415.17" y1="226.51" x2="415.17" y2="253.19" stroke="#dc2626" stroke-width="0.7"/>
<rect x="414.17" y="565.74" width="2" height="9.26" fill="#dc2626" opacity="0.55"/>
<line x1="420.00" y1="230.30" x2="420.00" y2="241.25" stroke="#dc2626" stroke-width="0.7"/>
<rect x="419.00" y="568.39" width="2" height="6.61" fill="#dc2626" opacity="0.55"/>
<line x1="424.83" y1="223.14" x2="424.83" y2="237.88" stroke="#dc2626" stroke-width="0.7"/>
<rect x="423.83" y="568.57" width="2" height="6.43" fill="#dc2626" opacity="0.55"/>
<line x1="429.67" y1="230.58" x2="429.67" y2="250.52" stroke="#dc2626" stroke-width="0.7"/>
<rect x="428.67" y="569.75" width="2" height="5.25" fill="#dc2626" opacity="0.55"/>
<line x1="434.50" y1="228.05" x2="434.50" y2="268.49" stroke="#dc2626" stroke-width="0.7"/>
<rect x="433.50" y="567.63" width="2" height="7.37" fill="#dc2626" opacity="0.55"/>
<line x1="439.33" y1="231.85" x2="439.33" y2="253.05" stroke="#16a34a" stroke-width="0.7"/>
<rect x="438.33" y="570.03" width="2" height="4.97" fill="#16a34a" opacity="0.55"/>
<line x1="444.17" y1="218.23" x2="444.17" y2="239.29" stroke="#16a34a" stroke-width="0.7"/>
<rect x="443.17" y="569.77" width="2" height="5.23" fill="#16a34a" opacity="0.55"/>
<line x1="449.00" y1="220.47" x2="449.00" y2="231.99" stroke="#dc2626" stroke-width="0.7"/>
<rect x="448.00" y="568.95" width="2" height="6.05" fill="#dc2626" opacity="0.55"/>
<line x1="453.83" y1="235.08" x2="453.83" y2="247.15" stroke="#dc2626" stroke-width="0.7"/>
<rect x="452.83" y="567.17" width="2" height="7.83" fill="#dc2626" opacity="0.55"/>
<line x1="458.67" y1="242.66" x2="458.67" y2="262.74" stroke="#dc2626" stroke-width="0.7"/>
<rect x="457.67" y="563.72" width="2" height="11.28" fill="#dc2626" opacity="0.55"/>
<line x1="463.50" y1="249.40" x2="463.50" y2="264.28" stroke="#dc2626" stroke-width="0.7"/>
<rect x="462.50" y="569.34" width="2" height="5.66" fill="#dc2626" opacity="0.55"/>
<line x1="468.33" y1="234.79" x2="468.33" y2="253.75" stroke="#16a34a" stroke-width="0.7"/>
<rect x="467.33" y="570.33" width="2" height="4.67" fill="#16a34a" opacity="0.55"/>
<line x1="473.17" y1="239.15" x2="473.17" y2="265.26" stroke="#dc2626" stroke-width="0.7"/>
<rect x="472.17" y="570.03" width="2" height="4.97" fill="#dc2626" opacity="0.55"/>
<line x1="478.00" y1="235.36" x2="478.00" y2="261.05" stroke="#16a34a" stroke-width="0.7"/>
<rect x="477.00" y="570.25" width="2" height="4.75" fill="#16a34a" opacity="0.55"/>
<line x1="482.83" y1="240.83" x2="482.83" y2="262.31" stroke="#dc2626" stroke-width="0.7"/>
<rect x="481.83" y="568.83" width="2" height="6.17" fill="#dc2626" opacity="0.55"/>
<line x1="487.67" y1="260.21" x2="487.67" y2="278.04" stroke="#dc2626" stroke-width="0.7"/>
<rect x="486.67" y="570.65" width="2" height="4.35" fill="#dc2626" opacity="0.55"/>
<line x1="492.50" y1="228.48" x2="492.50" y2="261.33" stroke="#16a34a" stroke-width="0.7"/>
<rect x="491.50" y="570.33" width="2" height="4.67" fill="#16a34a" opacity="0.55"/>
<line x1="497.33" y1="225.53" x2="497.33" y2="245.32" stroke="#16a34a" stroke-width="0.7"/>
<rect x="496.33" y="568.17" width="2" height="6.83" fill="#16a34a" opacity="0.55"/>
<line x1="502.17" y1="225.81" x2="502.17" y2="236.34" stroke="#dc2626" stroke-width="0.7"/>
<rect x="501.17" y="570.35" width="2" height="4.65" fill="#dc2626" opacity="0.55"/>
<line x1="507.00" y1="219.91" x2="507.00" y2="233.95" stroke="#16a34a" stroke-width="0.7"/>
<rect x="506.00" y="569.17" width="2" height="5.83" fill="#16a34a" opacity="0.55"/>
<line x1="511.83" y1="214.15" x2="511.83" y2="236.06" stroke="#dc2626" stroke-width="0.7"/>
<rect x="510.83" y="569.90" width="2" height="5.10" fill="#dc2626" opacity="0.55"/>
<line x1="516.67" y1="232.13" x2="516.67" y2="261.61" stroke="#dc2626" stroke-width="0.7"/>
<rect x="515.67" y="569.82" width="2" height="5.18" fill="#dc2626" opacity="0.55"/>
<line x1="521.50" y1="242.94" x2="521.50" y2="262.17" stroke="#dc2626" stroke-width="0.7"/>
<rect x="520.50" y="568.87" width="2" height="6.13" fill="#dc2626" opacity="0.55"/>
<line x1="526.33" y1="260.21" x2="526.33" y2="286.60" stroke="#dc2626" stroke-width="0.7"/>
<rect x="525.33" y="568.95" width="2" height="6.05" fill="#dc2626" opacity="0.55"/>
<line x1="531.17" y1="266.25" x2="531.17" y2="278.60" stroke="#16a34a" stroke-width="0.7"/>
<rect x="530.17" y="570.90" width="2" height="4.10" fill="#16a34a" opacity="0.55"/>
<line x1="536.00" y1="267.23" x2="536.00" y2="278.60" stroke="#dc2626" stroke-width="0.7"/>
<rect x="535.00" y="570.75" width="2" height="4.25" fill="#dc2626" opacity="0.55"/>
<line x1="540.83" y1="270.74" x2="540.83" y2="294.61" stroke="#dc2626" stroke-width="0.7"/>
<rect x="539.83" y="569.66" width="2" height="5.34" fill="#dc2626" opacity="0.55"/>
<line x1="545.67" y1="272.56" x2="545.67" y2="283.80" stroke="#dc2626" stroke-width="0.7"/>
<rect x="544.67" y="571.27" width="2" height="3.73" fill="#dc2626" opacity="0.55"/>
<line x1="550.50" y1="271.86" x2="550.50" y2="296.57" stroke="#dc2626" stroke-width="0.7"/>
<rect x="549.50" y="570.64" width="2" height="4.36" fill="#dc2626" opacity="0.55"/>
<line x1="555.33" y1="269.47" x2="555.33" y2="291.94" stroke="#16a34a" stroke-width="0.7"/>
<rect x="554.33" y="569.83" width="2" height="5.17" fill="#16a34a" opacity="0.55"/>
<line x1="560.17" y1="263.30" x2="560.17" y2="277.20" stroke="#16a34a" stroke-width="0.7"/>
<rect x="559.17" y="570.45" width="2" height="4.55" fill="#16a34a" opacity="0.55"/>
<line x1="565.00" y1="208.40" x2="565.00" y2="252.49" stroke="#dc2626" stroke-width="0.7"/>
<rect x="564.00" y="563.18" width="2" height="11.82" fill="#dc2626" opacity="0.55"/>
<line x1="569.83" y1="216.12" x2="569.83" y2="250.94" stroke="#dc2626" stroke-width="0.7"/>
<rect x="568.83" y="564.45" width="2" height="10.55" fill="#dc2626" opacity="0.55"/>
<line x1="574.67" y1="214.86" x2="574.67" y2="277.90" stroke="#dc2626" stroke-width="0.7"/>
<rect x="573.67" y="564.27" width="2" height="10.73" fill="#dc2626" opacity="0.55"/>
<line x1="579.50" y1="239.43" x2="579.50" y2="268.07" stroke="#16a34a" stroke-width="0.7"/>
<rect x="578.50" y="570.96" width="2" height="4.04" fill="#16a34a" opacity="0.55"/>
<line x1="584.33" y1="206.29" x2="584.33" y2="256.84" stroke="#16a34a" stroke-width="0.7"/>
<rect x="583.33" y="569.85" width="2" height="5.15" fill="#16a34a" opacity="0.55"/>
<line x1="589.17" y1="216.26" x2="589.17" y2="234.23" stroke="#dc2626" stroke-width="0.7"/>
<rect x="588.17" y="570.07" width="2" height="4.93" fill="#dc2626" opacity="0.55"/>
<line x1="594.00" y1="221.46" x2="594.00" y2="246.87" stroke="#16a34a" stroke-width="0.7"/>
<rect x="593.00" y="569.83" width="2" height="5.17" fill="#16a34a" opacity="0.55"/>
<line x1="598.83" y1="210.78" x2="598.83" y2="227.91" stroke="#16a34a" stroke-width="0.7"/>
<rect x="597.83" y="570.94" width="2" height="4.06" fill="#16a34a" opacity="0.55"/>
<line x1="603.67" y1="212.19" x2="603.67" y2="224.12" stroke="#dc2626" stroke-width="0.7"/>
<rect x="602.67" y="571.29" width="2" height="3.71" fill="#dc2626" opacity="0.55"/>
<line x1="608.50" y1="197.87" x2="608.50" y2="232.97" stroke="#16a34a" stroke-width="0.7"/>
<rect x="607.50" y="570.17" width="2" height="4.83" fill="#16a34a" opacity="0.55"/>
<line x1="613.33" y1="185.23" x2="613.33" y2="221.74" stroke="#16a34a" stroke-width="0.7"/>
<rect x="612.33" y="569.06" width="2" height="5.94" fill="#16a34a" opacity="0.55"/>
<line x1="618.17" y1="188.04" x2="618.17" y2="216.54" stroke="#dc2626" stroke-width="0.7"/>
<rect x="617.17" y="565.68" width="2" height="9.32" fill="#dc2626" opacity="0.55"/>
<line x1="623.00" y1="188.88" x2="623.00" y2="203.06" stroke="#16a34a" stroke-width="0.7"/>
<rect x="622.00" y="570.34" width="2" height="4.66" fill="#16a34a" opacity="0.55"/>
<line x1="627.83" y1="186.77" x2="627.83" y2="219.21" stroke="#16a34a" stroke-width="0.7"/>
<rect x="626.83" y="571.01" width="2" height="3.99" fill="#16a34a" opacity="0.55"/>
<line x1="632.67" y1="198.85" x2="632.67" y2="231.42" stroke="#dc2626" stroke-width="0.7"/>
<rect x="631.67" y="568.79" width="2" height="6.21" fill="#dc2626" opacity="0.55"/>
<line x1="637.50" y1="205.31" x2="637.50" y2="222.44" stroke="#dc2626" stroke-width="0.7"/>
<rect x="636.50" y="571.39" width="2" height="3.61" fill="#dc2626" opacity="0.55"/>
<line x1="642.33" y1="227.77" x2="642.33" y2="251.36" stroke="#dc2626" stroke-width="0.7"/>
<rect x="641.33" y="569.80" width="2" height="5.20" fill="#dc2626" opacity="0.55"/>
<line x1="647.17" y1="228.76" x2="647.17" y2="268.63" stroke="#16a34a" stroke-width="0.7"/>
<rect x="646.17" y="571.02" width="2" height="3.98" fill="#16a34a" opacity="0.55"/>
<line x1="652.00" y1="245.47" x2="652.00" y2="266.95" stroke="#dc2626" stroke-width="0.7"/>
<rect x="651.00" y="570.92" width="2" height="4.08" fill="#dc2626" opacity="0.55"/>
<line x1="656.83" y1="248.55" x2="656.83" y2="264.14" stroke="#dc2626" stroke-width="0.7"/>
<rect x="655.83" y="569.98" width="2" height="5.02" fill="#dc2626" opacity="0.55"/>
<line x1="661.67" y1="253.47" x2="661.67" y2="283.80" stroke="#16a34a" stroke-width="0.7"/>
<rect x="660.67" y="569.13" width="2" height="5.87" fill="#16a34a" opacity="0.55"/>
<line x1="666.50" y1="229.46" x2="666.50" y2="260.77" stroke="#16a34a" stroke-width="0.7"/>
<rect x="665.50" y="568.86" width="2" height="6.14" fill="#16a34a" opacity="0.55"/>
<line x1="671.33" y1="231.85" x2="671.33" y2="262.31" stroke="#16a34a" stroke-width="0.7"/>
<rect x="670.33" y="568.15" width="2" height="6.85" fill="#16a34a" opacity="0.55"/>
<line x1="676.17" y1="232.83" x2="676.17" y2="250.80" stroke="#dc2626" stroke-width="0.7"/>
<rect x="675.17" y="570.83" width="2" height="4.17" fill="#dc2626" opacity="0.55"/>
<line x1="681.00" y1="224.26" x2="681.00" y2="245.18" stroke="#dc2626" stroke-width="0.7"/>
<rect x="680.00" y="570.42" width="2" height="4.58" fill="#dc2626" opacity="0.55"/>
<line x1="685.83" y1="232.97" x2="685.83" y2="253.61" stroke="#16a34a" stroke-width="0.7"/>
<rect x="684.83" y="570.93" width="2" height="4.07" fill="#16a34a" opacity="0.55"/>
<line x1="690.67" y1="220.33" x2="690.67" y2="250.94" stroke="#16a34a" stroke-width="0.7"/>
<rect x="689.67" y="568.19" width="2" height="6.81" fill="#16a34a" opacity="0.55"/>
<line x1="695.50" y1="225.25" x2="695.50" y2="238.44" stroke="#dc2626" stroke-width="0.7"/>
<rect x="694.50" y="569.56" width="2" height="5.44" fill="#dc2626" opacity="0.55"/>
<line x1="700.33" y1="211.35" x2="700.33" y2="260.35" stroke="#dc2626" stroke-width="0.7"/>
<rect x="699.33" y="568.73" width="2" height="6.27" fill="#dc2626" opacity="0.55"/>
<line x1="705.17" y1="275.93" x2="705.17" y2="379.41" stroke="#dc2626" stroke-width="0.7"/>
<rect x="704.17" y="550.80" width="2" height="24.20" fill="#dc2626" opacity="0.55"/>
<line x1="710.00" y1="319.04" x2="710.00" y2="342.21" stroke="#16a34a" stroke-width="0.7"/>
<rect x="709.00" y="567.52" width="2" height="7.48" fill="#16a34a" opacity="0.55"/>
<line x1="714.83" y1="330.55" x2="714.83" y2="364.11" stroke="#dc2626" stroke-width="0.7"/>
<rect x="713.83" y="567.54" width="2" height="7.46" fill="#dc2626" opacity="0.55"/>
<line x1="719.67" y1="324.94" x2="719.67" y2="344.03" stroke="#dc2626" stroke-width="0.7"/>
<rect x="718.67" y="567.32" width="2" height="7.68" fill="#dc2626" opacity="0.55"/>
<line x1="724.50" y1="298.26" x2="724.50" y2="322.41" stroke="#16a34a" stroke-width="0.7"/>
<rect x="723.50" y="569.02" width="2" height="5.98" fill="#16a34a" opacity="0.55"/>
<line x1="729.33" y1="286.60" x2="729.33" y2="304.44" stroke="#dc2626" stroke-width="0.7"/>
<rect x="728.33" y="569.13" width="2" height="5.87" fill="#dc2626" opacity="0.55"/>
<line x1="734.17" y1="251.08" x2="734.17" y2="294.19" stroke="#16a34a" stroke-width="0.7"/>
<rect x="733.17" y="567.11" width="2" height="7.89" fill="#16a34a" opacity="0.55"/>
<line x1="739.00" y1="223.98" x2="739.00" y2="258.38" stroke="#16a34a" stroke-width="0.7"/>
<rect x="738.00" y="568.44" width="2" height="6.56" fill="#16a34a" opacity="0.55"/>
<line x1="743.83" y1="230.16" x2="743.83" y2="251.92" stroke="#16a34a" stroke-width="0.7"/>
<rect x="742.83" y="570.13" width="2" height="4.87" fill="#16a34a" opacity="0.55"/>
<line x1="748.67" y1="208.96" x2="748.67" y2="225.25" stroke="#16a34a" stroke-width="0.7"/>
<rect x="747.67" y="567.89" width="2" height="7.11" fill="#16a34a" opacity="0.55"/>
<line x1="753.50" y1="177.37" x2="753.50" y2="214.01" stroke="#16a34a" stroke-width="0.7"/>
<rect x="752.50" y="565.39" width="2" height="9.61" fill="#16a34a" opacity="0.55"/>
<line x1="758.33" y1="190.85" x2="758.33" y2="215.28" stroke="#dc2626" stroke-width="0.7"/>
<rect x="757.33" y="567.01" width="2" height="7.99" fill="#dc2626" opacity="0.55"/>
<line x1="763.17" y1="197.31" x2="763.17" y2="217.66" stroke="#dc2626" stroke-width="0.7"/>
<rect x="762.17" y="568.84" width="2" height="6.16" fill="#dc2626" opacity="0.55"/>
<line x1="768.00" y1="214.86" x2="768.00" y2="229.32" stroke="#dc2626" stroke-width="0.7"/>
<rect x="767.00" y="569.49" width="2" height="5.51" fill="#dc2626" opacity="0.55"/>
<line x1="772.83" y1="205.17" x2="772.83" y2="221.17" stroke="#dc2626" stroke-width="0.7"/>
<rect x="771.83" y="567.94" width="2" height="7.06" fill="#dc2626" opacity="0.55"/>
<line x1="777.67" y1="204.61" x2="777.67" y2="219.49" stroke="#16a34a" stroke-width="0.7"/>
<rect x="776.67" y="569.34" width="2" height="5.66" fill="#16a34a" opacity="0.55"/>
<line x1="782.50" y1="184.53" x2="782.50" y2="204.19" stroke="#16a34a" stroke-width="0.7"/>
<rect x="781.50" y="568.88" width="2" height="6.12" fill="#16a34a" opacity="0.55"/>
<line x1="787.33" y1="184.11" x2="787.33" y2="204.05" stroke="#16a34a" stroke-width="0.7"/>
<rect x="786.33" y="565.64" width="2" height="9.36" fill="#16a34a" opacity="0.55"/>
<line x1="792.17" y1="166.28" x2="792.17" y2="188.88" stroke="#16a34a" stroke-width="0.7"/>
<rect x="791.17" y="569.96" width="2" height="5.04" fill="#16a34a" opacity="0.55"/>
<line x1="797.00" y1="148.30" x2="797.00" y2="173.44" stroke="#16a34a" stroke-width="0.7"/>
<rect x="796.00" y="567.75" width="2" height="7.25" fill="#16a34a" opacity="0.55"/>
<line x1="801.83" y1="164.17" x2="801.83" y2="207.56" stroke="#dc2626" stroke-width="0.7"/>
<rect x="800.83" y="568.69" width="2" height="6.31" fill="#dc2626" opacity="0.55"/>
<line x1="806.67" y1="183.12" x2="806.67" y2="209.80" stroke="#dc2626" stroke-width="0.7"/>
<rect x="805.67" y="570.54" width="2" height="4.46" fill="#dc2626" opacity="0.55"/>
<line x1="811.50" y1="202.78" x2="811.50" y2="239.29" stroke="#dc2626" stroke-width="0.7"/>
<rect x="810.50" y="568.07" width="2" height="6.93" fill="#dc2626" opacity="0.55"/>
<line x1="816.33" y1="214.58" x2="816.33" y2="236.20" stroke="#dc2626" stroke-width="0.7"/>
<rect x="815.33" y="569.80" width="2" height="5.20" fill="#dc2626" opacity="0.55"/>
<line x1="821.17" y1="217.80" x2="821.17" y2="236.62" stroke="#16a34a" stroke-width="0.7"/>
<rect x="820.17" y="570.70" width="2" height="4.30" fill="#16a34a" opacity="0.55"/>
<line x1="826.00" y1="187.62" x2="826.00" y2="207.13" stroke="#16a34a" stroke-width="0.7"/>
<rect x="825.00" y="572.01" width="2" height="2.99" fill="#16a34a" opacity="0.55"/>
<line x1="830.83" y1="192.67" x2="830.83" y2="213.03" stroke="#dc2626" stroke-width="0.7"/>
<rect x="829.83" y="571.51" width="2" height="3.49" fill="#dc2626" opacity="0.55"/>
<line x1="835.67" y1="203.06" x2="835.67" y2="223.42" stroke="#16a34a" stroke-width="0.7"/>
<rect x="834.67" y="571.52" width="2" height="3.48" fill="#16a34a" opacity="0.55"/>
<line x1="840.50" y1="183.55" x2="840.50" y2="205.45" stroke="#dc2626" stroke-width="0.7"/>
<rect x="839.50" y="571.48" width="2" height="3.52" fill="#dc2626" opacity="0.55"/>
<line x1="845.33" y1="190.29" x2="845.33" y2="208.82" stroke="#dc2626" stroke-width="0.7"/>
<rect x="844.33" y="570.16" width="2" height="4.84" fill="#dc2626" opacity="0.55"/>
<line x1="850.17" y1="201.24" x2="850.17" y2="231.99" stroke="#dc2626" stroke-width="0.7"/>
<rect x="849.17" y="569.23" width="2" height="5.77" fill="#dc2626" opacity="0.55"/>
<line x1="855.00" y1="216.54" x2="855.00" y2="326.06" stroke="#dc2626" stroke-width="0.7"/>
<rect x="854.00" y="554.73" width="2" height="20.27" fill="#dc2626" opacity="0.55"/>
<line x1="859.83" y1="269.33" x2="859.83" y2="296.15" stroke="#dc2626" stroke-width="0.7"/>
<rect x="858.83" y="566.09" width="2" height="8.91" fill="#dc2626" opacity="0.55"/>
<line x1="864.67" y1="304.86" x2="864.67" y2="334.06" stroke="#dc2626" stroke-width="0.7"/>
<rect x="863.67" y="564.37" width="2" height="10.63" fill="#dc2626" opacity="0.55"/>
<line x1="869.50" y1="308.37" x2="869.50" y2="338.84" stroke="#dc2626" stroke-width="0.7"/>
<rect x="868.50" y="565.46" width="2" height="9.54" fill="#dc2626" opacity="0.55"/>
<line x1="874.33" y1="323.39" x2="874.33" y2="342.21" stroke="#dc2626" stroke-width="0.7"/>
<rect x="873.33" y="569.48" width="2" height="5.52" fill="#dc2626" opacity="0.55"/>
<line x1="879.17" y1="325.08" x2="879.17" y2="355.97" stroke="#dc2626" stroke-width="0.7"/>
<rect x="878.17" y="567.08" width="2" height="7.92" fill="#dc2626" opacity="0.55"/>
<line x1="884.00" y1="356.53" x2="884.00" y2="388.96" stroke="#dc2626" stroke-width="0.7"/>
<rect x="883.00" y="561.63" width="2" height="13.37" fill="#dc2626" opacity="0.55"/>
<line x1="888.83" y1="366.36" x2="888.83" y2="384.61" stroke="#16a34a" stroke-width="0.7"/>
<rect x="887.83" y="568.98" width="2" height="6.02" fill="#16a34a" opacity="0.55"/>
<line x1="893.67" y1="361.58" x2="893.67" y2="378.71" stroke="#16a34a" stroke-width="0.7"/>
<rect x="892.67" y="568.89" width="2" height="6.11" fill="#16a34a" opacity="0.55"/>
<line x1="898.50" y1="337.15" x2="898.50" y2="363.27" stroke="#16a34a" stroke-width="0.7"/>
<rect x="897.50" y="566.49" width="2" height="8.51" fill="#16a34a" opacity="0.55"/>
<line x1="903.33" y1="340.38" x2="903.33" y2="351.75" stroke="#dc2626" stroke-width="0.7"/>
<rect x="902.33" y="570.60" width="2" height="4.40" fill="#dc2626" opacity="0.55"/>
<line x1="908.17" y1="312.16" x2="908.17" y2="355.68" stroke="#16a34a" stroke-width="0.7"/>
<rect x="907.17" y="567.45" width="2" height="7.55" fill="#16a34a" opacity="0.55"/>
<line x1="913.00" y1="323.67" x2="913.00" y2="340.80" stroke="#dc2626" stroke-width="0.7"/>
<rect x="912.00" y="569.63" width="2" height="5.37" fill="#dc2626" opacity="0.55"/>
<line x1="917.83" y1="330.55" x2="917.83" y2="356.11" stroke="#dc2626" stroke-width="0.7"/>
<rect x="916.83" y="567.89" width="2" height="7.11" fill="#dc2626" opacity="0.55"/>
<line x1="922.67" y1="348.24" x2="922.67" y2="372.39" stroke="#16a34a" stroke-width="0.7"/>
<rect x="921.67" y="567.73" width="2" height="7.27" fill="#16a34a" opacity="0.55"/>
<line x1="927.50" y1="337.99" x2="927.50" y2="361.86" stroke="#16a34a" stroke-width="0.7"/>
<rect x="926.50" y="569.17" width="2" height="5.83" fill="#16a34a" opacity="0.55"/>
<line x1="932.33" y1="338.13" x2="932.33" y2="372.53" stroke="#dc2626" stroke-width="0.7"/>
<rect x="931.33" y="566.75" width="2" height="8.25" fill="#dc2626" opacity="0.55"/>
<line x1="937.17" y1="341.50" x2="937.17" y2="364.39" stroke="#16a34a" stroke-width="0.7"/>
<rect x="936.17" y="568.52" width="2" height="6.48" fill="#16a34a" opacity="0.55"/>
<line x1="942.00" y1="345.86" x2="942.00" y2="384.05" stroke="#16a34a" stroke-width="0.7"/>
<rect x="941.00" y="569.24" width="2" height="5.76" fill="#16a34a" opacity="0.55"/>
<line x1="946.83" y1="331.25" x2="946.83" y2="355.40" stroke="#16a34a" stroke-width="0.7"/>
<rect x="945.83" y="570.65" width="2" height="4.35" fill="#16a34a" opacity="0.55"/>
<line x1="951.67" y1="319.88" x2="951.67" y2="341.36" stroke="#16a34a" stroke-width="0.7"/>
<rect x="950.67" y="571.06" width="2" height="3.94" fill="#16a34a" opacity="0.55"/>
<line x1="956.50" y1="320.72" x2="956.50" y2="340.52" stroke="#16a34a" stroke-width="0.7"/>
<rect x="955.50" y="568.55" width="2" height="6.45" fill="#16a34a" opacity="0.55"/>
<line x1="961.33" y1="301.07" x2="961.33" y2="330.55" stroke="#16a34a" stroke-width="0.7"/>
<rect x="960.33" y="570.15" width="2" height="4.85" fill="#16a34a" opacity="0.55"/>
<line x1="966.17" y1="322.97" x2="966.17" y2="356.81" stroke="#dc2626" stroke-width="0.7"/>
<rect x="965.17" y="567.75" width="2" height="7.25" fill="#dc2626" opacity="0.55"/>
<line x1="971.00" y1="343.61" x2="971.00" y2="369.16" stroke="#16a34a" stroke-width="0.7"/>
<rect x="970.00" y="568.96" width="2" height="6.04" fill="#16a34a" opacity="0.55"/>
<line x1="975.83" y1="335.19" x2="975.83" y2="350.35" stroke="#dc2626" stroke-width="0.7"/>
<rect x="974.83" y="570.20" width="2" height="4.80" fill="#dc2626" opacity="0.55"/>
<line x1="980.67" y1="322.55" x2="980.67" y2="333.08" stroke="#dc2626" stroke-width="0.7"/>
<rect x="979.67" y="571.77" width="2" height="3.23" fill="#dc2626" opacity="0.55"/>
<line x1="985.50" y1="321.29" x2="985.50" y2="352.17" stroke="#dc2626" stroke-width="0.7"/>
<rect x="984.50" y="569.51" width="2" height="5.49" fill="#dc2626" opacity="0.55"/>
<line x1="990.33" y1="324.80" x2="990.33" y2="346.70" stroke="#dc2626" stroke-width="0.7"/>
<rect x="989.33" y="568.15" width="2" height="6.85" fill="#dc2626" opacity="0.55"/>
<line x1="995.17" y1="328.73" x2="995.17" y2="347.40" stroke="#dc2626" stroke-width="0.7"/>
<rect x="994.17" y="569.40" width="2" height="5.60" fill="#dc2626" opacity="0.55"/>
<line x1="1000.00" y1="340.94" x2="1000.00" y2="398.93" stroke="#dc2626" stroke-width="0.7"/>
<rect x="999.00" y="558.78" width="2" height="16.22" fill="#dc2626" opacity="0.55"/>
<polyline points="72.00,155.04 76.83,134.12 81.67,109.69 86.50,127.66 91.33,190.29 96.17,186.92 101.00,198.99 105.83,173.02 110.67,127.80 115.50,136.09 120.33,121.35 125.17,131.03 130.00,133.56 134.83,135.25 139.67,141.98 144.50,144.37 149.33,126.96 154.17,118.54 159.00,108.15 163.83,316.51 168.67,370.71 173.50,352.74 178.33,392.19 183.17,382.92 188.00,385.45 192.83,459.17 197.67,404.83 202.50,395.00 207.33,396.96 212.17,371.97 217.00,390.23 221.83,418.73 226.67,389.10 231.50,400.62 236.33,359.20 241.17,373.66 246.00,362.71 250.83,362.14 255.67,382.78 260.50,367.62 265.33,386.15 270.17,371.41 275.00,348.95 279.83,375.48 284.67,375.48 289.50,400.33 294.33,383.49 299.17,372.81 304.00,354.00 308.83,335.61 313.67,315.39 318.50,299.66 323.33,318.20 328.17,318.20 333.00,316.51 337.83,329.85 342.67,324.94 347.50,330.55 352.33,300.22 357.17,296.15 362.00,298.12 366.83,269.05 371.67,278.74 376.50,269.47 381.33,282.53 386.17,265.96 391.00,271.58 395.83,272.84 400.67,276.21 405.50,265.40 410.33,241.39 415.17,239.57 420.00,235.50 424.83,231.00 429.67,242.94 434.50,245.47 439.33,238.44 444.17,229.74 449.00,226.51 453.83,246.03 458.67,251.92 463.50,257.96 468.33,240.13 473.17,256.28 478.00,244.90 482.83,261.61 487.67,265.82 492.50,238.30 497.33,236.48 502.17,233.95 507.00,221.17 511.83,232.55 516.67,250.38 521.50,257.96 526.33,280.43 531.17,271.86 536.00,272.42 540.83,280.43 545.67,280.29 550.50,285.48 555.33,274.67 560.17,267.09 565.00,246.03 569.83,239.01 574.67,253.05 579.50,248.69 584.33,219.63 589.17,229.46 594.00,223.14 598.83,212.75 603.67,220.47 608.50,201.38 613.33,190.85 618.17,200.25 623.00,190.00 627.83,188.88 632.67,218.65 637.50,221.17 642.33,236.06 647.17,231.56 652.00,257.54 656.83,262.88 661.67,261.61 666.50,243.36 671.33,237.74 676.17,240.41 681.00,244.62 685.83,235.64 690.67,221.17 695.50,234.37 700.33,259.37 705.17,339.96 710.00,329.01 714.83,342.49 719.67,338.41 724.50,306.26 729.33,297.14 734.17,264.84 739.00,238.59 743.83,231.99 748.67,221.32 753.50,194.64 758.33,208.26 763.17,216.96 768.00,226.09 772.83,215.00 777.67,211.91 782.50,187.20 787.33,188.88 792.17,175.26 797.00,158.69 801.83,192.25 806.67,208.54 811.50,228.34 816.33,227.21 821.17,217.80 826.00,188.18 830.83,210.22 835.67,204.61 840.50,198.43 845.33,201.24 850.17,216.68 855.00,298.26 859.83,292.50 864.67,323.53 869.50,332.52 874.33,329.57 879.17,354.28 884.00,377.73 888.83,374.92 893.67,361.72 898.50,342.91 903.33,348.38 908.17,316.23 913.00,329.43 917.83,355.54 922.67,354.56 927.50,343.61 932.33,356.39 937.17,347.82 942.00,355.68 946.83,335.05 951.67,329.99 956.50,331.96 961.33,310.61 966.17,354.98 971.00,351.05 975.83,339.54 980.67,327.04 985.50,350.21 990.33,337.15 995.17,340.80 1000.00,390.51" fill="none" stroke="#2563eb" stroke-width="1.4"/>
<line x1="72" y1="342.07" x2="1000" y2="342.07" stroke="#7c3aed" stroke-width="1" stroke-dasharray="5 4"/>
<line x1="72" y1="423.78" x2="1000" y2="423.78" stroke="#ea580c" stroke-width="1" stroke-dasharray="5 4"/>
<line x1="72" y1="428.84" x2="1000" y2="428.84" stroke="#ea580c" stroke-width="1" stroke-dasharray="5 4"/>
<text x="1030.0" y="109.0" font-family="ui-monospace, SFMono-Regular, Menlo, monospace" font-size="9" fill="#7c3aed">neckline_price=131.2</text>
<text x="1030.0" y="122.0" font-family="ui-monospace, SFMono-Regular, Menlo, monospace" font-size="9" fill="#ea580c">first_extreme_price=125.4</text>
<text x="1030.0" y="135.0" font-family="ui-monospace, SFMono-Regular, Menlo, monospace" font-size="9" fill="#ea580c">second_extreme_price=125</text>
<line x1="221.83" y1="92" x2="221.83" y2="485" stroke="#0284c7" stroke-width="1.2" stroke-dasharray="3 3"/>
<line x1="299.17" y1="92" x2="299.17" y2="485" stroke="#7c3aed" stroke-width="1.2" stroke-dasharray="3 3"/>
<line x1="313.67" y1="92" x2="313.67" y2="485" stroke="#16a34a" stroke-width="1.2" stroke-dasharray="3 3"/>
<line x1="879.17" y1="92" x2="879.17" y2="485" stroke="#dc2626" stroke-width="1.2" stroke-dasharray="3 3"/>
<circle cx="221.83" cy="418.73" r="3.2" fill="#f59e0b"/>
<circle cx="231.50" cy="400.62" r="3.2" fill="#f59e0b"/>
<circle cx="284.67" cy="375.48" r="3.2" fill="#f59e0b"/>
<circle cx="299.17" cy="372.81" r="3.2" fill="#f59e0b"/>
<text x="1030.0" y="163.0" font-family="ui-monospace, SFMono-Regular, Menlo, monospace" font-size="10" fill="#0f172a">events</text>
<text x="1030.0" y="178.0" font-family="ui-monospace, SFMono-Regular, Menlo, monospace" font-size="9" fill="#0284c7">formed: 2019-01-03</text>
<text x="1030.0" y="192.0" font-family="ui-monospace, SFMono-Regular, Menlo, monospace" font-size="9" fill="#7c3aed">available: 2019-01-28</text>
<text x="1030.0" y="206.0" font-family="ui-monospace, SFMono-Regular, Menlo, monospace" font-size="9" fill="#16a34a">direction: 2019-01-31</text>
<text x="1030.0" y="220.0" font-family="ui-monospace, SFMono-Regular, Menlo, monospace" font-size="9" fill="#dc2626">invalidated: 2019-07-19</text>
<text x="1030.0" y="249.0" font-family="ui-monospace, SFMono-Regular, Menlo, monospace" font-size="9" fill="#92400e">orange dot = pivot availability</text>
<text x="72.0" y="600.0" font-family="ui-monospace, SFMono-Regular, Menlo, monospace" font-size="10" fill="#64748b">development source hash: 4aa4be3cb3ad52f73f5c75093ad2f35c50e01ddc375ceb26d77a1bef76258733</text>
<text x="72.0" y="619.0" font-family="ui-monospace, SFMono-Regular, Menlo, monospace" font-size="10" fill="#64748b">Evidence presentation only; detector facts remain authoritative; no trade semantics.</text>
</svg>