<svg xmlns="http://www.w3.org/2000/svg" viewBox="0 0 1320 640">
<rect width="100%" height="100%" fill="#ffffff"/>
<rect x="72" y="92" width="928" height="393" fill="#f8fafc" stroke="#cbd5e1"/>
<rect x="72" y="505" width="928" height="70" fill="#f8fafc" stroke="#cbd5e1"/>
<rect x="1018" y="92" width="270" height="483" fill="#ffffff" stroke="#cbd5e1"/>
<text x="72.0" y="28.0" font-family="ui-monospace, SFMono-Regular, Menlo, monospace" font-size="18" fill="#0f172a">MSFT · breakout · invalidated</text>
<text x="72.0" y="52.0" font-family="ui-monospace, SFMono-Regular, Menlo, monospace" font-size="13" fill="#334155">2018-12-07 → 2019-04-29 · EQUITY · DETECTED_CANDIDATE</text>
<text x="72.0" y="72.0" font-family="ui-monospace, SFMono-Regular, Menlo, monospace" font-size="11" fill="#64748b">case=review_40e6edf6a6d2dec98ff6 · human review: UNSET</text>
<line x1="72.00" y1="322.27" x2="72.00" y2="376.38" stroke="#dc2626" stroke-width="0.7"/>
<rect x="71.00" y="539.38" width="2" height="35.62" fill="#dc2626" opacity="0.55"/>
<line x1="81.67" y1="337.72" x2="81.67" y2="380.68" stroke="#16a34a" stroke-width="0.7"/>
<rect x="80.67" y="541.91" width="2" height="33.09" fill="#16a34a" opacity="0.55"/>
<line x1="91.33" y1="306.52" x2="91.33" y2="343.39" stroke="#dc2626" stroke-width="0.7"/>
<rect x="90.33" y="538.66" width="2" height="36.34" fill="#dc2626" opacity="0.55"/>
<line x1="101.00" y1="303.15" x2="101.00" y2="326.58" stroke="#dc2626" stroke-width="0.7"/>
<rect x="100.00" y="548.30" width="2" height="26.70" fill="#dc2626" opacity="0.55"/>
<line x1="110.67" y1="307.36" x2="110.67" y2="330.89" stroke="#dc2626" stroke-width="0.7"/>
<rect x="109.67" y="550.85" width="2" height="24.15" fill="#dc2626" opacity="0.55"/>
<line x1="120.33" y1="324.27" x2="120.33" y2="363.77" stroke="#dc2626" stroke-width="0.7"/>
<rect x="119.33" y="537.52" width="2" height="37.48" fill="#dc2626" opacity="0.55"/>
<line x1="130.00" y1="360.62" x2="130.00" y2="403.58" stroke="#dc2626" stroke-width="0.7"/>
<rect x="129.00" y="535.21" width="2" height="39.79" fill="#dc2626" opacity="0.55"/>
<line x1="139.67" y1="374.17" x2="139.67" y2="395.08" stroke="#16a34a" stroke-width="0.7"/>
<rect x="138.67" y="540.24" width="2" height="34.76" fill="#16a34a" opacity="0.55"/>
<line x1="149.33" y1="349.27" x2="149.33" y2="407.37" stroke="#16a34a" stroke-width="0.7"/>
<rect x="148.33" y="523.08" width="2" height="51.92" fill="#16a34a" opacity="0.55"/>
<line x1="159.00" y1="376.27" x2="159.00" y2="434.05" stroke="#dc2626" stroke-width="0.7"/>
<rect x="158.00" y="520.83" width="2" height="54.17" fill="#dc2626" opacity="0.55"/>
<line x1="168.67" y1="390.03" x2="168.67" y2="448.23" stroke="#dc2626" stroke-width="0.7"/>
<rect x="167.67" y="505.00" width="2" height="70.00" fill="#dc2626" opacity="0.55"/>
<line x1="178.33" y1="442.87" x2="178.33" y2="484.79" stroke="#dc2626" stroke-width="0.7"/>
<rect x="177.33" y="537.82" width="2" height="37.18" fill="#dc2626" opacity="0.55"/>
<line x1="188.00" y1="414.30" x2="188.00" y2="485.00" stroke="#16a34a" stroke-width="0.7"/>
<rect x="187.00" y="532.95" width="2" height="42.05" fill="#16a34a" opacity="0.55"/>
<line x1="197.67" y1="409.05" x2="197.67" y2="459.37" stroke="#16a34a" stroke-width="0.7"/>
<rect x="196.67" y="535.74" width="2" height="39.26" fill="#16a34a" opacity="0.55"/>
<line x1="207.33" y1="396.23" x2="207.33" y2="426.59" stroke="#dc2626" stroke-width="0.7"/>
<rect x="206.33" y="543.28" width="2" height="31.72" fill="#dc2626" opacity="0.55"/>
<line x1="217.00" y1="396.34" x2="217.00" y2="416.93" stroke="#16a34a" stroke-width="0.7"/>
<rect x="216.00" y="550.81" width="2" height="24.19" fill="#16a34a" opacity="0.55"/>
<line x1="226.67" y1="403.16" x2="226.67" y2="432.68" stroke="#16a34a" stroke-width="0.7"/>
<rect x="225.67" y="549.32" width="2" height="25.68" fill="#16a34a" opacity="0.55"/>
<line x1="236.33" y1="419.55" x2="236.33" y2="450.96" stroke="#dc2626" stroke-width="0.7"/>
<rect x="235.33" y="541.27" width="2" height="33.73" fill="#dc2626" opacity="0.55"/>
<line x1="246.00" y1="395.18" x2="246.00" y2="432.79" stroke="#16a34a" stroke-width="0.7"/>
<rect x="245.00" y="539.93" width="2" height="35.07" fill="#16a34a" opacity="0.55"/>
<line x1="255.67" y1="387.20" x2="255.67" y2="411.25" stroke="#16a34a" stroke-width="0.7"/>
<rect x="254.67" y="548.33" width="2" height="26.67" fill="#16a34a" opacity="0.55"/>
<line x1="265.33" y1="379.84" x2="265.33" y2="403.58" stroke="#dc2626" stroke-width="0.7"/>
<rect x="264.33" y="550.72" width="2" height="24.28" fill="#dc2626" opacity="0.55"/>
<line x1="275.00" y1="370.28" x2="275.00" y2="387.51" stroke="#16a34a" stroke-width="0.7"/>
<rect x="274.00" y="548.39" width="2" height="26.61" fill="#16a34a" opacity="0.55"/>
<line x1="284.67" y1="382.15" x2="284.67" y2="396.55" stroke="#16a34a" stroke-width="0.7"/>
<rect x="283.67" y="552.26" width="2" height="22.74" fill="#16a34a" opacity="0.55"/>
<line x1="294.33" y1="385.41" x2="294.33" y2="404.32" stroke="#dc2626" stroke-width="0.7"/>
<rect x="293.33" y="551.61" width="2" height="23.39" fill="#dc2626" opacity="0.55"/>
<line x1="304.00" y1="395.92" x2="304.00" y2="408.31" stroke="#16a34a" stroke-width="0.7"/>
<rect x="303.00" y="556.05" width="2" height="18.95" fill="#16a34a" opacity="0.55"/>
<line x1="313.67" y1="368.50" x2="313.67" y2="401.80" stroke="#16a34a" stroke-width="0.7"/>
<rect x="312.67" y="548.85" width="2" height="26.15" fill="#16a34a" opacity="0.55"/>
<line x1="323.33" y1="355.79" x2="323.33" y2="369.44" stroke="#16a34a" stroke-width="0.7"/>
<rect x="322.33" y="551.66" width="2" height="23.34" fill="#16a34a" opacity="0.55"/>
<line x1="333.00" y1="351.90" x2="333.00" y2="371.54" stroke="#16a34a" stroke-width="0.7"/>
<rect x="332.00" y="552.92" width="2" height="22.08" fill="#16a34a" opacity="0.55"/>
<line x1="342.67" y1="338.56" x2="342.67" y2="359.46" stroke="#16a34a" stroke-width="0.7"/>
<rect x="341.67" y="544.65" width="2" height="30.35" fill="#16a34a" opacity="0.55"/>
<line x1="352.33" y1="346.96" x2="352.33" y2="370.49" stroke="#dc2626" stroke-width="0.7"/>
<rect x="351.33" y="552.24" width="2" height="22.76" fill="#dc2626" opacity="0.55"/>
<line x1="362.00" y1="347.59" x2="362.00" y2="365.45" stroke="#16a34a" stroke-width="0.7"/>
<rect x="361.00" y="555.06" width="2" height="19.94" fill="#16a34a" opacity="0.55"/>
<line x1="371.67" y1="348.01" x2="371.67" y2="365.45" stroke="#dc2626" stroke-width="0.7"/>
<rect x="370.67" y="555.73" width="2" height="19.27" fill="#dc2626" opacity="0.55"/>
<line x1="381.33" y1="338.77" x2="381.33" y2="352.32" stroke="#dc2626" stroke-width="0.7"/>
<rect x="380.33" y="550.72" width="2" height="24.28" fill="#dc2626" opacity="0.55"/>
<line x1="391.00" y1="353.47" x2="391.00" y2="372.59" stroke="#dc2626" stroke-width="0.7"/>
<rect x="390.00" y="550.67" width="2" height="24.33" fill="#dc2626" opacity="0.55"/>
<line x1="400.67" y1="369.34" x2="400.67" y2="398.75" stroke="#dc2626" stroke-width="0.7"/>
<rect x="399.67" y="549.26" width="2" height="25.74" fill="#dc2626" opacity="0.55"/>
<line x1="410.33" y1="354.53" x2="410.33" y2="376.06" stroke="#16a34a" stroke-width="0.7"/>
<rect x="409.33" y="539.69" width="2" height="35.31" fill="#16a34a" opacity="0.55"/>
<line x1="420.00" y1="366.71" x2="420.00" y2="388.14" stroke="#16a34a" stroke-width="0.7"/>
<rect x="419.00" y="531.34" width="2" height="43.66" fill="#16a34a" opacity="0.55"/>
<line x1="429.67" y1="378.48" x2="429.67" y2="396.86" stroke="#dc2626" stroke-width="0.7"/>
<rect x="428.67" y="549.57" width="2" height="25.43" fill="#dc2626" opacity="0.55"/>
<line x1="439.33" y1="360.62" x2="439.33" y2="392.45" stroke="#16a34a" stroke-width="0.7"/>
<rect x="438.33" y="551.62" width="2" height="23.38" fill="#16a34a" opacity="0.55"/>
<line x1="449.00" y1="345.18" x2="449.00" y2="358.94" stroke="#16a34a" stroke-width="0.7"/>
<rect x="448.00" y="554.57" width="2" height="20.43" fill="#16a34a" opacity="0.55"/>
<line x1="458.67" y1="348.01" x2="458.67" y2="363.45" stroke="#dc2626" stroke-width="0.7"/>
<rect x="457.67" y="559.57" width="2" height="15.43" fill="#dc2626" opacity="0.55"/>
<line x1="468.33" y1="362.82" x2="468.33" y2="376.48" stroke="#16a34a" stroke-width="0.7"/>
<rect x="467.33" y="554.44" width="2" height="20.56" fill="#16a34a" opacity="0.55"/>
<line x1="478.00" y1="360.83" x2="478.00" y2="376.80" stroke="#16a34a" stroke-width="0.7"/>
<rect x="477.00" y="558.83" width="2" height="16.17" fill="#16a34a" opacity="0.55"/>
<line x1="487.67" y1="352.42" x2="487.67" y2="369.44" stroke="#dc2626" stroke-width="0.7"/>
<rect x="486.67" y="561.04" width="2" height="13.96" fill="#dc2626" opacity="0.55"/>
<line x1="497.33" y1="346.54" x2="497.33" y2="363.98" stroke="#16a34a" stroke-width="0.7"/>
<rect x="496.33" y="554.75" width="2" height="20.25" fill="#16a34a" opacity="0.55"/>
<line x1="507.00" y1="339.82" x2="507.00" y2="351.06" stroke="#dc2626" stroke-width="0.7"/>
<rect x="506.00" y="561.12" width="2" height="13.88" fill="#dc2626" opacity="0.55"/>
<line x1="516.67" y1="344.97" x2="516.67" y2="362.09" stroke="#16a34a" stroke-width="0.7"/>
<rect x="515.67" y="558.88" width="2" height="16.12" fill="#16a34a" opacity="0.55"/>
<line x1="526.33" y1="334.36" x2="526.33" y2="344.23" stroke="#16a34a" stroke-width="0.7"/>
<rect x="525.33" y="553.67" width="2" height="21.33" fill="#16a34a" opacity="0.55"/>
<line x1="536.00" y1="330.57" x2="536.00" y2="339.82" stroke="#16a34a" stroke-width="0.7"/>
<rect x="535.00" y="561.04" width="2" height="13.96" fill="#16a34a" opacity="0.55"/>
<line x1="545.67" y1="338.14" x2="545.67" y2="355.47" stroke="#dc2626" stroke-width="0.7"/>
<rect x="544.67" y="559.16" width="2" height="15.84" fill="#dc2626" opacity="0.55"/>
<line x1="555.33" y1="321.96" x2="555.33" y2="349.38" stroke="#16a34a" stroke-width="0.7"/>
<rect x="554.33" y="550.71" width="2" height="24.29" fill="#16a34a" opacity="0.55"/>
<line x1="565.00" y1="303.89" x2="565.00" y2="318.39" stroke="#16a34a" stroke-width="0.7"/>
<rect x="564.00" y="552.93" width="2" height="22.07" fill="#16a34a" opacity="0.55"/>
<line x1="574.67" y1="293.60" x2="574.67" y2="303.26" stroke="#dc2626" stroke-width="0.7"/>
<rect x="573.67" y="556.71" width="2" height="18.29" fill="#dc2626" opacity="0.55"/>
<line x1="584.33" y1="282.46" x2="584.33" y2="304.21" stroke="#16a34a" stroke-width="0.7"/>
<rect x="583.33" y="558.02" width="2" height="16.98" fill="#16a34a" opacity="0.55"/>
<line x1="594.00" y1="291.70" x2="594.00" y2="307.25" stroke="#16a34a" stroke-width="0.7"/>
<rect x="593.00" y="558.01" width="2" height="16.99" fill="#16a34a" opacity="0.55"/>
<line x1="603.67" y1="286.24" x2="603.67" y2="298.32" stroke="#dc2626" stroke-width="0.7"/>
<rect x="602.67" y="555.99" width="2" height="19.01" fill="#dc2626" opacity="0.55"/>
<line x1="613.33" y1="284.77" x2="613.33" y2="299.06" stroke="#dc2626" stroke-width="0.7"/>
<rect x="612.33" y="559.03" width="2" height="15.97" fill="#dc2626" opacity="0.55"/>
<line x1="623.00" y1="282.35" x2="623.00" y2="308.09" stroke="#dc2626" stroke-width="0.7"/>
<rect x="622.00" y="554.86" width="2" height="20.14" fill="#dc2626" opacity="0.55"/>
<line x1="632.67" y1="291.39" x2="632.67" y2="303.57" stroke="#dc2626" stroke-width="0.7"/>
<rect x="631.67" y="562.83" width="2" height="12.17" fill="#dc2626" opacity="0.55"/>
<line x1="642.33" y1="288.55" x2="642.33" y2="301.47" stroke="#dc2626" stroke-width="0.7"/>
<rect x="641.33" y="561.08" width="2" height="13.92" fill="#dc2626" opacity="0.55"/>
<line x1="652.00" y1="300.21" x2="652.00" y2="317.97" stroke="#dc2626" stroke-width="0.7"/>
<rect x="651.00" y="558.10" width="2" height="16.90" fill="#dc2626" opacity="0.55"/>
<line x1="661.67" y1="309.04" x2="661.67" y2="329.10" stroke="#16a34a" stroke-width="0.7"/>
<rect x="660.67" y="557.45" width="2" height="17.55" fill="#16a34a" opacity="0.55"/>
<line x1="671.33" y1="285.51" x2="671.33" y2="306.20" stroke="#16a34a" stroke-width="0.7"/>
<rect x="670.33" y="556.89" width="2" height="18.11" fill="#16a34a" opacity="0.55"/>
<line x1="681.00" y1="274.58" x2="681.00" y2="288.76" stroke="#16a34a" stroke-width="0.7"/>
<rect x="680.00" y="555.67" width="2" height="19.33" fill="#16a34a" opacity="0.55"/>
<line x1="690.67" y1="263.97" x2="690.67" y2="276.79" stroke="#16a34a" stroke-width="0.7"/>
<rect x="689.67" y="555.47" width="2" height="19.53" fill="#16a34a" opacity="0.55"/>
<line x1="700.33" y1="261.87" x2="700.33" y2="271.01" stroke="#16a34a" stroke-width="0.7"/>
<rect x="699.33" y="559.15" width="2" height="15.85" fill="#16a34a" opacity="0.55"/>
<line x1="710.00" y1="240.33" x2="710.00" y2="267.75" stroke="#16a34a" stroke-width="0.7"/>
<rect x="709.00" y="539.15" width="2" height="35.85" fill="#16a34a" opacity="0.55"/>
<line x1="719.67" y1="236.55" x2="719.67" y2="252.94" stroke="#16a34a" stroke-width="0.7"/>
<rect x="718.67" y="555.59" width="2" height="19.41" fill="#16a34a" opacity="0.55"/>
<line x1="729.33" y1="227.83" x2="729.33" y2="243.06" stroke="#dc2626" stroke-width="0.7"/>
<rect x="728.33" y="551.22" width="2" height="23.78" fill="#dc2626" opacity="0.55"/>
<line x1="739.00" y1="224.58" x2="739.00" y2="246.01" stroke="#16a34a" stroke-width="0.7"/>
<rect x="738.00" y="554.19" width="2" height="20.81" fill="#16a34a" opacity="0.55"/>
<line x1="748.67" y1="202.83" x2="748.67" y2="242.01" stroke="#16a34a" stroke-width="0.7"/>
<rect x="747.67" y="553.54" width="2" height="21.46" fill="#16a34a" opacity="0.55"/>
<line x1="758.33" y1="215.75" x2="758.33" y2="242.54" stroke="#dc2626" stroke-width="0.7"/>
<rect x="757.33" y="550.37" width="2" height="24.63" fill="#dc2626" opacity="0.55"/>
<line x1="768.00" y1="232.35" x2="768.00" y2="250.10" stroke="#16a34a" stroke-width="0.7"/>
<rect x="767.00" y="553.86" width="2" height="21.14" fill="#16a34a" opacity="0.55"/>
<line x1="777.67" y1="225.00" x2="777.67" y2="244.54" stroke="#dc2626" stroke-width="0.7"/>
<rect x="776.67" y="554.15" width="2" height="20.85" fill="#dc2626" opacity="0.55"/>
<line x1="787.33" y1="230.25" x2="787.33" y2="258.51" stroke="#dc2626" stroke-width="0.7"/>
<rect x="786.33" y="557.65" width="2" height="17.35" fill="#dc2626" opacity="0.55"/>
<line x1="797.00" y1="236.87" x2="797.00" y2="252.10" stroke="#dc2626" stroke-width="0.7"/>
<rect x="796.00" y="560.50" width="2" height="14.50" fill="#dc2626" opacity="0.55"/>
<line x1="806.67" y1="229.09" x2="806.67" y2="243.38" stroke="#dc2626" stroke-width="0.7"/>
<rect x="805.67" y="559.44" width="2" height="15.56" fill="#dc2626" opacity="0.55"/>
<line x1="816.33" y1="220.79" x2="816.33" y2="231.40" stroke="#16a34a" stroke-width="0.7"/>
<rect x="815.33" y="560.15" width="2" height="14.85" fill="#16a34a" opacity="0.55"/>
<line x1="826.00" y1="216.91" x2="826.00" y2="226.99" stroke="#16a34a" stroke-width="0.7"/>
<rect x="825.00" y="563.00" width="2" height="12.00" fill="#16a34a" opacity="0.55"/>
<line x1="835.67" y1="206.93" x2="835.67" y2="220.37" stroke="#dc2626" stroke-width="0.7"/>
<rect x="834.67" y="558.46" width="2" height="16.54" fill="#dc2626" opacity="0.55"/>
<line x1="845.33" y1="209.03" x2="845.33" y2="228.46" stroke="#dc2626" stroke-width="0.7"/>
<rect x="844.33" y="558.93" width="2" height="16.07" fill="#dc2626" opacity="0.55"/>
<line x1="855.00" y1="209.03" x2="855.00" y2="218.06" stroke="#16a34a" stroke-width="0.7"/>
<rect x="854.00" y="563.28" width="2" height="11.72" fill="#16a34a" opacity="0.55"/>
<line x1="864.67" y1="211.23" x2="864.67" y2="225.73" stroke="#16a34a" stroke-width="0.7"/>
<rect x="863.67" y="563.58" width="2" height="11.42" fill="#16a34a" opacity="0.55"/>
<line x1="874.33" y1="216.28" x2="874.33" y2="226.36" stroke="#16a34a" stroke-width="0.7"/>
<rect x="873.33" y="561.78" width="2" height="13.22" fill="#16a34a" opacity="0.55"/>
<line x1="884.00" y1="207.77" x2="884.00" y2="216.28" stroke="#16a34a" stroke-width="0.7"/>
<rect x="883.00" y="563.18" width="2" height="11.82" fill="#16a34a" opacity="0.55"/>
<line x1="893.67" y1="202.51" x2="893.67" y2="212.28" stroke="#dc2626" stroke-width="0.7"/>
<rect x="892.67" y="563.81" width="2" height="11.19" fill="#dc2626" opacity="0.55"/>
<line x1="903.33" y1="201.15" x2="903.33" y2="207.56" stroke="#16a34a" stroke-width="0.7"/>
<rect x="902.33" y="561.03" width="2" height="13.97" fill="#16a34a" opacity="0.55"/>
<line x1="913.00" y1="194.85" x2="913.00" y2="205.46" stroke="#16a34a" stroke-width="0.7"/>
<rect x="912.00" y="563.47" width="2" height="11.53" fill="#16a34a" opacity="0.55"/>
<line x1="922.67" y1="194.11" x2="922.67" y2="210.39" stroke="#dc2626" stroke-width="0.7"/>
<rect x="921.67" y="563.82" width="2" height="11.18" fill="#dc2626" opacity="0.55"/>
<line x1="932.33" y1="192.01" x2="932.33" y2="205.77" stroke="#16a34a" stroke-width="0.7"/>
<rect x="931.33" y="560.08" width="2" height="14.92" fill="#16a34a" opacity="0.55"/>
<line x1="942.00" y1="174.47" x2="942.00" y2="197.79" stroke="#16a34a" stroke-width="0.7"/>
<rect x="941.00" y="552.55" width="2" height="22.45" fill="#16a34a" opacity="0.55"/>
<line x1="951.67" y1="169.42" x2="951.67" y2="184.45" stroke="#16a34a" stroke-width="0.7"/>
<rect x="950.67" y="562.92" width="2" height="12.08" fill="#16a34a" opacity="0.55"/>
<line x1="961.33" y1="152.83" x2="961.33" y2="171.21" stroke="#16a34a" stroke-width="0.7"/>
<rect x="960.33" y="557.13" width="2" height="17.87" fill="#16a34a" opacity="0.55"/>
<line x1="971.00" y1="149.99" x2="971.00" y2="163.96" stroke="#dc2626" stroke-width="0.7"/>
<rect x="970.00" y="555.09" width="2" height="19.91" fill="#dc2626" opacity="0.55"/>
<line x1="980.67" y1="92.00" x2="980.67" y2="118.68" stroke="#dc2626" stroke-width="0.7"/>
<rect x="979.67" y="544.00" width="2" height="31.00" fill="#dc2626" opacity="0.55"/>
<line x1="990.33" y1="100.93" x2="990.33" y2="116.69" stroke="#16a34a" stroke-width="0.7"/>
<rect x="989.33" y="557.37" width="2" height="17.63" fill="#16a34a" opacity="0.55"/>
<line x1="1000.00" y1="104.50" x2="1000.00" y2="113.22" stroke="#dc2626" stroke-width="0.7"/>
<rect x="999.00" y="562.36" width="2" height="12.64" fill="#dc2626" opacity="0.55"/>
<polyline points="72.00,370.91 81.67,341.81 91.33,331.31 101.00,326.16 110.67,322.27 120.33,358.20 130.00,391.19 139.67,379.84 149.33,382.78 159.00,405.69 168.67,440.14 178.33,483.21 188.00,415.67 197.67,409.15 207.33,417.45 217.00,405.06 226.67,409.78 236.33,448.86 246.00,401.27 255.67,399.91 265.33,392.13 275.00,376.69 284.67,383.73 294.33,392.13 304.00,400.01 313.67,368.92 323.33,365.03 333.00,357.26 342.67,340.55 352.33,361.88 362.00,351.06 371.67,356.42 381.33,346.23 391.00,368.18 400.67,390.66 410.33,354.53 420.00,375.01 429.67,392.34 439.33,361.25 449.00,345.70 458.67,358.20 468.33,366.19 478.00,361.98 487.67,366.40 497.33,349.17 507.00,350.01 516.67,349.06 526.33,335.20 536.00,335.72 545.67,346.44 555.33,322.69 565.00,306.31 574.67,299.79 584.33,291.70 594.00,293.70 603.67,295.17 613.33,289.92 623.00,292.75 632.67,298.64 642.33,298.11 652.00,312.40 661.67,311.14 671.33,286.77 681.00,278.47 690.67,269.22 700.33,268.28 710.00,254.41 719.67,236.97 729.33,236.13 739.00,237.50 748.67,209.13 758.33,242.43 768.00,236.03 777.67,233.40 787.33,245.38 797.00,243.70 806.67,233.09 816.33,221.74 826.00,219.95 835.67,211.76 845.33,218.17 855.00,212.60 864.67,212.18 874.33,219.01 884.00,209.45 893.67,207.98 903.33,201.46 913.00,200.41 922.67,203.36 932.33,192.85 942.00,176.04 951.67,171.94 961.33,154.30 971.00,158.81 980.67,115.32 990.33,107.55 1000.00,108.81" fill="none" stroke="#2563eb" stroke-width="1.4"/>
<line x1="72" y1="224.58" x2="1000" y2="224.58" stroke="#7c3aed" stroke-width="1" stroke-dasharray="5 4"/>
<text x="1030.0" y="109.0" font-family="ui-monospace, SFMono-Regular, Menlo, monospace" font-size="9" fill="#7c3aed">boundary_axis=118.8</text>
<line x1="748.67" y1="92" x2="748.67" y2="485" stroke="#0284c7" stroke-width="1.2" stroke-dasharray="3 3"/>
<line x1="748.67" y1="92" x2="748.67" y2="485" stroke="#7c3aed" stroke-width="1.2" stroke-dasharray="3 3"/>
<line x1="758.33" y1="92" x2="758.33" y2="485" stroke="#dc2626" stroke-width="1.2" stroke-dasharray="3 3"/>
<text x="1030.0" y="137.0" font-family="ui-monospace, SFMono-Regular, Menlo, monospace" font-size="10" fill="#0f172a">events</text>
<text x="1030.0" y="152.0" font-family="ui-monospace, SFMono-Regular, Menlo, monospace" font-size="9" fill="#0284c7">formed: 2019-03-21</text>
<text x="1030.0" y="166.0" font-family="ui-monospace, SFMono-Regular, Menlo, monospace" font-size="9" fill="#7c3aed">available: 2019-03-21</text>
<text x="1030.0" y="180.0" font-family="ui-monospace, SFMono-Regular, Menlo, monospace" font-size="9" fill="#dc2626">invalidated: 2019-03-22</text>
<text x="1030.0" y="209.0" font-family="ui-monospace, SFMono-Regular, Menlo, monospace" font-size="9" fill="#92400e">orange dot = pivot availability</text>
<text x="72.0" y="600.0" font-family="ui-monospace, SFMono-Regular, Menlo, monospace" font-size="10" fill="#64748b">development source hash: 026d08710b6250ee81dc6ac4ae0317a2026e9f08cd871e4cd5047d948eeb82b0</text>
<text x="72.0" y="619.0" font-family="ui-monospace, SFMono-Regular, Menlo, monospace" font-size="10" fill="#64748b">Evidence presentation only; detector facts remain authoritative; no trade semantics.</text>
</svg>