<svg xmlns="http://www.w3.org/2000/svg" viewBox="0 0 1320 640">
<rect width="100%" height="100%" fill="#ffffff"/>
<rect x="72" y="92" width="928" height="393" fill="#f8fafc" stroke="#cbd5e1"/>
<rect x="72" y="505" width="928" height="70" fill="#f8fafc" stroke="#cbd5e1"/>
<rect x="1018" y="92" width="270" height="483" fill="#ffffff" stroke="#cbd5e1"/>
<text x="72.0" y="28.0" font-family="ui-monospace, SFMono-Regular, Menlo, monospace" font-size="18" fill="#0f172a">TLT · breakout · NO_PATTERN</text>
<text x="72.0" y="52.0" font-family="ui-monospace, SFMono-Regular, Menlo, monospace" font-size="13" fill="#334155">2020-08-12 → 2021-03-31 · FIXED_INCOME · NEGATIVE_CONTROL_NO_DETECTION</text>
<text x="72.0" y="72.0" font-family="ui-monospace, SFMono-Regular, Menlo, monospace" font-size="11" fill="#64748b">case=review_4fb8b402476b0fa90257 · human review: UNSET</text>
<line x1="72.00" y1="105.50" x2="72.00" y2="117.97" stroke="#dc2626" stroke-width="0.7"/>
<rect x="71.00" y="560.51" width="2" height="14.49" fill="#dc2626" opacity="0.55"/>
<line x1="77.84" y1="111.16" x2="77.84" y2="139.09" stroke="#dc2626" stroke-width="0.7"/>
<rect x="76.84" y="558.67" width="2" height="16.33" fill="#dc2626" opacity="0.55"/>
<line x1="83.67" y1="127.66" x2="83.67" y2="139.09" stroke="#dc2626" stroke-width="0.7"/>
<rect x="82.67" y="566.66" width="2" height="8.34" fill="#dc2626" opacity="0.55"/>
<line x1="89.51" y1="124.09" x2="89.51" y2="135.97" stroke="#dc2626" stroke-width="0.7"/>
<rect x="88.51" y="568.32" width="2" height="6.68" fill="#dc2626" opacity="0.55"/>
<line x1="95.35" y1="119.35" x2="95.35" y2="128.47" stroke="#16a34a" stroke-width="0.7"/>
<rect x="94.35" y="566.40" width="2" height="8.60" fill="#16a34a" opacity="0.55"/>
<line x1="101.18" y1="110.70" x2="101.18" y2="137.47" stroke="#dc2626" stroke-width="0.7"/>
<rect x="100.18" y="558.43" width="2" height="16.57" fill="#dc2626" opacity="0.55"/>
<line x1="107.02" y1="110.35" x2="107.02" y2="118.66" stroke="#dc2626" stroke-width="0.7"/>
<rect x="106.02" y="562.65" width="2" height="12.35" fill="#dc2626" opacity="0.55"/>
<line x1="112.86" y1="102.50" x2="112.86" y2="117.74" stroke="#16a34a" stroke-width="0.7"/>
<rect x="111.86" y="566.28" width="2" height="8.72" fill="#16a34a" opacity="0.55"/>
<line x1="118.69" y1="95.12" x2="118.69" y2="107.93" stroke="#dc2626" stroke-width="0.7"/>
<rect x="117.69" y="566.53" width="2" height="8.47" fill="#dc2626" opacity="0.55"/>
<line x1="124.53" y1="116.81" x2="124.53" y2="131.36" stroke="#16a34a" stroke-width="0.7"/>
<rect x="123.53" y="562.23" width="2" height="12.77" fill="#16a34a" opacity="0.55"/>
<line x1="130.36" y1="125.59" x2="130.36" y2="137.71" stroke="#dc2626" stroke-width="0.7"/>
<rect x="129.36" y="563.89" width="2" height="11.11" fill="#dc2626" opacity="0.55"/>
<line x1="136.20" y1="119.93" x2="136.20" y2="162.17" stroke="#dc2626" stroke-width="0.7"/>
<rect x="135.20" y="549.39" width="2" height="25.61" fill="#dc2626" opacity="0.55"/>
<line x1="142.04" y1="151.90" x2="142.04" y2="168.18" stroke="#dc2626" stroke-width="0.7"/>
<rect x="141.04" y="564.19" width="2" height="10.81" fill="#dc2626" opacity="0.55"/>
<line x1="147.87" y1="138.05" x2="147.87" y2="157.56" stroke="#16a34a" stroke-width="0.7"/>
<rect x="146.87" y="559.86" width="2" height="15.14" fill="#16a34a" opacity="0.55"/>
<line x1="153.71" y1="128.59" x2="153.71" y2="161.94" stroke="#16a34a" stroke-width="0.7"/>
<rect x="152.71" y="564.20" width="2" height="10.80" fill="#16a34a" opacity="0.55"/>
<line x1="159.55" y1="111.39" x2="159.55" y2="135.28" stroke="#16a34a" stroke-width="0.7"/>
<rect x="158.55" y="559.42" width="2" height="15.58" fill="#16a34a" opacity="0.55"/>
<line x1="165.38" y1="92.00" x2="165.38" y2="112.78" stroke="#16a34a" stroke-width="0.7"/>
<rect x="164.38" y="555.23" width="2" height="19.77" fill="#16a34a" opacity="0.55"/>
<line x1="171.22" y1="121.32" x2="171.22" y2="147.29" stroke="#dc2626" stroke-width="0.7"/>
<rect x="170.22" y="558.64" width="2" height="16.36" fill="#dc2626" opacity="0.55"/>
<line x1="177.06" y1="114.85" x2="177.06" y2="132.40" stroke="#dc2626" stroke-width="0.7"/>
<rect x="176.06" y="558.44" width="2" height="16.56" fill="#dc2626" opacity="0.55"/>
<line x1="182.89" y1="126.51" x2="182.89" y2="143.82" stroke="#dc2626" stroke-width="0.7"/>
<rect x="181.89" y="564.94" width="2" height="10.06" fill="#dc2626" opacity="0.55"/>
<line x1="188.73" y1="125.36" x2="188.73" y2="153.06" stroke="#16a34a" stroke-width="0.7"/>
<rect x="187.73" y="563.10" width="2" height="11.90" fill="#16a34a" opacity="0.55"/>
<line x1="194.57" y1="122.82" x2="194.57" y2="128.47" stroke="#16a34a" stroke-width="0.7"/>
<rect x="193.57" y="567.87" width="2" height="7.13" fill="#16a34a" opacity="0.55"/>
<line x1="200.40" y1="116.93" x2="200.40" y2="126.74" stroke="#dc2626" stroke-width="0.7"/>
<rect x="199.40" y="569.58" width="2" height="5.42" fill="#dc2626" opacity="0.55"/>
<line x1="206.24" y1="123.97" x2="206.24" y2="131.82" stroke="#dc2626" stroke-width="0.7"/>
<rect x="205.24" y="567.56" width="2" height="7.44" fill="#dc2626" opacity="0.55"/>
<line x1="212.08" y1="119.12" x2="212.08" y2="141.17" stroke="#dc2626" stroke-width="0.7"/>
<rect x="211.08" y="563.57" width="2" height="11.43" fill="#dc2626" opacity="0.55"/>
<line x1="217.91" y1="118.32" x2="217.91" y2="131.70" stroke="#dc2626" stroke-width="0.7"/>
<rect x="216.91" y="567.52" width="2" height="7.48" fill="#dc2626" opacity="0.55"/>
<line x1="223.75" y1="126.63" x2="223.75" y2="137.01" stroke="#dc2626" stroke-width="0.7"/>
<rect x="222.75" y="565.74" width="2" height="9.26" fill="#dc2626" opacity="0.55"/>
<line x1="229.58" y1="113.24" x2="229.58" y2="127.90" stroke="#dc2626" stroke-width="0.7"/>
<rect x="228.58" y="559.97" width="2" height="15.03" fill="#dc2626" opacity="0.55"/>
<line x1="235.42" y1="119.24" x2="235.42" y2="130.90" stroke="#dc2626" stroke-width="0.7"/>
<rect x="234.42" y="560.02" width="2" height="14.98" fill="#dc2626" opacity="0.55"/>
<line x1="241.26" y1="123.28" x2="241.26" y2="135.40" stroke="#16a34a" stroke-width="0.7"/>
<rect x="240.26" y="566.67" width="2" height="8.33" fill="#16a34a" opacity="0.55"/>
<line x1="247.09" y1="116.47" x2="247.09" y2="122.24" stroke="#16a34a" stroke-width="0.7"/>
<rect x="246.09" y="565.03" width="2" height="9.97" fill="#16a34a" opacity="0.55"/>
<line x1="252.93" y1="113.01" x2="252.93" y2="121.20" stroke="#16a34a" stroke-width="0.7"/>
<rect x="251.93" y="568.71" width="2" height="6.29" fill="#16a34a" opacity="0.55"/>
<line x1="258.77" y1="119.01" x2="258.77" y2="125.13" stroke="#dc2626" stroke-width="0.7"/>
<rect x="257.77" y="569.57" width="2" height="5.43" fill="#dc2626" opacity="0.55"/>
<line x1="264.60" y1="115.08" x2="264.60" y2="122.93" stroke="#16a34a" stroke-width="0.7"/>
<rect x="263.60" y="565.93" width="2" height="9.07" fill="#16a34a" opacity="0.55"/>
<line x1="270.44" y1="129.40" x2="270.44" y2="146.13" stroke="#dc2626" stroke-width="0.7"/>
<rect x="269.44" y="560.14" width="2" height="14.86" fill="#dc2626" opacity="0.55"/>
<line x1="276.28" y1="132.28" x2="276.28" y2="151.33" stroke="#16a34a" stroke-width="0.7"/>
<rect x="275.28" y="560.46" width="2" height="14.54" fill="#16a34a" opacity="0.55"/>
<line x1="282.11" y1="133.20" x2="282.11" y2="150.40" stroke="#dc2626" stroke-width="0.7"/>
<rect x="281.11" y="563.27" width="2" height="11.73" fill="#dc2626" opacity="0.55"/>
<line x1="287.95" y1="164.60" x2="287.95" y2="181.10" stroke="#dc2626" stroke-width="0.7"/>
<rect x="286.95" y="557.38" width="2" height="17.62" fill="#dc2626" opacity="0.55"/>
<line x1="293.79" y1="159.29" x2="293.79" y2="190.80" stroke="#16a34a" stroke-width="0.7"/>
<rect x="292.79" y="551.96" width="2" height="23.04" fill="#16a34a" opacity="0.55"/>
<line x1="299.62" y1="170.72" x2="299.62" y2="188.72" stroke="#dc2626" stroke-width="0.7"/>
<rect x="298.62" y="563.13" width="2" height="11.87" fill="#dc2626" opacity="0.55"/>
<line x1="305.46" y1="172.68" x2="305.46" y2="179.60" stroke="#16a34a" stroke-width="0.7"/>
<rect x="304.46" y="564.72" width="2" height="10.28" fill="#16a34a" opacity="0.55"/>
<line x1="311.30" y1="172.45" x2="311.30" y2="189.30" stroke="#16a34a" stroke-width="0.7"/>
<rect x="310.30" y="563.98" width="2" height="11.02" fill="#16a34a" opacity="0.55"/>
<line x1="317.13" y1="167.71" x2="317.13" y2="174.29" stroke="#16a34a" stroke-width="0.7"/>
<rect x="316.13" y="570.31" width="2" height="4.69" fill="#16a34a" opacity="0.55"/>
<line x1="322.97" y1="154.44" x2="322.97" y2="161.94" stroke="#16a34a" stroke-width="0.7"/>
<rect x="321.97" y="565.35" width="2" height="9.65" fill="#16a34a" opacity="0.55"/>
<line x1="328.81" y1="143.82" x2="328.81" y2="152.94" stroke="#dc2626" stroke-width="0.7"/>
<rect x="327.81" y="565.86" width="2" height="9.14" fill="#dc2626" opacity="0.55"/>
<line x1="334.64" y1="138.74" x2="334.64" y2="156.63" stroke="#dc2626" stroke-width="0.7"/>
<rect x="333.64" y="563.67" width="2" height="11.33" fill="#dc2626" opacity="0.55"/>
<line x1="340.48" y1="148.79" x2="340.48" y2="162.87" stroke="#dc2626" stroke-width="0.7"/>
<rect x="339.48" y="563.78" width="2" height="11.22" fill="#dc2626" opacity="0.55"/>
<line x1="346.31" y1="164.25" x2="346.31" y2="174.99" stroke="#16a34a" stroke-width="0.7"/>
<rect x="345.31" y="562.93" width="2" height="12.07" fill="#16a34a" opacity="0.55"/>
<line x1="352.15" y1="175.45" x2="352.15" y2="187.68" stroke="#dc2626" stroke-width="0.7"/>
<rect x="351.15" y="560.84" width="2" height="14.16" fill="#dc2626" opacity="0.55"/>
<line x1="357.99" y1="182.83" x2="357.99" y2="194.38" stroke="#dc2626" stroke-width="0.7"/>
<rect x="356.99" y="560.88" width="2" height="14.12" fill="#dc2626" opacity="0.55"/>
<line x1="363.82" y1="191.38" x2="363.82" y2="210.53" stroke="#dc2626" stroke-width="0.7"/>
<rect x="362.82" y="559.72" width="2" height="15.28" fill="#dc2626" opacity="0.55"/>
<line x1="369.66" y1="196.22" x2="369.66" y2="213.07" stroke="#16a34a" stroke-width="0.7"/>
<rect x="368.66" y="565.59" width="2" height="9.41" fill="#16a34a" opacity="0.55"/>
<line x1="375.50" y1="175.33" x2="375.50" y2="186.99" stroke="#16a34a" stroke-width="0.7"/>
<rect x="374.50" y="565.62" width="2" height="9.38" fill="#16a34a" opacity="0.55"/>
<line x1="381.33" y1="167.48" x2="381.33" y2="176.83" stroke="#16a34a" stroke-width="0.7"/>
<rect x="380.33" y="567.51" width="2" height="7.49" fill="#16a34a" opacity="0.55"/>
<line x1="387.17" y1="158.71" x2="387.17" y2="173.25" stroke="#dc2626" stroke-width="0.7"/>
<rect x="386.17" y="560.42" width="2" height="14.58" fill="#dc2626" opacity="0.55"/>
<line x1="393.01" y1="165.98" x2="393.01" y2="193.22" stroke="#dc2626" stroke-width="0.7"/>
<rect x="392.01" y="561.23" width="2" height="13.77" fill="#dc2626" opacity="0.55"/>
<line x1="398.84" y1="183.07" x2="398.84" y2="203.61" stroke="#dc2626" stroke-width="0.7"/>
<rect x="397.84" y="559.09" width="2" height="15.91" fill="#dc2626" opacity="0.55"/>
<line x1="404.68" y1="184.91" x2="404.68" y2="194.84" stroke="#dc2626" stroke-width="0.7"/>
<rect x="403.68" y="563.44" width="2" height="11.56" fill="#dc2626" opacity="0.55"/>
<line x1="410.52" y1="198.88" x2="410.52" y2="209.73" stroke="#dc2626" stroke-width="0.7"/>
<rect x="409.52" y="557.19" width="2" height="17.81" fill="#dc2626" opacity="0.55"/>
<line x1="416.35" y1="150.52" x2="416.35" y2="169.33" stroke="#dc2626" stroke-width="0.7"/>
<rect x="415.35" y="549.34" width="2" height="25.66" fill="#dc2626" opacity="0.55"/>
<line x1="422.19" y1="155.48" x2="422.19" y2="168.87" stroke="#dc2626" stroke-width="0.7"/>
<rect x="421.19" y="555.42" width="2" height="19.58" fill="#dc2626" opacity="0.55"/>
<line x1="428.03" y1="176.49" x2="428.03" y2="187.80" stroke="#dc2626" stroke-width="0.7"/>
<rect x="427.03" y="559.41" width="2" height="15.59" fill="#dc2626" opacity="0.55"/>
<line x1="433.86" y1="220.00" x2="433.86" y2="237.66" stroke="#16a34a" stroke-width="0.7"/>
<rect x="432.86" y="545.80" width="2" height="29.20" fill="#16a34a" opacity="0.55"/>
<line x1="439.70" y1="223.92" x2="439.70" y2="235.81" stroke="#16a34a" stroke-width="0.7"/>
<rect x="438.70" y="560.58" width="2" height="14.42" fill="#16a34a" opacity="0.55"/>
<line x1="445.53" y1="222.42" x2="445.53" y2="233.62" stroke="#16a34a" stroke-width="0.7"/>
<rect x="444.53" y="566.80" width="2" height="8.20" fill="#16a34a" opacity="0.55"/>
<line x1="451.37" y1="194.03" x2="451.37" y2="213.54" stroke="#16a34a" stroke-width="0.7"/>
<rect x="450.37" y="556.34" width="2" height="18.66" fill="#16a34a" opacity="0.55"/>
<line x1="457.21" y1="192.88" x2="457.21" y2="199.69" stroke="#dc2626" stroke-width="0.7"/>
<rect x="456.21" y="565.99" width="2" height="9.01" fill="#dc2626" opacity="0.55"/>
<line x1="463.04" y1="195.41" x2="463.04" y2="203.15" stroke="#16a34a" stroke-width="0.7"/>
<rect x="462.04" y="567.25" width="2" height="7.75" fill="#16a34a" opacity="0.55"/>
<line x1="468.88" y1="185.26" x2="468.88" y2="191.84" stroke="#16a34a" stroke-width="0.7"/>
<rect x="467.88" y="566.31" width="2" height="8.69" fill="#16a34a" opacity="0.55"/>
<line x1="474.72" y1="180.53" x2="474.72" y2="194.61" stroke="#dc2626" stroke-width="0.7"/>
<rect x="473.72" y="562.45" width="2" height="12.55" fill="#dc2626" opacity="0.55"/>
<line x1="480.55" y1="167.25" x2="480.55" y2="177.41" stroke="#16a34a" stroke-width="0.7"/>
<rect x="479.55" y="561.39" width="2" height="13.61" fill="#16a34a" opacity="0.55"/>
<line x1="486.39" y1="157.79" x2="486.39" y2="171.06" stroke="#16a34a" stroke-width="0.7"/>
<rect x="485.39" y="566.04" width="2" height="8.96" fill="#16a34a" opacity="0.55"/>
<line x1="492.23" y1="164.14" x2="492.23" y2="172.33" stroke="#dc2626" stroke-width="0.7"/>
<rect x="491.23" y="562.07" width="2" height="12.93" fill="#dc2626" opacity="0.55"/>
<line x1="498.06" y1="175.22" x2="498.06" y2="186.99" stroke="#dc2626" stroke-width="0.7"/>
<rect x="497.06" y="561.17" width="2" height="13.83" fill="#dc2626" opacity="0.55"/>
<line x1="503.90" y1="176.60" x2="503.90" y2="191.49" stroke="#dc2626" stroke-width="0.7"/>
<rect x="502.90" y="565.64" width="2" height="9.36" fill="#dc2626" opacity="0.55"/>
<line x1="509.74" y1="172.45" x2="509.74" y2="180.41" stroke="#16a34a" stroke-width="0.7"/>
<rect x="508.74" y="569.79" width="2" height="5.21" fill="#16a34a" opacity="0.55"/>
<line x1="515.57" y1="169.45" x2="515.57" y2="178.33" stroke="#dc2626" stroke-width="0.7"/>
<rect x="514.57" y="560.03" width="2" height="14.97" fill="#dc2626" opacity="0.55"/>
<line x1="521.41" y1="190.11" x2="521.41" y2="213.88" stroke="#dc2626" stroke-width="0.7"/>
<rect x="520.41" y="557.09" width="2" height="17.91" fill="#dc2626" opacity="0.55"/>
<line x1="527.25" y1="211.00" x2="527.25" y2="227.73" stroke="#dc2626" stroke-width="0.7"/>
<rect x="526.25" y="560.03" width="2" height="14.97" fill="#dc2626" opacity="0.55"/>
<line x1="533.08" y1="200.72" x2="533.08" y2="215.04" stroke="#16a34a" stroke-width="0.7"/>
<rect x="532.08" y="563.16" width="2" height="11.84" fill="#16a34a" opacity="0.55"/>
<line x1="538.92" y1="224.15" x2="538.92" y2="235.93" stroke="#dc2626" stroke-width="0.7"/>
<rect x="537.92" y="560.55" width="2" height="14.45" fill="#dc2626" opacity="0.55"/>
<line x1="544.75" y1="211.57" x2="544.75" y2="219.65" stroke="#16a34a" stroke-width="0.7"/>
<rect x="543.75" y="563.44" width="2" height="11.56" fill="#16a34a" opacity="0.55"/>
<line x1="550.59" y1="197.84" x2="550.59" y2="207.88" stroke="#dc2626" stroke-width="0.7"/>
<rect x="549.59" y="565.45" width="2" height="9.55" fill="#dc2626" opacity="0.55"/>
<line x1="556.43" y1="206.50" x2="556.43" y2="221.61" stroke="#16a34a" stroke-width="0.7"/>
<rect x="555.43" y="564.42" width="2" height="10.58" fill="#16a34a" opacity="0.55"/>
<line x1="562.26" y1="195.30" x2="562.26" y2="212.15" stroke="#16a34a" stroke-width="0.7"/>
<rect x="561.26" y="563.11" width="2" height="11.89" fill="#16a34a" opacity="0.55"/>
<line x1="568.10" y1="182.60" x2="568.10" y2="194.95" stroke="#16a34a" stroke-width="0.7"/>
<rect x="567.10" y="564.12" width="2" height="10.88" fill="#16a34a" opacity="0.55"/>
<line x1="573.94" y1="190.68" x2="573.94" y2="208.92" stroke="#16a34a" stroke-width="0.7"/>
<rect x="572.94" y="565.02" width="2" height="9.98" fill="#16a34a" opacity="0.55"/>
<line x1="579.77" y1="194.15" x2="579.77" y2="206.61" stroke="#16a34a" stroke-width="0.7"/>
<rect x="578.77" y="566.95" width="2" height="8.05" fill="#16a34a" opacity="0.55"/>
<line x1="585.61" y1="199.92" x2="585.61" y2="217.23" stroke="#16a34a" stroke-width="0.7"/>
<rect x="584.61" y="561.93" width="2" height="13.07" fill="#16a34a" opacity="0.55"/>
<line x1="591.45" y1="193.34" x2="591.45" y2="216.77" stroke="#dc2626" stroke-width="0.7"/>
<rect x="590.45" y="562.57" width="2" height="12.43" fill="#dc2626" opacity="0.55"/>
<line x1="597.28" y1="205.80" x2="597.28" y2="219.65" stroke="#dc2626" stroke-width="0.7"/>
<rect x="596.28" y="566.84" width="2" height="8.16" fill="#dc2626" opacity="0.55"/>
<line x1="603.12" y1="206.26" x2="603.12" y2="216.54" stroke="#dc2626" stroke-width="0.7"/>
<rect x="602.12" y="564.23" width="2" height="10.77" fill="#dc2626" opacity="0.55"/>
<line x1="608.96" y1="200.61" x2="608.96" y2="209.27" stroke="#16a34a" stroke-width="0.7"/>
<rect x="607.96" y="567.63" width="2" height="7.37" fill="#16a34a" opacity="0.55"/>
<line x1="614.79" y1="213.77" x2="614.79" y2="227.96" stroke="#16a34a" stroke-width="0.7"/>
<rect x="613.79" y="564.56" width="2" height="10.44" fill="#16a34a" opacity="0.55"/>
<line x1="620.63" y1="205.23" x2="620.63" y2="211.92" stroke="#16a34a" stroke-width="0.7"/>
<rect x="619.63" y="571.08" width="2" height="3.92" fill="#16a34a" opacity="0.55"/>
<line x1="626.47" y1="204.99" x2="626.47" y2="220.69" stroke="#16a34a" stroke-width="0.7"/>
<rect x="625.47" y="565.34" width="2" height="9.66" fill="#16a34a" opacity="0.55"/>
<line x1="632.30" y1="206.84" x2="632.30" y2="217.58" stroke="#16a34a" stroke-width="0.7"/>
<rect x="631.30" y="564.51" width="2" height="10.49" fill="#16a34a" opacity="0.55"/>
<line x1="638.14" y1="204.07" x2="638.14" y2="213.88" stroke="#16a34a" stroke-width="0.7"/>
<rect x="637.14" y="563.64" width="2" height="11.36" fill="#16a34a" opacity="0.55"/>
<line x1="643.97" y1="197.72" x2="643.97" y2="204.99" stroke="#16a34a" stroke-width="0.7"/>
<rect x="642.97" y="565.35" width="2" height="9.65" fill="#16a34a" opacity="0.55"/>
<line x1="649.81" y1="196.57" x2="649.81" y2="215.61" stroke="#16a34a" stroke-width="0.7"/>
<rect x="648.81" y="557.92" width="2" height="17.08" fill="#16a34a" opacity="0.55"/>
<line x1="655.65" y1="210.77" x2="655.65" y2="225.65" stroke="#dc2626" stroke-width="0.7"/>
<rect x="654.65" y="561.53" width="2" height="13.47" fill="#dc2626" opacity="0.55"/>
<line x1="661.48" y1="246.55" x2="661.48" y2="264.55" stroke="#dc2626" stroke-width="0.7"/>
<rect x="660.48" y="551.04" width="2" height="23.96" fill="#dc2626" opacity="0.55"/>
<line x1="667.32" y1="265.94" x2="667.32" y2="276.44" stroke="#16a34a" stroke-width="0.7"/>
<rect x="666.32" y="559.28" width="2" height="15.72" fill="#16a34a" opacity="0.55"/>
<line x1="673.16" y1="268.36" x2="673.16" y2="283.36" stroke="#dc2626" stroke-width="0.7"/>
<rect x="672.16" y="559.37" width="2" height="15.63" fill="#dc2626" opacity="0.55"/>
<line x1="678.99" y1="277.02" x2="678.99" y2="285.33" stroke="#16a34a" stroke-width="0.7"/>
<rect x="677.99" y="564.38" width="2" height="10.62" fill="#16a34a" opacity="0.55"/>
<line x1="684.83" y1="277.59" x2="684.83" y2="291.90" stroke="#16a34a" stroke-width="0.7"/>
<rect x="683.83" y="559.45" width="2" height="15.55" fill="#16a34a" opacity="0.55"/>
<line x1="690.67" y1="255.55" x2="690.67" y2="272.86" stroke="#16a34a" stroke-width="0.7"/>
<rect x="689.67" y="560.17" width="2" height="14.83" fill="#16a34a" opacity="0.55"/>
<line x1="696.50" y1="260.51" x2="696.50" y2="281.86" stroke="#dc2626" stroke-width="0.7"/>
<rect x="695.50" y="556.18" width="2" height="18.82" fill="#dc2626" opacity="0.55"/>
<line x1="702.34" y1="263.74" x2="702.34" y2="274.01" stroke="#dc2626" stroke-width="0.7"/>
<rect x="701.34" y="561.56" width="2" height="13.44" fill="#dc2626" opacity="0.55"/>
<line x1="708.18" y1="263.74" x2="708.18" y2="273.67" stroke="#16a34a" stroke-width="0.7"/>
<rect x="707.18" y="563.75" width="2" height="11.25" fill="#16a34a" opacity="0.55"/>
<line x1="714.01" y1="262.36" x2="714.01" y2="270.32" stroke="#16a34a" stroke-width="0.7"/>
<rect x="713.01" y="567.80" width="2" height="7.20" fill="#16a34a" opacity="0.55"/>
<line x1="719.85" y1="270.78" x2="719.85" y2="278.29" stroke="#dc2626" stroke-width="0.7"/>
<rect x="718.85" y="565.88" width="2" height="9.12" fill="#dc2626" opacity="0.55"/>
<line x1="725.69" y1="267.78" x2="725.69" y2="274.59" stroke="#16a34a" stroke-width="0.7"/>
<rect x="724.69" y="567.34" width="2" height="7.66" fill="#16a34a" opacity="0.55"/>
<line x1="731.52" y1="248.39" x2="731.52" y2="260.63" stroke="#16a34a" stroke-width="0.7"/>
<rect x="730.52" y="564.41" width="2" height="10.59" fill="#16a34a" opacity="0.55"/>
<line x1="737.36" y1="249.43" x2="737.36" y2="257.28" stroke="#16a34a" stroke-width="0.7"/>
<rect x="736.36" y="566.20" width="2" height="8.80" fill="#16a34a" opacity="0.55"/>
<line x1="743.19" y1="239.04" x2="743.19" y2="250.24" stroke="#dc2626" stroke-width="0.7"/>
<rect x="742.19" y="565.14" width="2" height="9.86" fill="#dc2626" opacity="0.55"/>
<line x1="749.03" y1="251.05" x2="749.03" y2="266.05" stroke="#dc2626" stroke-width="0.7"/>
<rect x="748.03" y="561.38" width="2" height="13.62" fill="#dc2626" opacity="0.55"/>
<line x1="754.87" y1="262.24" x2="754.87" y2="275.98" stroke="#16a34a" stroke-width="0.7"/>
<rect x="753.87" y="557.87" width="2" height="17.13" fill="#16a34a" opacity="0.55"/>
<line x1="760.70" y1="263.74" x2="760.70" y2="273.78" stroke="#16a34a" stroke-width="0.7"/>
<rect x="759.70" y="564.28" width="2" height="10.72" fill="#16a34a" opacity="0.55"/>
<line x1="766.54" y1="278.40" x2="766.54" y2="284.98" stroke="#16a34a" stroke-width="0.7"/>
<rect x="765.54" y="565.05" width="2" height="9.95" fill="#16a34a" opacity="0.55"/>
<line x1="772.38" y1="284.17" x2="772.38" y2="295.83" stroke="#dc2626" stroke-width="0.7"/>
<rect x="771.38" y="562.92" width="2" height="12.08" fill="#dc2626" opacity="0.55"/>
<line x1="778.21" y1="296.87" x2="778.21" y2="304.83" stroke="#16a34a" stroke-width="0.7"/>
<rect x="777.21" y="565.49" width="2" height="9.51" fill="#16a34a" opacity="0.55"/>
<line x1="784.05" y1="295.94" x2="784.05" y2="313.83" stroke="#dc2626" stroke-width="0.7"/>
<rect x="783.05" y="563.28" width="2" height="11.72" fill="#dc2626" opacity="0.55"/>
<line x1="789.89" y1="299.41" x2="789.89" y2="313.72" stroke="#16a34a" stroke-width="0.7"/>
<rect x="788.89" y="565.42" width="2" height="9.58" fill="#16a34a" opacity="0.55"/>
<line x1="795.72" y1="294.79" x2="795.72" y2="306.56" stroke="#dc2626" stroke-width="0.7"/>
<rect x="794.72" y="567.80" width="2" height="7.20" fill="#dc2626" opacity="0.55"/>
<line x1="801.56" y1="293.52" x2="801.56" y2="300.91" stroke="#16a34a" stroke-width="0.7"/>
<rect x="800.56" y="565.70" width="2" height="9.30" fill="#16a34a" opacity="0.55"/>
<line x1="807.40" y1="293.41" x2="807.40" y2="305.41" stroke="#dc2626" stroke-width="0.7"/>
<rect x="806.40" y="560.50" width="2" height="14.50" fill="#dc2626" opacity="0.55"/>
<line x1="813.23" y1="313.14" x2="813.23" y2="325.26" stroke="#dc2626" stroke-width="0.7"/>
<rect x="812.23" y="557.58" width="2" height="17.42" fill="#dc2626" opacity="0.55"/>
<line x1="819.07" y1="341.07" x2="819.07" y2="352.61" stroke="#dc2626" stroke-width="0.7"/>
<rect x="818.07" y="554.20" width="2" height="20.80" fill="#dc2626" opacity="0.55"/>
<line x1="824.91" y1="332.76" x2="824.91" y2="348.92" stroke="#dc2626" stroke-width="0.7"/>
<rect x="823.91" y="559.95" width="2" height="15.05" fill="#dc2626" opacity="0.55"/>
<line x1="830.74" y1="341.77" x2="830.74" y2="356.54" stroke="#16a34a" stroke-width="0.7"/>
<rect x="829.74" y="560.37" width="2" height="14.63" fill="#16a34a" opacity="0.55"/>
<line x1="836.58" y1="356.54" x2="836.58" y2="373.51" stroke="#dc2626" stroke-width="0.7"/>
<rect x="835.58" y="559.20" width="2" height="15.80" fill="#dc2626" opacity="0.55"/>
<line x1="842.42" y1="363.23" x2="842.42" y2="386.55" stroke="#dc2626" stroke-width="0.7"/>
<rect x="841.42" y="558.16" width="2" height="16.84" fill="#dc2626" opacity="0.55"/>
<line x1="848.25" y1="377.55" x2="848.25" y2="393.24" stroke="#16a34a" stroke-width="0.7"/>
<rect x="847.25" y="557.92" width="2" height="17.08" fill="#16a34a" opacity="0.55"/>
<line x1="854.09" y1="392.78" x2="854.09" y2="416.10" stroke="#16a34a" stroke-width="0.7"/>
<rect x="853.09" y="553.25" width="2" height="21.75" fill="#16a34a" opacity="0.55"/>
<line x1="859.92" y1="407.32" x2="859.92" y2="445.53" stroke="#dc2626" stroke-width="0.7"/>
<rect x="858.92" y="505.00" width="2" height="70.00" fill="#dc2626" opacity="0.55"/>
<line x1="865.76" y1="368.43" x2="865.76" y2="410.09" stroke="#16a34a" stroke-width="0.7"/>
<rect x="864.76" y="517.00" width="2" height="58.00" fill="#16a34a" opacity="0.55"/>
<line x1="871.60" y1="390.13" x2="871.60" y2="405.36" stroke="#16a34a" stroke-width="0.7"/>
<rect x="870.60" y="547.75" width="2" height="27.25" fill="#16a34a" opacity="0.55"/>
<line x1="877.43" y1="393.36" x2="877.43" y2="403.05" stroke="#16a34a" stroke-width="0.7"/>
<rect x="876.43" y="558.39" width="2" height="16.61" fill="#16a34a" opacity="0.55"/>
<line x1="883.27" y1="404.67" x2="883.27" y2="420.71" stroke="#16a34a" stroke-width="0.7"/>
<rect x="882.27" y="550.78" width="2" height="24.22" fill="#16a34a" opacity="0.55"/>
<line x1="889.11" y1="407.09" x2="889.11" y2="429.95" stroke="#dc2626" stroke-width="0.7"/>
<rect x="888.11" y="547.51" width="2" height="27.49" fill="#dc2626" opacity="0.55"/>
<line x1="894.94" y1="414.02" x2="894.94" y2="429.60" stroke="#16a34a" stroke-width="0.7"/>
<rect x="893.94" y="549.80" width="2" height="25.20" fill="#16a34a" opacity="0.55"/>
<line x1="900.78" y1="419.10" x2="900.78" y2="431.45" stroke="#dc2626" stroke-width="0.7"/>
<rect x="899.78" y="554.78" width="2" height="20.22" fill="#dc2626" opacity="0.55"/>
<line x1="906.62" y1="408.48" x2="906.62" y2="418.29" stroke="#16a34a" stroke-width="0.7"/>
<rect x="905.62" y="556.46" width="2" height="18.54" fill="#16a34a" opacity="0.55"/>
<line x1="912.45" y1="404.67" x2="912.45" y2="414.71" stroke="#16a34a" stroke-width="0.7"/>
<rect x="911.45" y="559.25" width="2" height="15.75" fill="#16a34a" opacity="0.55"/>
<line x1="918.29" y1="413.56" x2="918.29" y2="424.17" stroke="#dc2626" stroke-width="0.7"/>
<rect x="917.29" y="556.52" width="2" height="18.48" fill="#dc2626" opacity="0.55"/>
<line x1="924.13" y1="447.26" x2="924.13" y2="456.61" stroke="#dc2626" stroke-width="0.7"/>
<rect x="923.13" y="548.64" width="2" height="26.36" fill="#dc2626" opacity="0.55"/>
<line x1="929.96" y1="439.99" x2="929.96" y2="447.84" stroke="#16a34a" stroke-width="0.7"/>
<rect x="928.96" y="559.60" width="2" height="15.40" fill="#16a34a" opacity="0.55"/>
<line x1="935.80" y1="439.64" x2="935.80" y2="455.45" stroke="#dc2626" stroke-width="0.7"/>
<rect x="934.80" y="555.63" width="2" height="19.37" fill="#dc2626" opacity="0.55"/>
<line x1="941.64" y1="457.99" x2="941.64" y2="473.92" stroke="#16a34a" stroke-width="0.7"/>
<rect x="940.64" y="538.28" width="2" height="36.72" fill="#16a34a" opacity="0.55"/>
<line x1="947.47" y1="470.23" x2="947.47" y2="485.00" stroke="#16a34a" stroke-width="0.7"/>
<rect x="946.47" y="547.74" width="2" height="27.26" fill="#16a34a" opacity="0.55"/>
<line x1="953.31" y1="466.07" x2="953.31" y2="477.96" stroke="#16a34a" stroke-width="0.7"/>
<rect x="952.31" y="550.67" width="2" height="24.33" fill="#16a34a" opacity="0.55"/>
<line x1="959.14" y1="447.84" x2="959.14" y2="459.84" stroke="#16a34a" stroke-width="0.7"/>
<rect x="958.14" y="552.38" width="2" height="22.62" fill="#16a34a" opacity="0.55"/>
<line x1="964.98" y1="434.79" x2="964.98" y2="450.84" stroke="#16a34a" stroke-width="0.7"/>
<rect x="963.98" y="555.65" width="2" height="19.35" fill="#16a34a" opacity="0.55"/>
<line x1="970.82" y1="426.25" x2="970.82" y2="441.72" stroke="#16a34a" stroke-width="0.7"/>
<rect x="969.82" y="556.22" width="2" height="18.78" fill="#16a34a" opacity="0.55"/>
<line x1="976.65" y1="421.87" x2="976.65" y2="439.99" stroke="#dc2626" stroke-width="0.7"/>
<rect x="975.65" y="547.21" width="2" height="27.79" fill="#dc2626" opacity="0.55"/>
<line x1="982.49" y1="438.26" x2="982.49" y2="450.03" stroke="#16a34a" stroke-width="0.7"/>
<rect x="981.49" y="565.36" width="2" height="9.64" fill="#16a34a" opacity="0.55"/>
<line x1="988.33" y1="442.76" x2="988.33" y2="464.46" stroke="#dc2626" stroke-width="0.7"/>
<rect x="987.33" y="558.12" width="2" height="16.88" fill="#dc2626" opacity="0.55"/>
<line x1="994.16" y1="446.57" x2="994.16" y2="464.11" stroke="#16a34a" stroke-width="0.7"/>
<rect x="993.16" y="554.90" width="2" height="20.10" fill="#16a34a" opacity="0.55"/>
<line x1="1000.00" y1="445.76" x2="1000.00" y2="464.34" stroke="#dc2626" stroke-width="0.7"/>
<rect x="999.00" y="548.60" width="2" height="26.40" fill="#dc2626" opacity="0.55"/>
<polyline points="72.00,111.04 77.84,131.47 83.67,138.86 89.51,134.13 95.35,120.62 101.18,132.51 107.02,115.43 112.86,104.00 118.69,107.12 124.53,121.78 130.36,129.05 136.20,161.25 142.04,162.64 147.87,150.29 153.71,131.01 159.55,113.01 165.38,107.58 171.22,143.94 177.06,132.40 182.89,137.47 188.73,127.90 194.57,123.86 200.40,123.97 206.24,128.59 212.08,134.24 217.91,128.47 223.75,134.36 229.58,124.78 235.42,126.28 241.26,123.74 247.09,116.47 252.93,116.47 258.77,121.89 264.60,119.70 270.44,137.94 276.28,136.78 282.11,143.82 287.95,180.53 293.79,170.60 299.62,184.10 305.46,174.18 311.30,174.52 317.13,168.64 322.97,155.36 328.81,151.09 334.64,154.33 340.48,159.52 346.31,166.56 352.15,184.22 357.99,190.57 363.82,209.61 369.66,198.53 375.50,181.56 381.33,169.21 387.17,167.48 393.01,185.49 398.84,203.61 404.68,191.95 410.52,202.57 416.35,163.10 422.19,159.87 428.03,182.37 433.86,221.04 439.70,231.43 445.53,224.96 451.37,194.38 457.21,196.80 463.04,201.19 468.88,189.30 474.72,183.99 480.55,174.52 486.39,158.13 492.23,166.68 498.06,185.14 503.90,190.80 509.74,173.02 515.57,175.33 521.41,204.42 527.25,218.84 533.08,204.30 538.92,230.96 544.75,214.81 550.59,206.26 556.43,212.27 562.26,196.22 568.10,189.76 573.94,194.84 579.77,200.96 585.61,205.80 591.45,212.50 597.28,217.92 603.12,210.77 608.96,201.42 614.79,214.00 620.63,206.84 626.47,206.03 632.30,208.34 638.14,204.42 643.97,201.76 649.81,203.96 655.65,217.46 661.48,254.51 667.32,270.09 673.16,275.75 678.99,278.63 684.83,280.02 690.67,260.40 696.50,276.90 702.34,269.98 708.18,264.32 714.01,262.59 719.85,274.94 725.69,269.28 731.52,248.62 737.36,251.97 743.19,247.47 749.03,257.28 754.87,267.90 760.70,267.90 766.54,279.21 772.38,294.67 778.21,299.29 784.05,313.72 789.89,306.22 795.72,304.95 801.56,293.52 807.40,302.99 813.23,324.34 819.07,350.19 824.91,339.57 830.74,346.38 836.58,368.66 842.42,381.24 848.25,385.97 854.09,396.70 859.92,423.25 865.76,370.39 871.60,394.17 877.43,394.05 883.27,411.71 889.11,422.10 894.94,418.98 900.78,431.45 906.62,409.40 912.45,406.17 918.29,417.83 924.13,451.87 929.96,442.64 935.80,448.99 941.64,460.76 947.47,476.57 953.31,466.99 959.14,449.57 964.98,435.37 970.82,426.83 976.65,439.41 982.49,444.95 988.33,458.34 994.16,450.14 1000.00,458.92" fill="none" stroke="#2563eb" stroke-width="1.4"/>
<text x="1030.0" y="122.0" font-family="ui-monospace, SFMono-Regular, Menlo, monospace" font-size="11" fill="#0f172a">negative control</text>
<text x="1030.0" y="143.0" font-family="ui-monospace, SFMono-Regular, Menlo, monospace" font-size="9" fill="#475569">no target Pattern available</text>
<text x="1030.0" y="158.0" font-family="ui-monospace, SFMono-Regular, Menlo, monospace" font-size="9" fill="#475569">in prior 80 sessions</text>
<text x="1030.0" y="185.0" font-family="ui-monospace, SFMono-Regular, Menlo, monospace" font-size="9" fill="#475569">anchor: 2021-03-31</text>
<text x="72.0" y="600.0" font-family="ui-monospace, SFMono-Regular, Menlo, monospace" font-size="10" fill="#64748b">development source hash: a229b6091c9f4ead506256015da1ed32851f3f614c96a40a520056ec3dd233b7</text>
<text x="72.0" y="619.0" font-family="ui-monospace, SFMono-Regular, Menlo, monospace" font-size="10" fill="#64748b">Evidence presentation only; detector facts remain authoritative; no trade semantics.</text>
</svg>