<svg xmlns="http://www.w3.org/2000/svg" viewBox="0 0 1320 640">
<rect width="100%" height="100%" fill="#ffffff"/>
<rect x="72" y="92" width="928" height="393" fill="#f8fafc" stroke="#cbd5e1"/>
<rect x="72" y="505" width="928" height="70" fill="#f8fafc" stroke="#cbd5e1"/>
<rect x="1018" y="92" width="270" height="483" fill="#ffffff" stroke="#cbd5e1"/>
<text x="72.0" y="28.0" font-family="ui-monospace, SFMono-Regular, Menlo, monospace" font-size="18" fill="#0f172a">AAPL · double_top · invalidated</text>
<text x="72.0" y="52.0" font-family="ui-monospace, SFMono-Regular, Menlo, monospace" font-size="13" fill="#334155">2018-11-15 → 2019-04-15 · EQUITY · DETECTED_CANDIDATE</text>
<text x="72.0" y="72.0" font-family="ui-monospace, SFMono-Regular, Menlo, monospace" font-size="11" fill="#64748b">case=review_dcbdada719e73983d6a5 · human review: UNSET</text>
<line x1="72.00" y1="162.28" x2="72.00" y2="194.84" stroke="#16a34a" stroke-width="0.7"/>
<rect x="71.00" y="540.30" width="2" height="34.70" fill="#16a34a" opacity="0.55"/>
<line x1="81.19" y1="142.90" x2="81.19" y2="178.30" stroke="#16a34a" stroke-width="0.7"/>
<rect x="80.19" y="546.88" width="2" height="28.12" fill="#16a34a" opacity="0.55"/>
<line x1="90.38" y1="170.29" x2="90.38" y2="207.24" stroke="#dc2626" stroke-width="0.7"/>
<rect x="89.38" y="544.31" width="2" height="30.69" fill="#dc2626" opacity="0.55"/>
<line x1="99.56" y1="229.98" x2="99.56" y2="268.48" stroke="#dc2626" stroke-width="0.7"/>
<rect x="98.56" y="523.17" width="2" height="51.83" fill="#dc2626" opacity="0.55"/>
<line x1="108.75" y1="237.73" x2="108.75" y2="261.76" stroke="#dc2626" stroke-width="0.7"/>
<rect x="107.75" y="551.90" width="2" height="23.10" fill="#dc2626" opacity="0.55"/>
<line x1="117.94" y1="261.50" x2="117.94" y2="290.70" stroke="#dc2626" stroke-width="0.7"/>
<rect x="116.94" y="556.93" width="2" height="18.07" fill="#dc2626" opacity="0.55"/>
<line x1="127.13" y1="272.09" x2="127.13" y2="302.32" stroke="#16a34a" stroke-width="0.7"/>
<rect x="126.13" y="539.98" width="2" height="35.02" fill="#16a34a" opacity="0.55"/>
<line x1="136.32" y1="273.38" x2="136.32" y2="298.45" stroke="#16a34a" stroke-width="0.7"/>
<rect x="135.32" y="544.14" width="2" height="30.86" fill="#16a34a" opacity="0.55"/>
<line x1="145.50" y1="231.27" x2="145.50" y2="272.35" stroke="#16a34a" stroke-width="0.7"/>
<rect x="144.50" y="539.09" width="2" height="35.91" fill="#16a34a" opacity="0.55"/>
<line x1="154.69" y1="221.45" x2="154.69" y2="254.26" stroke="#dc2626" stroke-width="0.7"/>
<rect x="153.69" y="545.20" width="2" height="29.80" fill="#dc2626" opacity="0.55"/>
<line x1="163.88" y1="237.47" x2="163.88" y2="258.66" stroke="#dc2626" stroke-width="0.7"/>
<rect x="162.88" y="551.17" width="2" height="23.83" fill="#dc2626" opacity="0.55"/>
<line x1="173.07" y1="207.50" x2="173.07" y2="231.79" stroke="#16a34a" stroke-width="0.7"/>
<rect x="172.07" y="545.13" width="2" height="29.87" fill="#16a34a" opacity="0.55"/>
<line x1="182.26" y1="224.03" x2="182.26" y2="263.57" stroke="#dc2626" stroke-width="0.7"/>
<rect x="181.26" y="544.46" width="2" height="30.54" fill="#dc2626" opacity="0.55"/>
<line x1="191.45" y1="273.13" x2="191.45" y2="301.55" stroke="#16a34a" stroke-width="0.7"/>
<rect x="190.45" y="542.53" width="2" height="32.47" fill="#16a34a" opacity="0.55"/>
<line x1="200.63" y1="275.19" x2="200.63" y2="314.98" stroke="#dc2626" stroke-width="0.7"/>
<rect x="199.63" y="543.35" width="2" height="31.65" fill="#dc2626" opacity="0.55"/>
<line x1="209.82" y1="303.62" x2="209.82" y2="347.28" stroke="#16a34a" stroke-width="0.7"/>
<rect x="208.82" y="525.56" width="2" height="49.44" fill="#16a34a" opacity="0.55"/>
<line x1="219.01" y1="292.50" x2="219.01" y2="323.51" stroke="#dc2626" stroke-width="0.7"/>
<rect x="218.01" y="540.35" width="2" height="34.65" fill="#dc2626" opacity="0.55"/>
<line x1="228.20" y1="291.73" x2="228.20" y2="310.33" stroke="#dc2626" stroke-width="0.7"/>
<rect x="227.20" y="548.60" width="2" height="26.40" fill="#dc2626" opacity="0.55"/>
<line x1="237.39" y1="287.60" x2="237.39" y2="306.97" stroke="#16a34a" stroke-width="0.7"/>
<rect x="236.39" y="549.54" width="2" height="25.46" fill="#16a34a" opacity="0.55"/>
<line x1="246.57" y1="310.07" x2="246.57" y2="334.62" stroke="#dc2626" stroke-width="0.7"/>
<rect x="245.57" y="543.12" width="2" height="31.88" fill="#dc2626" opacity="0.55"/>
<line x1="255.76" y1="314.73" x2="255.76" y2="351.16" stroke="#dc2626" stroke-width="0.7"/>
<rect x="254.76" y="542.08" width="2" height="32.92" fill="#dc2626" opacity="0.55"/>
<line x1="264.95" y1="320.15" x2="264.95" y2="340.31" stroke="#16a34a" stroke-width="0.7"/>
<rect x="263.95" y="548.98" width="2" height="26.02" fill="#16a34a" opacity="0.55"/>
<line x1="274.14" y1="320.67" x2="274.14" y2="374.67" stroke="#dc2626" stroke-width="0.7"/>
<rect x="273.14" y="539.99" width="2" height="35.01" fill="#dc2626" opacity="0.55"/>
<line x1="283.33" y1="355.03" x2="283.33" y2="398.96" stroke="#dc2626" stroke-width="0.7"/>
<rect x="282.33" y="523.80" width="2" height="51.20" fill="#dc2626" opacity="0.55"/>
<line x1="292.51" y1="380.61" x2="292.51" y2="435.65" stroke="#dc2626" stroke-width="0.7"/>
<rect x="291.51" y="518.50" width="2" height="56.50" fill="#dc2626" opacity="0.55"/>
<line x1="301.70" y1="423.25" x2="301.70" y2="455.29" stroke="#dc2626" stroke-width="0.7"/>
<rect x="300.70" y="546.18" width="2" height="28.82" fill="#dc2626" opacity="0.55"/>
<line x1="310.89" y1="386.56" x2="310.89" y2="454.51" stroke="#16a34a" stroke-width="0.7"/>
<rect x="309.89" y="531.10" width="2" height="43.90" fill="#16a34a" opacity="0.55"/>
<line x1="320.08" y1="389.66" x2="320.08" y2="432.81" stroke="#16a34a" stroke-width="0.7"/>
<rect x="319.08" y="534.12" width="2" height="40.88" fill="#16a34a" opacity="0.55"/>
<line x1="329.27" y1="378.29" x2="329.27" y2="403.87" stroke="#dc2626" stroke-width="0.7"/>
<rect x="328.27" y="542.33" width="2" height="32.67" fill="#dc2626" opacity="0.55"/>
<line x1="338.46" y1="372.86" x2="338.46" y2="391.47" stroke="#dc2626" stroke-width="0.7"/>
<rect x="337.46" y="549.33" width="2" height="25.67" fill="#dc2626" opacity="0.55"/>
<line x1="347.64" y1="376.22" x2="347.64" y2="405.93" stroke="#16a34a" stroke-width="0.7"/>
<rect x="346.64" y="550.46" width="2" height="24.54" fill="#16a34a" opacity="0.55"/>
<line x1="356.83" y1="460.97" x2="356.83" y2="485.00" stroke="#dc2626" stroke-width="0.7"/>
<rect x="355.83" y="505.00" width="2" height="70.00" fill="#dc2626" opacity="0.55"/>
<line x1="366.02" y1="442.63" x2="366.02" y2="473.37" stroke="#16a34a" stroke-width="0.7"/>
<rect x="365.02" y="530.22" width="2" height="44.78" fill="#16a34a" opacity="0.55"/>
<line x1="375.21" y1="440.82" x2="375.21" y2="459.68" stroke="#dc2626" stroke-width="0.7"/>
<rect x="374.21" y="531.14" width="2" height="43.86" fill="#dc2626" opacity="0.55"/>
<line x1="384.40" y1="421.44" x2="384.40" y2="442.88" stroke="#16a34a" stroke-width="0.7"/>
<rect x="383.40" y="543.49" width="2" height="31.51" fill="#16a34a" opacity="0.55"/>
<line x1="393.58" y1="404.13" x2="393.58" y2="435.65" stroke="#16a34a" stroke-width="0.7"/>
<rect x="392.58" y="538.64" width="2" height="36.36" fill="#16a34a" opacity="0.55"/>
<line x1="402.77" y1="407.74" x2="402.77" y2="427.64" stroke="#16a34a" stroke-width="0.7"/>
<rect x="401.77" y="550.08" width="2" height="24.92" fill="#16a34a" opacity="0.55"/>
<line x1="411.96" y1="409.29" x2="411.96" y2="423.50" stroke="#dc2626" stroke-width="0.7"/>
<rect x="410.96" y="554.57" width="2" height="20.43" fill="#dc2626" opacity="0.55"/>
<line x1="421.15" y1="425.06" x2="421.15" y2="438.23" stroke="#dc2626" stroke-width="0.7"/>
<rect x="420.15" y="551.49" width="2" height="23.51" fill="#dc2626" opacity="0.55"/>
<line x1="430.34" y1="411.36" x2="430.34" y2="433.07" stroke="#16a34a" stroke-width="0.7"/>
<rect x="429.34" y="554.63" width="2" height="20.37" fill="#16a34a" opacity="0.55"/>
<line x1="439.52" y1="395.34" x2="439.52" y2="413.94" stroke="#16a34a" stroke-width="0.7"/>
<rect x="438.52" y="552.02" width="2" height="22.98" fill="#16a34a" opacity="0.55"/>
<line x1="448.71" y1="383.71" x2="448.71" y2="412.14" stroke="#16a34a" stroke-width="0.7"/>
<rect x="447.71" y="551.06" width="2" height="23.94" fill="#16a34a" opacity="0.55"/>
<line x1="457.90" y1="382.42" x2="457.90" y2="394.82" stroke="#dc2626" stroke-width="0.7"/>
<rect x="456.90" y="550.44" width="2" height="24.56" fill="#dc2626" opacity="0.55"/>
<line x1="467.09" y1="389.92" x2="467.09" y2="416.27" stroke="#dc2626" stroke-width="0.7"/>
<rect x="466.09" y="553.28" width="2" height="21.72" fill="#dc2626" opacity="0.55"/>
<line x1="476.28" y1="399.99" x2="476.28" y2="422.21" stroke="#dc2626" stroke-width="0.7"/>
<rect x="475.28" y="557.21" width="2" height="17.79" fill="#dc2626" opacity="0.55"/>
<line x1="485.47" y1="404.38" x2="485.47" y2="421.95" stroke="#dc2626" stroke-width="0.7"/>
<rect x="484.47" y="556.45" width="2" height="18.55" fill="#dc2626" opacity="0.55"/>
<line x1="494.65" y1="380.87" x2="494.65" y2="405.42" stroke="#16a34a" stroke-width="0.7"/>
<rect x="493.65" y="548.20" width="2" height="26.80" fill="#16a34a" opacity="0.55"/>
<line x1="503.84" y1="392.50" x2="503.84" y2="409.55" stroke="#16a34a" stroke-width="0.7"/>
<rect x="502.84" y="555.57" width="2" height="19.43" fill="#16a34a" opacity="0.55"/>
<line x1="513.03" y1="380.87" x2="513.03" y2="406.71" stroke="#dc2626" stroke-width="0.7"/>
<rect x="512.03" y="547.61" width="2" height="27.39" fill="#dc2626" opacity="0.55"/>
<line x1="522.22" y1="328.94" x2="522.22" y2="367.18" stroke="#16a34a" stroke-width="0.7"/>
<rect x="521.22" y="525.84" width="2" height="49.16" fill="#16a34a" opacity="0.55"/>
<line x1="531.41" y1="310.59" x2="531.41" y2="339.27" stroke="#16a34a" stroke-width="0.7"/>
<rect x="530.41" y="547.19" width="2" height="27.81" fill="#16a34a" opacity="0.55"/>
<line x1="540.59" y1="310.85" x2="540.59" y2="330.49" stroke="#dc2626" stroke-width="0.7"/>
<rect x="539.59" y="552.27" width="2" height="22.73" fill="#dc2626" opacity="0.55"/>
<line x1="549.78" y1="293.28" x2="549.78" y2="321.70" stroke="#16a34a" stroke-width="0.7"/>
<rect x="548.78" y="550.89" width="2" height="24.11" fill="#16a34a" opacity="0.55"/>
<line x1="558.97" y1="271.32" x2="558.97" y2="288.89" stroke="#16a34a" stroke-width="0.7"/>
<rect x="557.97" y="546.60" width="2" height="28.40" fill="#16a34a" opacity="0.55"/>
<line x1="568.16" y1="268.22" x2="568.16" y2="285.79" stroke="#dc2626" stroke-width="0.7"/>
<rect x="567.16" y="553.18" width="2" height="21.82" fill="#dc2626" opacity="0.55"/>
<line x1="577.35" y1="278.55" x2="577.35" y2="301.81" stroke="#dc2626" stroke-width="0.7"/>
<rect x="576.35" y="551.09" width="2" height="23.91" fill="#dc2626" opacity="0.55"/>
<line x1="586.53" y1="299.74" x2="586.53" y2="314.47" stroke="#16a34a" stroke-width="0.7"/>
<rect x="585.53" y="556.51" width="2" height="18.49" fill="#16a34a" opacity="0.55"/>
<line x1="595.72" y1="296.38" x2="595.72" y2="309.04" stroke="#dc2626" stroke-width="0.7"/>
<rect x="594.72" y="559.67" width="2" height="15.33" fill="#dc2626" opacity="0.55"/>
<line x1="604.91" y1="297.67" x2="604.91" y2="305.94" stroke="#16a34a" stroke-width="0.7"/>
<rect x="603.91" y="559.07" width="2" height="15.93" fill="#16a34a" opacity="0.55"/>
<line x1="614.10" y1="288.11" x2="614.10" y2="304.65" stroke="#dc2626" stroke-width="0.7"/>
<rect x="613.10" y="558.30" width="2" height="16.70" fill="#dc2626" opacity="0.55"/>
<line x1="623.29" y1="295.86" x2="623.29" y2="308.01" stroke="#16a34a" stroke-width="0.7"/>
<rect x="622.29" y="559.32" width="2" height="15.68" fill="#16a34a" opacity="0.55"/>
<line x1="632.48" y1="293.02" x2="632.48" y2="305.68" stroke="#dc2626" stroke-width="0.7"/>
<rect x="631.48" y="556.15" width="2" height="18.85" fill="#dc2626" opacity="0.55"/>
<line x1="641.66" y1="294.83" x2="641.66" y2="307.75" stroke="#16a34a" stroke-width="0.7"/>
<rect x="640.66" y="561.34" width="2" height="13.66" fill="#16a34a" opacity="0.55"/>
<line x1="650.85" y1="282.69" x2="650.85" y2="297.67" stroke="#16a34a" stroke-width="0.7"/>
<rect x="649.85" y="557.32" width="2" height="17.68" fill="#16a34a" opacity="0.55"/>
<line x1="660.04" y1="288.89" x2="660.04" y2="302.07" stroke="#dc2626" stroke-width="0.7"/>
<rect x="659.04" y="561.44" width="2" height="13.56" fill="#dc2626" opacity="0.55"/>
<line x1="669.23" y1="284.75" x2="669.23" y2="295.09" stroke="#16a34a" stroke-width="0.7"/>
<rect x="668.23" y="562.05" width="2" height="12.95" fill="#16a34a" opacity="0.55"/>
<line x1="678.42" y1="266.15" x2="678.42" y2="278.55" stroke="#16a34a" stroke-width="0.7"/>
<rect x="677.42" y="557.91" width="2" height="17.09" fill="#16a34a" opacity="0.55"/>
<line x1="687.60" y1="269.77" x2="687.60" y2="283.72" stroke="#16a34a" stroke-width="0.7"/>
<rect x="686.60" y="562.13" width="2" height="12.87" fill="#16a34a" opacity="0.55"/>
<line x1="696.79" y1="271.83" x2="696.79" y2="286.56" stroke="#16a34a" stroke-width="0.7"/>
<rect x="695.79" y="561.54" width="2" height="13.46" fill="#16a34a" opacity="0.55"/>
<line x1="705.98" y1="272.35" x2="705.98" y2="285.27" stroke="#dc2626" stroke-width="0.7"/>
<rect x="704.98" y="560.14" width="2" height="14.86" fill="#dc2626" opacity="0.55"/>
<line x1="715.17" y1="270.80" x2="715.17" y2="285.53" stroke="#16a34a" stroke-width="0.7"/>
<rect x="714.17" y="557.34" width="2" height="17.66" fill="#16a34a" opacity="0.55"/>
<line x1="724.36" y1="254.01" x2="724.36" y2="278.55" stroke="#16a34a" stroke-width="0.7"/>
<rect x="723.36" y="553.55" width="2" height="21.45" fill="#16a34a" opacity="0.55"/>
<line x1="733.54" y1="265.37" x2="733.54" y2="274.93" stroke="#dc2626" stroke-width="0.7"/>
<rect x="732.54" y="561.39" width="2" height="13.61" fill="#dc2626" opacity="0.55"/>
<line x1="742.73" y1="268.73" x2="742.73" y2="278.55" stroke="#dc2626" stroke-width="0.7"/>
<rect x="741.73" y="560.21" width="2" height="14.79" fill="#dc2626" opacity="0.55"/>
<line x1="751.92" y1="275.45" x2="751.92" y2="290.95" stroke="#dc2626" stroke-width="0.7"/>
<rect x="750.92" y="557.08" width="2" height="17.92" fill="#dc2626" opacity="0.55"/>
<line x1="761.11" y1="284.24" x2="761.11" y2="307.23" stroke="#16a34a" stroke-width="0.7"/>
<rect x="760.11" y="557.69" width="2" height="17.31" fill="#16a34a" opacity="0.55"/>
<line x1="770.30" y1="245.22" x2="770.30" y2="269.51" stroke="#16a34a" stroke-width="0.7"/>
<rect x="769.30" y="551.64" width="2" height="23.36" fill="#16a34a" opacity="0.55"/>
<line x1="779.49" y1="222.22" x2="779.49" y2="243.67" stroke="#16a34a" stroke-width="0.7"/>
<rect x="778.49" y="550.82" width="2" height="24.18" fill="#16a34a" opacity="0.55"/>
<line x1="788.67" y1="218.09" x2="788.67" y2="233.59" stroke="#dc2626" stroke-width="0.7"/>
<rect x="787.67" y="554.15" width="2" height="20.85" fill="#dc2626" opacity="0.55"/>
<line x1="797.86" y1="213.18" x2="797.86" y2="223.00" stroke="#dc2626" stroke-width="0.7"/>
<rect x="796.86" y="557.97" width="2" height="17.03" fill="#dc2626" opacity="0.55"/>
<line x1="807.05" y1="192.25" x2="807.05" y2="215.25" stroke="#16a34a" stroke-width="0.7"/>
<rect x="806.05" y="545.88" width="2" height="29.12" fill="#16a34a" opacity="0.55"/>
<line x1="816.24" y1="185.28" x2="816.24" y2="202.07" stroke="#16a34a" stroke-width="0.7"/>
<rect x="815.24" y="555.39" width="2" height="19.61" fill="#16a34a" opacity="0.55"/>
<line x1="825.43" y1="181.40" x2="825.43" y2="201.30" stroke="#dc2626" stroke-width="0.7"/>
<rect x="824.43" y="551.13" width="2" height="23.87" fill="#dc2626" opacity="0.55"/>
<line x1="834.61" y1="178.30" x2="834.61" y2="208.79" stroke="#16a34a" stroke-width="0.7"/>
<rect x="833.61" y="554.07" width="2" height="20.93" fill="#16a34a" opacity="0.55"/>
<line x1="843.80" y1="134.12" x2="843.80" y2="176.23" stroke="#16a34a" stroke-width="0.7"/>
<rect x="842.80" y="536.63" width="2" height="38.37" fill="#16a34a" opacity="0.55"/>
<line x1="852.99" y1="125.33" x2="852.99" y2="169.77" stroke="#dc2626" stroke-width="0.7"/>
<rect x="851.99" y="541.32" width="2" height="33.68" fill="#dc2626" opacity="0.55"/>
<line x1="862.18" y1="162.28" x2="862.18" y2="196.90" stroke="#dc2626" stroke-width="0.7"/>
<rect x="861.18" y="539.24" width="2" height="35.76" fill="#dc2626" opacity="0.55"/>
<line x1="871.37" y1="156.34" x2="871.37" y2="209.82" stroke="#dc2626" stroke-width="0.7"/>
<rect x="870.37" y="538.71" width="2" height="36.29" fill="#dc2626" opacity="0.55"/>
<line x1="880.55" y1="176.49" x2="880.55" y2="197.16" stroke="#dc2626" stroke-width="0.7"/>
<rect x="879.55" y="551.30" width="2" height="23.70" fill="#dc2626" opacity="0.55"/>
<line x1="889.74" y1="177.78" x2="889.74" y2="190.96" stroke="#dc2626" stroke-width="0.7"/>
<rect x="888.74" y="558.95" width="2" height="16.05" fill="#dc2626" opacity="0.55"/>
<line x1="898.93" y1="174.42" x2="898.93" y2="184.50" stroke="#16a34a" stroke-width="0.7"/>
<rect x="897.93" y="558.80" width="2" height="16.20" fill="#16a34a" opacity="0.55"/>
<line x1="908.12" y1="164.09" x2="908.12" y2="185.28" stroke="#dc2626" stroke-width="0.7"/>
<rect x="907.12" y="555.07" width="2" height="19.93" fill="#dc2626" opacity="0.55"/>
<line x1="917.31" y1="146.00" x2="917.31" y2="168.22" stroke="#16a34a" stroke-width="0.7"/>
<rect x="916.31" y="557.68" width="2" height="17.32" fill="#16a34a" opacity="0.55"/>
<line x1="926.50" y1="132.82" x2="926.50" y2="154.53" stroke="#16a34a" stroke-width="0.7"/>
<rect x="925.50" y="557.68" width="2" height="17.32" fill="#16a34a" opacity="0.55"/>
<line x1="935.68" y1="133.86" x2="935.68" y2="154.53" stroke="#16a34a" stroke-width="0.7"/>
<rect x="934.68" y="560.84" width="2" height="14.16" fill="#16a34a" opacity="0.55"/>
<line x1="944.87" y1="129.21" x2="944.87" y2="136.70" stroke="#16a34a" stroke-width="0.7"/>
<rect x="943.87" y="561.02" width="2" height="13.98" fill="#16a34a" opacity="0.55"/>
<line x1="954.06" y1="108.79" x2="954.06" y2="133.86" stroke="#16a34a" stroke-width="0.7"/>
<rect x="953.06" y="554.91" width="2" height="20.09" fill="#16a34a" opacity="0.55"/>
<line x1="963.25" y1="92.00" x2="963.25" y2="115.25" stroke="#dc2626" stroke-width="0.7"/>
<rect x="962.25" y="546.82" width="2" height="28.18" fill="#dc2626" opacity="0.55"/>
<line x1="972.44" y1="105.44" x2="972.44" y2="121.97" stroke="#16a34a" stroke-width="0.7"/>
<rect x="971.44" y="557.71" width="2" height="17.29" fill="#16a34a" opacity="0.55"/>
<line x1="981.62" y1="103.89" x2="981.62" y2="120.42" stroke="#dc2626" stroke-width="0.7"/>
<rect x="980.62" y="559.57" width="2" height="15.43" fill="#dc2626" opacity="0.55"/>
<line x1="990.81" y1="109.31" x2="990.81" y2="134.89" stroke="#dc2626" stroke-width="0.7"/>
<rect x="989.81" y="553.20" width="2" height="21.80" fill="#dc2626" opacity="0.55"/>
<line x1="1000.00" y1="111.38" x2="1000.00" y2="123.26" stroke="#16a34a" stroke-width="0.7"/>
<rect x="999.00" y="562.73" width="2" height="12.27" fill="#16a34a" opacity="0.55"/>
<polyline points="72.00,165.90 81.19,152.20 90.38,201.55 99.56,259.17 108.75,260.21 117.94,289.40 127.13,274.16 136.32,276.74 145.50,233.34 154.69,242.38 163.88,248.58 173.07,208.27 182.26,260.98 191.45,273.64 200.63,313.95 209.82,306.72 219.01,312.92 228.20,310.07 237.39,297.93 246.57,333.33 255.76,343.15 264.95,329.45 274.14,363.04 283.33,389.14 292.51,428.67 301.70,453.74 310.89,387.07 320.08,393.53 329.27,393.02 338.46,383.20 347.64,382.16 356.83,483.71 366.02,444.43 375.21,446.76 384.40,428.41 393.58,411.88 402.77,408.78 411.96,418.60 421.15,433.32 430.34,413.43 439.52,401.28 448.71,395.34 457.90,389.14 467.09,411.88 476.28,408.00 485.47,415.75 494.65,383.20 503.84,392.50 513.03,403.09 522.22,334.88 531.41,327.13 540.59,326.61 549.78,296.12 558.97,277.00 568.16,276.74 577.35,297.93 586.53,301.55 595.72,307.75 604.91,298.45 614.10,302.84 623.29,298.96 632.48,301.55 641.66,298.19 650.85,290.95 660.04,297.16 669.23,285.01 678.42,276.74 687.60,276.23 696.79,272.61 705.98,283.72 715.17,272.09 724.36,266.41 733.54,268.48 742.73,274.93 751.92,287.85 761.11,285.27 770.30,246.51 779.49,233.59 788.67,228.43 797.86,215.51 807.05,200.00 816.24,187.60 825.43,197.42 834.61,186.83 843.80,142.13 852.99,168.22 862.18,182.95 871.37,195.61 880.55,184.76 889.74,183.21 898.93,175.20 908.12,166.93 917.31,148.84 926.50,140.32 935.68,138.25 944.87,129.72 954.06,109.83 963.25,113.45 972.44,106.21 981.62,117.06 990.81,117.58 1000.00,115.25" fill="none" stroke="#2563eb" stroke-width="1.4"/>
<line x1="72" y1="314.47" x2="1000" y2="314.47" stroke="#7c3aed" stroke-width="1" stroke-dasharray="5 4"/>
<line x1="72" y1="268.22" x2="1000" y2="268.22" stroke="#ea580c" stroke-width="1" stroke-dasharray="5 4"/>
<line x1="72" y1="282.69" x2="1000" y2="282.69" stroke="#ea580c" stroke-width="1" stroke-dasharray="5 4"/>
<text x="1030.0" y="109.0" font-family="ui-monospace, SFMono-Regular, Menlo, monospace" font-size="9" fill="#7c3aed">neckline_price=42.1</text>
<text x="1030.0" y="122.0" font-family="ui-monospace, SFMono-Regular, Menlo, monospace" font-size="9" fill="#ea580c">first_extreme_price=43.89</text>
<text x="1030.0" y="135.0" font-family="ui-monospace, SFMono-Regular, Menlo, monospace" font-size="9" fill="#ea580c">second_extreme_price=43.33</text>
<line x1="568.16" y1="92" x2="568.16" y2="485" stroke="#0284c7" stroke-width="1.2" stroke-dasharray="3 3"/>
<line x1="669.23" y1="92" x2="669.23" y2="485" stroke="#7c3aed" stroke-width="1.2" stroke-dasharray="3 3"/>
<line x1="770.30" y1="92" x2="770.30" y2="485" stroke="#dc2626" stroke-width="1.2" stroke-dasharray="3 3"/>
<circle cx="503.84" cy="392.50" r="3.2" fill="#f59e0b"/>
<circle cx="586.53" cy="301.55" r="3.2" fill="#f59e0b"/>
<circle cx="604.91" cy="298.45" r="3.2" fill="#f59e0b"/>
<circle cx="669.23" cy="285.01" r="3.2" fill="#f59e0b"/>
<text x="1030.0" y="163.0" font-family="ui-monospace, SFMono-Regular, Menlo, monospace" font-size="10" fill="#0f172a">events</text>
<text x="1030.0" y="178.0" font-family="ui-monospace, SFMono-Regular, Menlo, monospace" font-size="9" fill="#0284c7">formed: 2019-02-06</text>
<text x="1030.0" y="192.0" font-family="ui-monospace, SFMono-Regular, Menlo, monospace" font-size="9" fill="#7c3aed">available: 2019-02-22</text>
<text x="1030.0" y="206.0" font-family="ui-monospace, SFMono-Regular, Menlo, monospace" font-size="9" fill="#dc2626">invalidated: 2019-03-11</text>
<text x="1030.0" y="235.0" font-family="ui-monospace, SFMono-Regular, Menlo, monospace" font-size="9" fill="#92400e">orange dot = pivot availability</text>
<text x="72.0" y="600.0" font-family="ui-monospace, SFMono-Regular, Menlo, monospace" font-size="10" fill="#64748b">development source hash: 39dc4404462f5e33314b83ea2dce5abb63d5a0fcb6dd05441713e7b897bffd4b</text>
<text x="72.0" y="619.0" font-family="ui-monospace, SFMono-Regular, Menlo, monospace" font-size="10" fill="#64748b">Evidence presentation only; detector facts remain authoritative; no trade semantics.</text>
</svg>