<svg xmlns="http://www.w3.org/2000/svg" viewBox="0 0 1320 640">
<rect width="100%" height="100%" fill="#ffffff"/>
<rect x="72" y="92" width="928" height="393" fill="#f8fafc" stroke="#cbd5e1"/>
<rect x="72" y="505" width="928" height="70" fill="#f8fafc" stroke="#cbd5e1"/>
<rect x="1018" y="92" width="270" height="483" fill="#ffffff" stroke="#cbd5e1"/>
<text x="72.0" y="28.0" font-family="ui-monospace, SFMono-Regular, Menlo, monospace" font-size="18" fill="#0f172a">AGG · breakdown · invalidated</text>
<text x="72.0" y="52.0" font-family="ui-monospace, SFMono-Regular, Menlo, monospace" font-size="13" fill="#334155">2019-11-29 → 2020-05-01 · FIXED_INCOME · DETECTED_CANDIDATE</text>
<text x="72.0" y="72.0" font-family="ui-monospace, SFMono-Regular, Menlo, monospace" font-size="11" fill="#64748b">case=review_8c951fe88002669c0953 · human review: UNSET</text>
<line x1="72.00" y1="271.16" x2="72.00" y2="276.03" stroke="#dc2626" stroke-width="0.7"/>
<rect x="71.00" y="568.11" width="2" height="6.89" fill="#dc2626" opacity="0.55"/>
<line x1="80.84" y1="285.78" x2="80.84" y2="292.08" stroke="#16a34a" stroke-width="0.7"/>
<rect x="79.84" y="555.99" width="2" height="19.01" fill="#16a34a" opacity="0.55"/>
<line x1="89.68" y1="268.00" x2="89.68" y2="278.61" stroke="#16a34a" stroke-width="0.7"/>
<rect x="88.68" y="563.56" width="2" height="11.44" fill="#16a34a" opacity="0.55"/>
<line x1="98.51" y1="273.16" x2="98.51" y2="280.90" stroke="#dc2626" stroke-width="0.7"/>
<rect x="97.51" y="563.67" width="2" height="11.33" fill="#dc2626" opacity="0.55"/>
<line x1="107.35" y1="279.18" x2="107.35" y2="285.20" stroke="#16a34a" stroke-width="0.7"/>
<rect x="106.35" y="565.48" width="2" height="9.52" fill="#16a34a" opacity="0.55"/>
<line x1="116.19" y1="280.90" x2="116.19" y2="288.64" stroke="#16a34a" stroke-width="0.7"/>
<rect x="115.19" y="562.58" width="2" height="12.42" fill="#16a34a" opacity="0.55"/>
<line x1="125.03" y1="279.76" x2="125.03" y2="284.34" stroke="#dc2626" stroke-width="0.7"/>
<rect x="124.03" y="560.65" width="2" height="14.35" fill="#dc2626" opacity="0.55"/>
<line x1="133.87" y1="281.19" x2="133.87" y2="286.35" stroke="#dc2626" stroke-width="0.7"/>
<rect x="132.87" y="566.51" width="2" height="8.49" fill="#dc2626" opacity="0.55"/>
<line x1="142.70" y1="274.60" x2="142.70" y2="282.91" stroke="#16a34a" stroke-width="0.7"/>
<rect x="141.70" y="568.38" width="2" height="6.62" fill="#16a34a" opacity="0.55"/>
<line x1="151.54" y1="277.75" x2="151.54" y2="294.09" stroke="#dc2626" stroke-width="0.7"/>
<rect x="150.54" y="560.79" width="2" height="14.21" fill="#dc2626" opacity="0.55"/>
<line x1="160.38" y1="275.74" x2="160.38" y2="288.93" stroke="#16a34a" stroke-width="0.7"/>
<rect x="159.38" y="564.47" width="2" height="10.53" fill="#16a34a" opacity="0.55"/>
<line x1="169.22" y1="280.62" x2="169.22" y2="286.06" stroke="#dc2626" stroke-width="0.7"/>
<rect x="168.22" y="566.67" width="2" height="8.33" fill="#dc2626" opacity="0.55"/>
<line x1="178.06" y1="280.33" x2="178.06" y2="285.49" stroke="#dc2626" stroke-width="0.7"/>
<rect x="177.06" y="567.91" width="2" height="7.09" fill="#dc2626" opacity="0.55"/>
<line x1="186.90" y1="284.34" x2="186.90" y2="290.08" stroke="#dc2626" stroke-width="0.7"/>
<rect x="185.90" y="563.84" width="2" height="11.16" fill="#dc2626" opacity="0.55"/>
<line x1="195.73" y1="290.08" x2="195.73" y2="296.67" stroke="#16a34a" stroke-width="0.7"/>
<rect x="194.73" y="562.61" width="2" height="12.39" fill="#16a34a" opacity="0.55"/>
<line x1="204.57" y1="290.94" x2="204.57" y2="296.10" stroke="#16a34a" stroke-width="0.7"/>
<rect x="203.57" y="550.69" width="2" height="24.31" fill="#16a34a" opacity="0.55"/>
<line x1="213.41" y1="289.22" x2="213.41" y2="295.24" stroke="#dc2626" stroke-width="0.7"/>
<rect x="212.41" y="566.21" width="2" height="8.79" fill="#dc2626" opacity="0.55"/>
<line x1="222.25" y1="288.93" x2="222.25" y2="296.67" stroke="#16a34a" stroke-width="0.7"/>
<rect x="221.25" y="569.96" width="2" height="5.04" fill="#16a34a" opacity="0.55"/>
<line x1="231.09" y1="286.35" x2="231.09" y2="291.22" stroke="#16a34a" stroke-width="0.7"/>
<rect x="230.09" y="568.29" width="2" height="6.71" fill="#16a34a" opacity="0.55"/>
<line x1="239.92" y1="282.05" x2="239.92" y2="283.77" stroke="#16a34a" stroke-width="0.7"/>
<rect x="238.92" y="567.34" width="2" height="7.66" fill="#16a34a" opacity="0.55"/>
<line x1="248.76" y1="281.76" x2="248.76" y2="290.65" stroke="#16a34a" stroke-width="0.7"/>
<rect x="247.76" y="567.83" width="2" height="7.17" fill="#16a34a" opacity="0.55"/>
<line x1="257.60" y1="284.92" x2="257.60" y2="290.08" stroke="#dc2626" stroke-width="0.7"/>
<rect x="256.60" y="559.73" width="2" height="15.27" fill="#dc2626" opacity="0.55"/>
<line x1="266.44" y1="277.46" x2="266.44" y2="284.34" stroke="#16a34a" stroke-width="0.7"/>
<rect x="265.44" y="557.84" width="2" height="17.16" fill="#16a34a" opacity="0.55"/>
<line x1="275.28" y1="270.30" x2="275.28" y2="278.04" stroke="#16a34a" stroke-width="0.7"/>
<rect x="274.28" y="563.95" width="2" height="11.05" fill="#16a34a" opacity="0.55"/>
<line x1="284.11" y1="268.00" x2="284.11" y2="276.32" stroke="#dc2626" stroke-width="0.7"/>
<rect x="283.11" y="561.16" width="2" height="13.84" fill="#dc2626" opacity="0.55"/>
<line x1="292.95" y1="274.02" x2="292.95" y2="278.04" stroke="#dc2626" stroke-width="0.7"/>
<rect x="291.95" y="566.78" width="2" height="8.22" fill="#dc2626" opacity="0.55"/>
<line x1="301.79" y1="273.45" x2="301.79" y2="284.92" stroke="#dc2626" stroke-width="0.7"/>
<rect x="300.79" y="565.21" width="2" height="9.79" fill="#dc2626" opacity="0.55"/>
<line x1="310.63" y1="277.75" x2="310.63" y2="287.21" stroke="#16a34a" stroke-width="0.7"/>
<rect x="309.63" y="561.30" width="2" height="13.70" fill="#16a34a" opacity="0.55"/>
<line x1="319.47" y1="272.02" x2="319.47" y2="276.89" stroke="#16a34a" stroke-width="0.7"/>
<rect x="318.47" y="563.80" width="2" height="11.20" fill="#16a34a" opacity="0.55"/>
<line x1="328.30" y1="273.45" x2="328.30" y2="276.89" stroke="#16a34a" stroke-width="0.7"/>
<rect x="327.30" y="564.19" width="2" height="10.81" fill="#16a34a" opacity="0.55"/>
<line x1="337.14" y1="271.16" x2="337.14" y2="273.74" stroke="#16a34a" stroke-width="0.7"/>
<rect x="336.14" y="566.85" width="2" height="8.15" fill="#16a34a" opacity="0.55"/>
<line x1="345.98" y1="266.28" x2="345.98" y2="269.72" stroke="#16a34a" stroke-width="0.7"/>
<rect x="344.98" y="567.59" width="2" height="7.41" fill="#16a34a" opacity="0.55"/>
<line x1="354.82" y1="265.71" x2="354.82" y2="270.30" stroke="#16a34a" stroke-width="0.7"/>
<rect x="353.82" y="567.07" width="2" height="7.93" fill="#16a34a" opacity="0.55"/>
<line x1="363.66" y1="268.86" x2="363.66" y2="272.59" stroke="#16a34a" stroke-width="0.7"/>
<rect x="362.66" y="565.99" width="2" height="9.01" fill="#16a34a" opacity="0.55"/>
<line x1="372.50" y1="259.98" x2="372.50" y2="265.71" stroke="#16a34a" stroke-width="0.7"/>
<rect x="371.50" y="563.27" width="2" height="11.73" fill="#16a34a" opacity="0.55"/>
<line x1="381.33" y1="257.68" x2="381.33" y2="260.55" stroke="#16a34a" stroke-width="0.7"/>
<rect x="380.33" y="567.28" width="2" height="7.72" fill="#16a34a" opacity="0.55"/>
<line x1="390.17" y1="251.67" x2="390.17" y2="255.11" stroke="#dc2626" stroke-width="0.7"/>
<rect x="389.17" y="564.70" width="2" height="10.30" fill="#dc2626" opacity="0.55"/>
<line x1="399.01" y1="246.22" x2="399.01" y2="252.53" stroke="#16a34a" stroke-width="0.7"/>
<rect x="398.01" y="567.92" width="2" height="7.08" fill="#16a34a" opacity="0.55"/>
<line x1="407.85" y1="238.48" x2="407.85" y2="241.92" stroke="#dc2626" stroke-width="0.7"/>
<rect x="406.85" y="564.50" width="2" height="10.50" fill="#dc2626" opacity="0.55"/>
<line x1="416.69" y1="238.48" x2="416.69" y2="244.50" stroke="#dc2626" stroke-width="0.7"/>
<rect x="415.69" y="566.17" width="2" height="8.83" fill="#dc2626" opacity="0.55"/>
<line x1="425.52" y1="233.03" x2="425.52" y2="239.91" stroke="#16a34a" stroke-width="0.7"/>
<rect x="424.52" y="566.79" width="2" height="8.21" fill="#16a34a" opacity="0.55"/>
<line x1="434.36" y1="227.59" x2="434.36" y2="236.47" stroke="#16a34a" stroke-width="0.7"/>
<rect x="433.36" y="557.74" width="2" height="17.26" fill="#16a34a" opacity="0.55"/>
<line x1="443.20" y1="223.86" x2="443.20" y2="232.17" stroke="#16a34a" stroke-width="0.7"/>
<rect x="442.20" y="561.24" width="2" height="13.76" fill="#16a34a" opacity="0.55"/>
<line x1="452.04" y1="231.31" x2="452.04" y2="240.77" stroke="#16a34a" stroke-width="0.7"/>
<rect x="451.04" y="553.94" width="2" height="21.06" fill="#16a34a" opacity="0.55"/>
<line x1="460.88" y1="240.20" x2="460.88" y2="246.51" stroke="#dc2626" stroke-width="0.7"/>
<rect x="459.88" y="564.70" width="2" height="10.30" fill="#dc2626" opacity="0.55"/>
<line x1="469.71" y1="246.79" x2="469.71" y2="249.95" stroke="#16a34a" stroke-width="0.7"/>
<rect x="468.71" y="560.97" width="2" height="14.03" fill="#16a34a" opacity="0.55"/>
<line x1="478.55" y1="245.07" x2="478.55" y2="249.66" stroke="#16a34a" stroke-width="0.7"/>
<rect x="477.55" y="560.31" width="2" height="14.69" fill="#16a34a" opacity="0.55"/>
<line x1="487.39" y1="235.04" x2="487.39" y2="240.20" stroke="#16a34a" stroke-width="0.7"/>
<rect x="486.39" y="563.81" width="2" height="11.19" fill="#16a34a" opacity="0.55"/>
<line x1="496.23" y1="230.45" x2="496.23" y2="234.75" stroke="#dc2626" stroke-width="0.7"/>
<rect x="495.23" y="564.01" width="2" height="10.99" fill="#dc2626" opacity="0.55"/>
<line x1="505.07" y1="233.03" x2="505.07" y2="237.62" stroke="#dc2626" stroke-width="0.7"/>
<rect x="504.07" y="567.47" width="2" height="7.53" fill="#dc2626" opacity="0.55"/>
<line x1="513.90" y1="239.05" x2="513.90" y2="242.21" stroke="#dc2626" stroke-width="0.7"/>
<rect x="512.90" y="564.58" width="2" height="10.42" fill="#dc2626" opacity="0.55"/>
<line x1="522.74" y1="236.19" x2="522.74" y2="240.20" stroke="#16a34a" stroke-width="0.7"/>
<rect x="521.74" y="566.53" width="2" height="8.47" fill="#16a34a" opacity="0.55"/>
<line x1="531.58" y1="232.17" x2="531.58" y2="235.33" stroke="#dc2626" stroke-width="0.7"/>
<rect x="530.58" y="567.27" width="2" height="7.73" fill="#dc2626" opacity="0.55"/>
<line x1="540.42" y1="227.01" x2="540.42" y2="233.32" stroke="#dc2626" stroke-width="0.7"/>
<rect x="539.42" y="567.12" width="2" height="7.88" fill="#dc2626" opacity="0.55"/>
<line x1="549.26" y1="229.59" x2="549.26" y2="233.61" stroke="#16a34a" stroke-width="0.7"/>
<rect x="548.26" y="566.87" width="2" height="8.13" fill="#16a34a" opacity="0.55"/>
<line x1="558.10" y1="223.57" x2="558.10" y2="229.02" stroke="#16a34a" stroke-width="0.7"/>
<rect x="557.10" y="563.00" width="2" height="12.00" fill="#16a34a" opacity="0.55"/>
<line x1="566.93" y1="211.53" x2="566.93" y2="218.99" stroke="#16a34a" stroke-width="0.7"/>
<rect x="565.93" y="562.78" width="2" height="12.22" fill="#16a34a" opacity="0.55"/>
<line x1="575.77" y1="202.07" x2="575.77" y2="207.81" stroke="#dc2626" stroke-width="0.7"/>
<rect x="574.77" y="552.02" width="2" height="22.98" fill="#dc2626" opacity="0.55"/>
<line x1="584.61" y1="197.77" x2="584.61" y2="206.66" stroke="#16a34a" stroke-width="0.7"/>
<rect x="583.61" y="552.79" width="2" height="22.21" fill="#16a34a" opacity="0.55"/>
<line x1="593.45" y1="196.91" x2="593.45" y2="206.95" stroke="#16a34a" stroke-width="0.7"/>
<rect x="592.45" y="562.49" width="2" height="12.51" fill="#16a34a" opacity="0.55"/>
<line x1="602.29" y1="192.90" x2="602.29" y2="204.37" stroke="#dc2626" stroke-width="0.7"/>
<rect x="601.29" y="547.06" width="2" height="27.94" fill="#dc2626" opacity="0.55"/>
<line x1="611.12" y1="175.99" x2="611.12" y2="192.61" stroke="#16a34a" stroke-width="0.7"/>
<rect x="610.12" y="526.12" width="2" height="48.88" fill="#16a34a" opacity="0.55"/>
<line x1="619.96" y1="173.12" x2="619.96" y2="188.89" stroke="#dc2626" stroke-width="0.7"/>
<rect x="618.96" y="538.16" width="2" height="36.84" fill="#dc2626" opacity="0.55"/>
<line x1="628.80" y1="149.62" x2="628.80" y2="185.45" stroke="#16a34a" stroke-width="0.7"/>
<rect x="627.80" y="537.42" width="2" height="37.58" fill="#16a34a" opacity="0.55"/>
<line x1="637.64" y1="153.63" x2="637.64" y2="170.54" stroke="#dc2626" stroke-width="0.7"/>
<rect x="636.64" y="557.58" width="2" height="17.42" fill="#dc2626" opacity="0.55"/>
<line x1="646.48" y1="150.48" x2="646.48" y2="159.08" stroke="#16a34a" stroke-width="0.7"/>
<rect x="645.48" y="556.12" width="2" height="18.88" fill="#16a34a" opacity="0.55"/>
<line x1="655.31" y1="120.67" x2="655.31" y2="142.74" stroke="#dc2626" stroke-width="0.7"/>
<rect x="654.31" y="532.49" width="2" height="42.51" fill="#dc2626" opacity="0.55"/>
<line x1="664.15" y1="92.00" x2="664.15" y2="157.07" stroke="#dc2626" stroke-width="0.7"/>
<rect x="663.15" y="538.55" width="2" height="36.45" fill="#dc2626" opacity="0.55"/>
<line x1="672.99" y1="137.58" x2="672.99" y2="180.86" stroke="#dc2626" stroke-width="0.7"/>
<rect x="671.99" y="519.93" width="2" height="55.07" fill="#dc2626" opacity="0.55"/>
<line x1="681.83" y1="163.09" x2="681.83" y2="227.30" stroke="#dc2626" stroke-width="0.7"/>
<rect x="680.83" y="536.19" width="2" height="38.81" fill="#dc2626" opacity="0.55"/>
<line x1="690.67" y1="221.57" x2="690.67" y2="384.67" stroke="#dc2626" stroke-width="0.7"/>
<rect x="689.67" y="521.94" width="2" height="53.06" fill="#dc2626" opacity="0.55"/>
<line x1="699.50" y1="286.92" x2="699.50" y2="350.56" stroke="#16a34a" stroke-width="0.7"/>
<rect x="698.50" y="505.00" width="2" height="70.00" fill="#16a34a" opacity="0.55"/>
<line x1="708.34" y1="244.50" x2="708.34" y2="344.54" stroke="#16a34a" stroke-width="0.7"/>
<rect x="707.34" y="544.51" width="2" height="30.49" fill="#16a34a" opacity="0.55"/>
<line x1="717.18" y1="245.36" x2="717.18" y2="340.81" stroke="#dc2626" stroke-width="0.7"/>
<rect x="716.18" y="530.99" width="2" height="44.01" fill="#dc2626" opacity="0.55"/>
<line x1="726.02" y1="341.39" x2="726.02" y2="478.98" stroke="#dc2626" stroke-width="0.7"/>
<rect x="725.02" y="524.24" width="2" height="50.76" fill="#dc2626" opacity="0.55"/>
<line x1="734.86" y1="380.09" x2="734.86" y2="485.00" stroke="#16a34a" stroke-width="0.7"/>
<rect x="733.86" y="541.97" width="2" height="33.03" fill="#16a34a" opacity="0.55"/>
<line x1="743.70" y1="350.85" x2="743.70" y2="401.87" stroke="#16a34a" stroke-width="0.7"/>
<rect x="742.70" y="530.61" width="2" height="44.39" fill="#16a34a" opacity="0.55"/>
<line x1="752.53" y1="273.45" x2="752.53" y2="386.39" stroke="#16a34a" stroke-width="0.7"/>
<rect x="751.53" y="537.59" width="2" height="37.41" fill="#16a34a" opacity="0.55"/>
<line x1="761.37" y1="255.39" x2="761.37" y2="327.05" stroke="#16a34a" stroke-width="0.7"/>
<rect x="760.37" y="546.70" width="2" height="28.30" fill="#16a34a" opacity="0.55"/>
<line x1="770.21" y1="221.57" x2="770.21" y2="251.67" stroke="#16a34a" stroke-width="0.7"/>
<rect x="769.21" y="544.86" width="2" height="30.14" fill="#16a34a" opacity="0.55"/>
<line x1="779.05" y1="203.22" x2="779.05" y2="237.33" stroke="#16a34a" stroke-width="0.7"/>
<rect x="778.05" y="532.98" width="2" height="42.02" fill="#16a34a" opacity="0.55"/>
<line x1="787.89" y1="197.77" x2="787.89" y2="227.87" stroke="#16a34a" stroke-width="0.7"/>
<rect x="786.89" y="553.57" width="2" height="21.43" fill="#16a34a" opacity="0.55"/>
<line x1="796.72" y1="178.28" x2="796.72" y2="196.63" stroke="#dc2626" stroke-width="0.7"/>
<rect x="795.72" y="542.73" width="2" height="32.27" fill="#dc2626" opacity="0.55"/>
<line x1="805.56" y1="186.31" x2="805.56" y2="207.81" stroke="#dc2626" stroke-width="0.7"/>
<rect x="804.56" y="536.11" width="2" height="38.89" fill="#dc2626" opacity="0.55"/>
<line x1="814.40" y1="202.93" x2="814.40" y2="224.43" stroke="#dc2626" stroke-width="0.7"/>
<rect x="813.40" y="538.10" width="2" height="36.90" fill="#dc2626" opacity="0.55"/>
<line x1="823.24" y1="208.09" x2="823.24" y2="223.00" stroke="#dc2626" stroke-width="0.7"/>
<rect x="822.24" y="539.22" width="2" height="35.78" fill="#dc2626" opacity="0.55"/>
<line x1="832.08" y1="210.67" x2="832.08" y2="235.04" stroke="#16a34a" stroke-width="0.7"/>
<rect x="831.08" y="545.39" width="2" height="29.61" fill="#16a34a" opacity="0.55"/>
<line x1="840.91" y1="196.91" x2="840.91" y2="213.83" stroke="#16a34a" stroke-width="0.7"/>
<rect x="839.91" y="554.06" width="2" height="20.94" fill="#16a34a" opacity="0.55"/>
<line x1="849.75" y1="193.19" x2="849.75" y2="204.08" stroke="#16a34a" stroke-width="0.7"/>
<rect x="848.75" y="558.40" width="2" height="16.60" fill="#16a34a" opacity="0.55"/>
<line x1="858.59" y1="186.60" x2="858.59" y2="198.63" stroke="#16a34a" stroke-width="0.7"/>
<rect x="857.59" y="561.62" width="2" height="13.38" fill="#16a34a" opacity="0.55"/>
<line x1="867.43" y1="149.90" x2="867.43" y2="180.86" stroke="#16a34a" stroke-width="0.7"/>
<rect x="866.43" y="562.44" width="2" height="12.56" fill="#16a34a" opacity="0.55"/>
<line x1="876.27" y1="152.20" x2="876.27" y2="170.54" stroke="#dc2626" stroke-width="0.7"/>
<rect x="875.27" y="559.19" width="2" height="15.81" fill="#dc2626" opacity="0.55"/>
<line x1="885.10" y1="157.07" x2="885.10" y2="169.11" stroke="#dc2626" stroke-width="0.7"/>
<rect x="884.10" y="559.24" width="2" height="15.76" fill="#dc2626" opacity="0.55"/>
<line x1="893.94" y1="148.18" x2="893.94" y2="165.38" stroke="#16a34a" stroke-width="0.7"/>
<rect x="892.94" y="562.69" width="2" height="12.31" fill="#16a34a" opacity="0.55"/>
<line x1="902.78" y1="141.88" x2="902.78" y2="151.62" stroke="#16a34a" stroke-width="0.7"/>
<rect x="901.78" y="561.30" width="2" height="13.70" fill="#16a34a" opacity="0.55"/>
<line x1="911.62" y1="139.30" x2="911.62" y2="156.21" stroke="#dc2626" stroke-width="0.7"/>
<rect x="910.62" y="562.12" width="2" height="12.88" fill="#dc2626" opacity="0.55"/>
<line x1="920.46" y1="149.04" x2="920.46" y2="158.79" stroke="#dc2626" stroke-width="0.7"/>
<rect x="919.46" y="563.64" width="2" height="11.36" fill="#dc2626" opacity="0.55"/>
<line x1="929.30" y1="144.46" x2="929.30" y2="155.06" stroke="#dc2626" stroke-width="0.7"/>
<rect x="928.30" y="562.38" width="2" height="12.62" fill="#dc2626" opacity="0.55"/>
<line x1="938.13" y1="150.19" x2="938.13" y2="158.79" stroke="#dc2626" stroke-width="0.7"/>
<rect x="937.13" y="562.12" width="2" height="12.88" fill="#dc2626" opacity="0.55"/>
<line x1="946.97" y1="144.17" x2="946.97" y2="151.62" stroke="#16a34a" stroke-width="0.7"/>
<rect x="945.97" y="563.46" width="2" height="11.54" fill="#16a34a" opacity="0.55"/>
<line x1="955.81" y1="145.89" x2="955.81" y2="151.34" stroke="#16a34a" stroke-width="0.7"/>
<rect x="954.81" y="565.86" width="2" height="9.14" fill="#16a34a" opacity="0.55"/>
<line x1="964.65" y1="146.75" x2="964.65" y2="162.23" stroke="#dc2626" stroke-width="0.7"/>
<rect x="963.65" y="564.87" width="2" height="10.13" fill="#dc2626" opacity="0.55"/>
<line x1="973.49" y1="144.17" x2="973.49" y2="153.63" stroke="#16a34a" stroke-width="0.7"/>
<rect x="972.49" y="558.45" width="2" height="16.55" fill="#16a34a" opacity="0.55"/>
<line x1="982.32" y1="143.31" x2="982.32" y2="151.34" stroke="#16a34a" stroke-width="0.7"/>
<rect x="981.32" y="561.11" width="2" height="13.89" fill="#16a34a" opacity="0.55"/>
<line x1="991.16" y1="143.02" x2="991.16" y2="155.35" stroke="#dc2626" stroke-width="0.7"/>
<rect x="990.16" y="553.55" width="2" height="21.45" fill="#dc2626" opacity="0.55"/>
<line x1="1000.00" y1="154.20" x2="1000.00" y2="166.53" stroke="#dc2626" stroke-width="0.7"/>
<rect x="999.00" y="556.61" width="2" height="18.39" fill="#dc2626" opacity="0.55"/>
<polyline points="72.00,275.74 80.84,286.35 89.68,271.73 98.51,277.18 107.35,280.90 116.19,285.49 125.03,283.77 133.87,284.92 142.70,276.32 151.54,290.08 160.38,277.18 169.22,283.77 178.06,283.48 186.90,289.79 195.73,291.80 204.57,291.22 213.41,293.52 222.25,289.50 231.09,286.64 239.92,282.34 248.76,282.34 257.60,289.79 266.44,280.90 275.28,271.44 284.11,274.02 292.95,277.46 301.79,281.19 310.63,277.75 319.47,272.30 328.30,274.31 337.14,271.44 345.98,266.57 354.82,266.57 363.66,270.30 372.50,261.12 381.33,259.40 390.17,255.11 399.01,249.09 407.85,239.05 416.69,241.92 425.52,234.47 434.36,234.18 443.20,224.43 452.04,232.46 460.88,243.35 469.71,248.23 478.55,246.22 487.39,236.76 496.23,233.03 505.07,237.05 513.90,240.49 522.74,238.19 531.58,234.75 540.42,230.45 549.26,231.31 558.10,223.86 566.93,217.27 575.77,206.66 584.61,200.93 593.45,204.37 602.29,203.79 611.12,179.43 619.96,187.46 628.80,164.81 637.64,167.39 646.48,157.07 655.31,132.42 664.15,136.72 672.99,174.84 681.83,222.43 690.67,354.00 699.50,304.41 708.34,250.81 717.18,335.08 726.02,456.05 734.86,387.82 743.70,356.87 752.53,282.05 761.37,255.39 770.21,222.14 779.05,212.11 787.89,198.06 796.72,194.91 805.56,203.79 814.40,222.14 823.24,217.27 832.08,214.97 840.91,198.92 849.75,194.33 858.59,191.18 867.43,149.90 876.27,165.67 885.10,163.95 893.94,150.19 902.78,145.89 911.62,149.90 920.46,154.78 929.30,153.06 938.13,153.06 946.97,145.03 955.81,146.75 964.65,162.23 973.49,149.04 982.32,146.75 991.16,154.20 1000.00,160.80" fill="none" stroke="#2563eb" stroke-width="1.4"/>
<line x1="72" y1="296.67" x2="1000" y2="296.67" stroke="#7c3aed" stroke-width="1" stroke-dasharray="5 4"/>
<text x="1030.0" y="109.0" font-family="ui-monospace, SFMono-Regular, Menlo, monospace" font-size="9" fill="#7c3aed">boundary_axis=112.1</text>
<line x1="690.67" y1="92" x2="690.67" y2="485" stroke="#0284c7" stroke-width="1.2" stroke-dasharray="3 3"/>
<line x1="690.67" y1="92" x2="690.67" y2="485" stroke="#7c3aed" stroke-width="1.2" stroke-dasharray="3 3"/>
<line x1="779.05" y1="92" x2="779.05" y2="485" stroke="#dc2626" stroke-width="1.2" stroke-dasharray="3 3"/>
<text x="1030.0" y="137.0" font-family="ui-monospace, SFMono-Regular, Menlo, monospace" font-size="10" fill="#0f172a">events</text>
<text x="1030.0" y="152.0" font-family="ui-monospace, SFMono-Regular, Menlo, monospace" font-size="9" fill="#0284c7">formed: 2020-03-12</text>
<text x="1030.0" y="166.0" font-family="ui-monospace, SFMono-Regular, Menlo, monospace" font-size="9" fill="#7c3aed">available: 2020-03-12</text>
<text x="1030.0" y="180.0" font-family="ui-monospace, SFMono-Regular, Menlo, monospace" font-size="9" fill="#dc2626">invalidated: 2020-03-26</text>
<text x="1030.0" y="209.0" font-family="ui-monospace, SFMono-Regular, Menlo, monospace" font-size="9" fill="#92400e">orange dot = pivot availability</text>
<text x="72.0" y="600.0" font-family="ui-monospace, SFMono-Regular, Menlo, monospace" font-size="10" fill="#64748b">development source hash: 34021b139326d8c048e4d41ba263914a7510dc01cf11c44827aca2affa3ddfdb</text>
<text x="72.0" y="619.0" font-family="ui-monospace, SFMono-Regular, Menlo, monospace" font-size="10" fill="#64748b">Evidence presentation only; detector facts remain authoritative; no trade semantics.</text>
</svg>